<?xml version="1.0" encoding="UTF-8" standalone="no"?>
<!-- Created with Keyshape -->
<svg xmlns="http://www.w3.org/2000/svg" shape-rendering="geometricPrecision" text-rendering="geometricPrecision" viewBox="0 0 150 150" style="white-space: pre;">
    <style>
@keyframes qfcitd0y90auhdnniyywy8kt_t { 0% { transform: translate(35.589px,37.328px); } 88.1188% { transform: translate(35.589px,37.328px); animation-timing-function: cubic-bezier(0.5,0.285,0.6,0.83); } 89.7623% { transform: translate(35.589px,33.054376px); animation-timing-function: cubic-bezier(0.5,0.285,0.6,0.83); } 91.4158% { transform: translate(35.589px,37.328px); animation-timing-function: cubic-bezier(0.5,0.285,0.6,0.83); } 93.0693% { transform: translate(35.589px,33.0544px); animation-timing-function: cubic-bezier(0.5,0.285,0.6,0.83); } 95.0495% { transform: translate(35.589px,37.328px); } 100% { transform: translate(35.589px,37.328px); } }
@keyframes kifonz7icp9amdl5epqn4jnm_t { 0% { transform: rotate(0deg) scale(2,2) translate(-17.7945px,-7.4365px); } 4.9504% { transform: rotate(0deg) scale(2,2) translate(-17.7945px,-7.4365px); animation-timing-function: cubic-bezier(0,0.97,1,1); } 9.9009% { transform: rotate(-5deg) scale(2,2) translate(-17.7945px,-7.4365px); animation-timing-function: cubic-bezier(0,0.97,1,1); } 19.8019% { transform: rotate(-5deg) scale(2,2) translate(-17.7945px,-7.4365px); animation-timing-function: cubic-bezier(0,0.97,1,1); } 23.7623% { transform: rotate(5deg) scale(2,2) translate(-17.7945px,-7.4365px); animation-timing-function: cubic-bezier(0,0.97,1,1); } 32.6732% { transform: rotate(5deg) scale(2,2) translate(-17.7945px,-7.4365px); animation-timing-function: cubic-bezier(0,0.97,1,1); } 36.6336% { transform: rotate(0deg) scale(2,2) translate(-17.7945px,-7.4365px); animation-timing-function: cubic-bezier(0,0.97,1,1); } 44.5544% { transform: rotate(0deg) scale(2,2) translate(-17.7945px,-7.4365px); animation-timing-function: cubic-bezier(0,0.97,1,1); } 48.5148% { transform: rotate(-5deg) scale(2,2) translate(-17.7945px,-7.4365px); animation-timing-function: cubic-bezier(0,0.97,1,1); } 59.4059% { transform: rotate(-5deg) scale(2,2) translate(-17.7945px,-7.4365px); animation-timing-function: cubic-bezier(0,0.97,1,1); } 61.3861% { transform: rotate(0deg) scale(2,2) translate(-17.7945px,-7.4365px); animation-timing-function: cubic-bezier(0,0.97,1,1); } 76.2376% { transform: rotate(0deg) scale(2,2) translate(-17.7945px,-7.4365px); } 100% { transform: rotate(0deg) scale(2,2) translate(-17.7945px,-7.4365px); } }
@keyframes z7ym8kxyiakpot59gyftoenc_t { 0% { transform: translate(45.799px,6.988px); } 4.9504% { transform: translate(45.799px,6.988px); animation-timing-function: cubic-bezier(0,0.97,1,1); } 9.9009% { transform: translate(28.691px,0.828445px); animation-timing-function: cubic-bezier(0,0.97,1,1); } 19.8019% { transform: translate(28.691px,0.828445px); animation-timing-function: cubic-bezier(0,0.97,1,1); } 22.4356% { transform: translate(62.8772px,-4.99277px); animation-timing-function: cubic-bezier(0,0.97,1,1); } 32.6732% { transform: translate(62.8772px,-4.99277px); animation-timing-function: cubic-bezier(0,0.97,1,1); } 36.6336% { transform: translate(40.8231px,13.6548px); animation-timing-function: cubic-bezier(0,0.97,1,1); } 44.5544% { transform: translate(40.8231px,13.6548px); animation-timing-function: cubic-bezier(0,0.97,1,1); } 48.5148% { transform: translate(28.691px,4.80163px); animation-timing-function: cubic-bezier(0,0.97,1,1); } 59.4059% { transform: translate(28.691px,4.80163px); animation-timing-function: cubic-bezier(0,0.97,1,1); } 61.3861% { transform: translate(45.1143px,-11.0371px); animation-timing-function: cubic-bezier(0,0.97,1,1); } 70.297% { transform: translate(45.114px,-11.037px); animation-timing-function: cubic-bezier(0,0.97,1,1); } 72.2772% { transform: translate(32.2713px,0.877496px); animation-timing-function: cubic-bezier(0,0.97,1,1); } 78.2178% { transform: translate(32.2713px,0.877496px); animation-timing-function: cubic-bezier(0,0.97,1,1); } 83.1683% { transform: translate(45.799px,4.45695px); } 88.1188% { transform: translate(45.799px,4.456951px); animation-timing-function: cubic-bezier(0.5,0.285,0.6,0.83); } 90.099% { transform: translate(45.799px,-1.804807px); animation-timing-function: cubic-bezier(0.5,0.285,0.6,0.83); } 92.0792% { transform: translate(45.799px,4.389743px); animation-timing-function: cubic-bezier(0.5,0.285,0.6,0.83); } 94.0594% { transform: translate(45.799px,-2.055884px); animation-timing-function: cubic-bezier(0.5,0.285,0.6,0.83); } 96.0396% { transform: translate(45.799px,6.988px); } 100% { transform: translate(45.799px,6.988px); } }
@keyframes nn2wdrlc76280m3xydpkzsjy_t { 0% { transform: scale(2,2) translate(-3.449px,-3.494px); } 4.9504% { transform: scale(2,2) translate(-3.449px,-3.494px); animation-timing-function: cubic-bezier(0,0.97,1,1); } 5.9405% { transform: scale(2,0) translate(-3.449px,-3.494px); animation-timing-function: cubic-bezier(0,0.97,1,1); } 6.9306% { transform: scale(2,2) translate(-3.449px,-3.494px); animation-timing-function: cubic-bezier(0,0.97,1,1); } 22.4356% { transform: scale(2,2) translate(-3.449px,-3.494px); animation-timing-function: cubic-bezier(0,0.97,1,1); } 23.0891% { transform: scale(2,0) translate(-3.449px,-3.494px); animation-timing-function: cubic-bezier(0,0.97,1,1); } 23.7623% { transform: scale(2,2) translate(-3.449px,-3.494px); animation-timing-function: cubic-bezier(0,0.97,1,1); } 47.1881% { transform: scale(2,2) translate(-3.449px,-3.494px); animation-timing-function: cubic-bezier(0,0.97,1,1); } 47.8415% { transform: scale(2,0) translate(-3.449px,-3.494px); animation-timing-function: cubic-bezier(0,0.97,1,1); } 48.5148% { transform: scale(2,2) translate(-3.449px,-3.494px); } 70.297% { transform: scale(2,2) translate(-3.449px,-3.494px); } 71.2871% { transform: scale(2,0) translate(-3.449px,-3.494px); } 72.2772% { transform: scale(2,2) translate(-3.449px,-3.494px); } 85.1485% { transform: scale(2,2) translate(-3.449px,-3.494px); } 86.1386% { transform: scale(2,0) translate(-3.449px,-3.494px); } 87.1287% { transform: scale(2,2) translate(-3.449px,-3.494px); } 100% { transform: scale(2,2) translate(-3.449px,-3.494px); } }
@keyframes ejj2bz3t8aan46nd897bkpz2_t { 0% { transform: translate(25.379px,6.988px); } 4.9504% { transform: translate(25.379px,6.988px); animation-timing-function: cubic-bezier(0,0.97,1,1); } 9.9009% { transform: translate(8.271px,0.828445px); animation-timing-function: cubic-bezier(0,0.97,1,1); } 19.8019% { transform: translate(8.271px,0.828445px); animation-timing-function: cubic-bezier(0,0.97,1,1); } 22.4356% { transform: translate(42.4572px,-4.99277px); animation-timing-function: cubic-bezier(0,0.97,1,1); } 32.6732% { transform: translate(42.4572px,-4.99277px); animation-timing-function: cubic-bezier(0,0.97,1,1); } 36.6336% { transform: translate(20.4031px,13.6548px); animation-timing-function: cubic-bezier(0,0.97,1,1); } 44.5544% { transform: translate(20.4031px,13.6548px); animation-timing-function: cubic-bezier(0,0.97,1,1); } 48.5148% { transform: translate(8.271px,4.80163px); animation-timing-function: cubic-bezier(0,0.97,1,1); } 59.4059% { transform: translate(8.271px,4.80163px); animation-timing-function: cubic-bezier(0,0.97,1,1); } 61.3861% { transform: translate(24.6943px,-11.0371px); animation-timing-function: cubic-bezier(0,0.97,1,1); } 70.297% { transform: translate(24.694px,-11.037px); animation-timing-function: cubic-bezier(0,0.97,1,1); } 72.2772% { transform: translate(11.8513px,0.877496px); animation-timing-function: cubic-bezier(0,0.97,1,1); } 78.2178% { transform: translate(11.8513px,0.877496px); animation-timing-function: cubic-bezier(0,0.97,1,1); } 83.1683% { transform: translate(25.379px,4.45695px); } 88.1188% { transform: translate(25.379px,4.456951px); animation-timing-function: cubic-bezier(0.5,0.285,0.6,0.83); } 90.099% { transform: translate(25.379px,-1.804807px); animation-timing-function: cubic-bezier(0.5,0.285,0.6,0.83); } 92.0792% { transform: translate(25.379px,4.389743px); animation-timing-function: cubic-bezier(0.5,0.285,0.6,0.83); } 94.0594% { transform: translate(25.379px,-2.055884px); animation-timing-function: cubic-bezier(0.5,0.285,0.6,0.83); } 96.0396% { transform: translate(25.379px,6.988px); } 100% { transform: translate(25.379px,6.988px); } }
@keyframes rypj5rmz8ryx3plasbxq92fq_t { 0% { transform: scale(2,2) translate(-3.449px,-3.494px); } 4.9504% { transform: scale(2,2) translate(-3.449px,-3.494px); animation-timing-function: cubic-bezier(0,0.97,1,1); } 5.9405% { transform: scale(2,0) translate(-3.449px,-3.494px); animation-timing-function: cubic-bezier(0,0.97,1,1); } 6.9306% { transform: scale(2,2) translate(-3.449px,-3.494px); animation-timing-function: cubic-bezier(0,0.97,1,1); } 22.4356% { transform: scale(2,2) translate(-3.449px,-3.494px); animation-timing-function: cubic-bezier(0,0.97,1,1); } 23.0891% { transform: scale(2,0) translate(-3.449px,-3.494px); animation-timing-function: cubic-bezier(0,0.97,1,1); } 23.7623% { transform: scale(2,2) translate(-3.449px,-3.494px); animation-timing-function: cubic-bezier(0,0.97,1,1); } 47.1881% { transform: scale(2,2) translate(-3.449px,-3.494px); animation-timing-function: cubic-bezier(0,0.97,1,1); } 47.8415% { transform: scale(2,0) translate(-3.449px,-3.494px); animation-timing-function: cubic-bezier(0,0.97,1,1); } 48.5148% { transform: scale(2,2) translate(-3.449px,-3.494px); } 70.297% { transform: scale(2,2) translate(-3.449px,-3.494px); } 71.2871% { transform: scale(2,0) translate(-3.449px,-3.494px); } 72.2772% { transform: scale(2,2) translate(-3.449px,-3.494px); } 100% { transform: scale(2,2) translate(-3.449px,-3.494px); } }
@keyframes wia374oimw190bl0fwxzptqr_t { 0% { transform: translate(75px,75px) rotate(0deg) scale(0.635,0.635) translate(-106.303116px,-106.419px); animation-timing-function: cubic-bezier(0.5,0.285,0.6,0.83); } 100% { transform: translate(75px,75px) rotate(-360deg) scale(0.635,0.635) translate(-106.303116px,-106.419px); } }
    </style>
    <g transform="translate(75,78.9903) scale(0.8,0.8) translate(-35.589,-26.1005)">
        <g id="kifonz7icp9amdl5epqn4jnm" style="animation: 10.1s linear infinite both qfcitd0y90auhdnniyywy8kt_t;">
            <path class="b" d="M17.795,12.939C9.049,12.939,1.935,7.134,1.935,0L0,0C0,8.201,7.983,14.873,17.795,14.873C27.607,14.873,35.589,8.201,35.589,0L33.654,0C33.654,7.134,26.539,12.939,17.794,12.939Z" stroke-width="0px" fill="#dddcd7" transform="translate(35.589,37.328) scale(2,2) translate(-17.7945,-7.4365)" style="animation: 10.1s linear infinite both kifonz7icp9amdl5epqn4jnm_t;"/>
        </g>
        <g id="nn2wdrlc76280m3xydpkzsjy" style="animation: 10.1s linear infinite both z7ym8kxyiakpot59gyftoenc_t;">
            <path class="b" d="M3.449,6.987C5.354,6.987,6.898,5.423,6.898,3.493C6.898,1.563,5.355,0,3.449,0C1.543,0,0,1.564,0,3.494C0,5.424,1.544,6.988,3.449,6.988Z" stroke-width="0px" fill="#dddcd7" transform="translate(45.799,6.988) scale(2,2) translate(-3.449,-3.494)" style="animation: 10.1s linear infinite both nn2wdrlc76280m3xydpkzsjy_t;"/>
        </g>
        <g id="rypj5rmz8ryx3plasbxq92fq" style="animation: 10.1s linear infinite both ejj2bz3t8aan46nd897bkpz2_t;">
            <path class="b" d="M3.449,6.987C5.354,6.987,6.898,5.423,6.898,3.493C6.898,1.563,5.355,0,3.449,0C1.543,0,0,1.564,0,3.494C0,5.424,1.544,6.988,3.449,6.988Z" stroke-width="0px" fill="#dddcd7" transform="translate(25.379,6.988) scale(2,2) translate(-3.449,-3.494)" style="animation: 10.1s linear infinite both rypj5rmz8ryx3plasbxq92fq_t;"/>
        </g>
    </g>
    <g transform="translate(75,75) scale(0.635,0.635) translate(-106.303,-106.419)" style="animation: 10.1s linear infinite both wia374oimw190bl0fwxzptqr_t;">
        <path class="b" d="M177.8,182.332C181.165,179.212,179.871,174.999,177.227,172.148C174.566,169.278,170.461,167.671,167.096,170.793C164.127,173.547,164.853,176.631,166.386,178.522L164.604,180.173C162.02,176.752,162.145,172.44,165.627,169.209C169.507,165.61,175.043,166.219,179.009,170.494C182.956,174.751,183.148,180.316,179.269,183.915C175.805,187.128,171.496,186.928,168.663,184.548L170.444,182.896C171.949,184.002,174.851,185.067,177.8,182.332Z" stroke-width="0px" fill="#dddcd7" transform="translate(172.449,176.594) translate(-172.448,-176.594)"/>
        <path class="b" d="M169.293,192.056L162.712,196.297C159.512,198.359,156.244,198.025,154.387,195.143C152.88,192.806,153.158,190.795,154.658,189.186L154.629,189.141C150.567,190.763,147.773,183.538,146.758,183.808L146.67,183.671L148.871,182.252C150.014,182.479,152.259,189.351,156.366,186.703L161.018,183.705L156.79,177.146L158.832,175.829L169.292,192.056ZM162.188,185.52L158.126,188.139C156.446,189.221,154.469,190.786,156.282,193.6C158.095,196.414,160.338,195.257,162.016,194.174L166.078,191.556L162.186,185.52Z" stroke-width="0px" fill="#dddcd7" transform="translate(157.982,186.723) translate(-157.981,-186.723)"/>
        <path class="b" d="M138.418,199.079L137.591,197.083L146.745,193.289L144.16,187.053L133.509,191.468L132.683,189.473L145.579,184.127L152.972,201.961L140.376,207.183L139.548,205.188L149.9,200.897L147.574,195.285L138.42,199.08Z" stroke-width="0px" fill="#dddcd7" transform="translate(142.828,195.655) translate(-142.827,-195.655)"/>
        <path class="b" d="M129.499,195.204L130.157,190.123L132.613,189.602L129.655,209.965L127.014,210.527L116.055,193.122L118.511,192.6L121.179,196.974L129.498,195.205ZM122.395,198.922L127.843,208.06L127.896,208.048L129.156,197.486L122.395,198.923Z" stroke-width="0px" fill="#dddcd7" transform="translate(124.335,200.065) translate(-124.334,-200.065)"/>
        <path class="b" d="M113.443,210.17L119.86,209.8L119.984,211.956L104.725,212.838L104.6,210.681L111.017,210.31L110.029,193.191L112.456,193.051L113.443,210.17Z" stroke-width="0px" fill="#dddcd7" transform="translate(112.293,202.945) translate(-112.292,-202.945)"/>
        <path class="b" d="M89.099,203.011L89.349,200.865L99.191,202.011L99.972,195.308L88.521,193.974L88.772,191.828L102.635,193.443L100.402,212.618L86.859,211.039L87.109,208.893L98.238,210.191L98.941,204.157L89.099,203.01Z" stroke-width="0px" fill="#dddcd7" transform="translate(94.748,202.223) translate(-94.747,-202.223)"/>
        <path class="b" d="M81.681,209.979L75.005,207.903C69.927,206.324,67.834,202.055,69.678,196.128C71.521,190.199,75.657,187.897,80.735,189.476L87.411,191.551L81.682,209.98ZM84.449,192.891L80.093,191.537C75.403,190.078,73.118,193.24,71.997,196.849C70.876,200.459,70.955,204.383,75.646,205.842L80.001,207.196L84.448,192.89Z" stroke-width="0px" fill="#dddcd7" transform="translate(78.2152,199.486) translate(-78.2142,-199.486)"/>
        <path class="b" d="M51.173,197.717L57.549,182.783L57.506,182.752L44.681,192.969L42.502,191.375L48.356,176.058L48.312,176.027L36.01,186.627L33.94,185.112L49.192,172.356L51.371,173.95L45.196,189.934L45.239,189.966L58.603,179.24L60.782,180.834L53.244,199.231L51.174,197.716Z" stroke-width="0px" fill="#dddcd7" transform="translate(47.362,185.793) translate(-47.361,-185.793)"/>
        <path class="b" d="M29.833,180.189L43.547,166.605L45.257,168.332L31.543,181.916L29.833,180.189Z" stroke-width="0px" fill="#dddcd7" transform="translate(37.546,174.26) translate(-37.545,-174.26)"/>
        <path class="b" d="M25.373,171.908L29.365,176.944L27.673,178.287L18.177,166.308L19.87,164.966L23.863,170.002L37.301,159.35L38.811,161.254L25.373,171.907Z" stroke-width="0px" fill="#dddcd7" transform="translate(28.495,168.818) translate(-28.494,-168.818)"/>
        <path class="b" d="M14.583,160.383L21.849,156.561L17.045,147.43L9.78,151.252L8.648,149.101L25.737,140.111L26.868,142.262L18.957,146.423L23.761,155.554L31.672,151.393L32.804,153.542L15.715,162.533L14.583,160.383Z" stroke-width="0px" fill="#dddcd7" transform="translate(20.727,151.322) translate(-20.726,-151.322)"/>
        <path class="b" d="M2.782,131.102L10.848,129.589L8.948,119.452L0.881,120.965L0.434,118.576L19.407,115.019L19.854,117.407L11.071,119.054L12.972,129.191L21.754,127.543L22.202,129.932L3.228,133.49L2.782,131.102Z" stroke-width="0px" fill="#dddcd7" transform="translate(11.319,124.255) translate(-11.318,-124.255)"/>
        <path class="b" d="M8.26,100.488L10.42,100.492L10.4,110.402L17.151,110.415L17.172,98.885L19.332,98.891L19.305,112.849L-0.001,112.811L0.026,99.176L2.186,99.181L2.164,110.385L8.239,110.397L8.259,100.489Z" stroke-width="0px" fill="#dddcd7" transform="translate(9.6665,105.867) translate(-9.6655,-105.867)"/>
        <path class="b" d="M15.259,93.746L19.698,96.301L19.24,98.77L1.565,88.236L2.058,85.582L22.331,82.129L21.873,84.598L16.811,85.387L15.257,93.746ZM14.546,85.761L4.02,87.292L4.01,87.345L13.283,92.555L14.546,85.761Z" stroke-width="0px" fill="#dddcd7" transform="translate(11.949,90.4495) translate(-11.948,-90.4495)"/>
        <path class="b" d="M4.633,74.652L7.433,67.341C8.793,63.785,11.625,62.124,14.828,63.35C17.425,64.345,18.389,66.13,18.131,68.315L18.181,68.335C20.498,64.626,27.023,68.801,27.682,67.983L27.833,68.041L26.897,70.487C25.84,70.978,19.967,66.763,18.221,71.327L16.242,76.496L23.528,79.285L22.659,81.554L4.634,74.653ZM14.225,75.724L15.953,71.21C16.667,69.345,17.338,66.913,14.212,65.717C11.086,64.52,9.961,66.778,9.247,68.643L7.519,73.156L14.225,75.724Z" stroke-width="0px" fill="#dddcd7" transform="translate(16.234,72.2517) translate(-16.233,-72.2517)"/>
        <path class="b" d="M16.24,54.117L12.943,59.632L11.09,58.524L18.929,45.411L20.783,46.519L17.486,52.033L32.199,60.829L30.953,62.914L16.24,54.118Z" stroke-width="0px" fill="#dddcd7" transform="translate(21.6455,54.1625) translate(-21.6445,-54.1625)"/>
        <path class="b" d="M50.261,39.812L47.847,39.472C47.853,41.344,47.232,43.135,45.629,44.622C42.917,47.138,39.906,46.948,37.904,44.791C35.995,42.731,36.3,40.203,36.9,37.952C34.81,37.644,33.201,37.26,32.007,35.973C30.521,34.37,30.045,31.753,32.304,29.623C34.422,27.62,37.171,28.2,38.658,29.805C40.144,31.408,40.012,33.409,39.2,36.225L45.394,37.106C45,35.888,44.377,34.661,43.598,33.544L45.181,32.075C46.251,33.585,47.213,35.455,47.636,37.42L52.139,38.067L50.259,39.811ZM33.702,34.624C34.491,35.476,35.856,35.756,37.472,35.988C38.062,34.004,38.306,32.599,37.186,31.392C36.287,30.422,34.881,30.177,33.773,31.206C32.666,32.234,32.803,33.653,33.703,34.623ZM45.737,39.183L38.61,38.209C38.132,40.234,38.24,41.978,39.488,43.323C40.534,44.451,42.417,44.655,44.159,43.039C45.327,41.957,45.779,40.617,45.737,39.183Z" stroke-width="0px" fill="#dddcd7" transform="translate(41.4457,37.4025) translate(-41.4447,-37.4025)"/>
        <path class="b" d="M69.399,21.813C70.725,24.288,70.129,27.578,65.822,29.885C61.801,32.04,57.537,31.569,55.208,27.793L57.35,26.646C58.837,28.851,61.234,29.894,64.804,27.982C67.754,26.401,68.075,24.484,67.258,22.961C66.009,20.63,64.518,20.877,60.239,22.036C57.374,22.806,53.856,23.557,52.085,20.249C50.644,17.561,51.758,14.666,55.518,12.651C59.135,10.713,62.652,11.218,64.825,14.588L62.682,15.735C61.15,13.616,59.227,13.115,56.537,14.554C54.134,15.842,53.347,17.459,54.099,18.864C55.31,21.124,57.308,20.452,60.138,19.731C64.48,18.631,67.322,17.934,69.4,21.813Z" stroke-width="0px" fill="#dddcd7" transform="translate(60.7523,21.3454) translate(-60.7513,-21.3454)"/>
        <path class="b" d="M69.438,16.617C67.779,11.055,70.197,5.938,75.629,4.317C81.061,2.696,85.888,5.652,87.547,11.213C89.207,16.775,86.796,21.916,81.364,23.538C75.931,25.159,71.097,22.178,69.437,16.616ZM85.22,11.909C84.032,7.924,80.904,4.998,76.247,6.387C71.591,7.777,70.578,11.939,71.768,15.923C72.956,19.906,76.091,22.86,80.748,21.47C85.404,20.08,86.408,15.893,85.22,11.909Z" stroke-width="0px" fill="#dddcd7" transform="translate(78.4941,13.9264) translate(-78.4931,-13.9264)"/>
        <path class="b" d="M98.742,20.239C93.604,20.679,91.128,18.018,90.792,14.092L89.694,1.26L92.115,1.054L93.213,13.885C93.48,17.005,95.223,18.373,98.559,18.087C101.895,17.803,103.379,16.157,103.113,13.038L102.015,0.207L104.436,0L105.534,12.831C105.87,16.757,103.881,19.8,98.743,20.239Z" stroke-width="0px" fill="#dddcd7" transform="translate(97.6331,10.1433) translate(-97.6321,-10.1433)"/>
        <path class="b" d="M112.031,0.352L110.566,17.434L120.653,18.298L120.468,20.449L107.96,19.377L109.61,0.146L112.031,0.352Z" stroke-width="0px" fill="#dddcd7" transform="translate(114.308,10.2975) translate(-114.306,-10.2975)"/>
        <path class="b" d="M138.132,5.13L132.548,23.615L130.22,22.911L135.805,4.427L138.132,5.13Z" stroke-width="0px" fill="#dddcd7" transform="translate(134.177,14.021) translate(-134.176,-14.021)"/>
        <path class="b" d="M142.941,6.496L145.649,7.717L147.908,26.175L147.958,26.197L154.488,11.696L156.703,12.694L148.776,30.297L146.068,29.078L143.787,10.668L143.737,10.646L137.23,25.098L135.014,24.1L142.941,6.496Z" stroke-width="0px" fill="#dddcd7" transform="translate(145.859,18.3965) translate(-145.858,-18.3965)"/>
        <path class="b" d="M175.576,28.427C172.138,25.387,168.074,27.092,165.5,30.004C162.907,32.937,161.715,37.179,165.153,40.217C168.186,42.899,171.183,41.874,172.913,40.16L174.734,41.769C171.585,44.679,167.282,44.981,163.722,41.834C159.759,38.331,159.818,32.762,163.679,28.394C167.524,24.045,173.042,23.304,177.006,26.809C180.546,29.938,180.773,34.246,178.684,37.3L176.865,35.691C177.818,34.084,178.59,31.091,175.576,28.426Z" stroke-width="0px" fill="#dddcd7" transform="translate(170.393,34.3334) translate(-170.392,-34.3334)"/>
        <path class="b" d="M178.254,41.504C182.921,38.053,188.555,38.588,191.926,43.147C195.297,47.706,194.158,53.25,189.49,56.701C184.823,60.151,179.168,59.633,175.797,55.074C172.426,50.515,173.587,44.956,178.254,41.505ZM188.046,54.746C191.389,52.273,193.078,48.338,190.19,44.431C187.3,40.523,183.043,40.986,179.699,43.458C176.356,45.93,174.645,49.882,177.535,53.79C180.424,57.696,184.704,57.218,188.047,54.746Z" stroke-width="0px" fill="#dddcd7" transform="translate(183.866,49.1055) translate(-183.865,-49.1055)"/>
        <path class="b" d="M200.596,57.687L185.122,65.083L189.49,74.222L187.54,75.153L182.125,63.823L199.547,55.495L200.596,57.688Z" stroke-width="0px" fill="#dddcd7" transform="translate(191.362,65.324) translate(-191.361,-65.324)"/>
        <path class="b" d="M196.737,71.61C202.334,70.072,207.395,72.6,208.899,78.067C210.401,83.532,207.341,88.294,201.745,89.832C196.149,91.371,191.06,88.85,189.558,83.383C188.055,77.916,191.14,73.149,196.737,71.611ZM201.102,87.489C205.111,86.386,208.105,83.325,206.817,78.639C205.529,73.953,201.391,72.851,197.382,73.952C193.372,75.054,190.353,78.124,191.641,82.809C192.928,87.495,197.093,88.589,201.102,87.488Z" stroke-width="0px" fill="#dddcd7" transform="translate(199.23,80.7216) translate(-199.229,-80.7216)"/>
        <path class="b" d="M210.43,101.018C210.194,96.433,205.859,94.711,202.246,94.898C198.605,95.086,194.444,96.708,194.694,101.56C194.873,105.013,197.5,107.715,201.113,107.529L200.789,101.246L202.946,101.135L203.396,109.846L193.364,110.363L193.281,108.746L195.963,107.796L195.961,107.742C193.862,106.391,192.69,104.64,192.538,101.675C192.248,96.066,196.296,92.774,202.12,92.473C207.918,92.173,212.311,95.569,212.587,100.909C212.84,105.79,210.437,108.482,206.805,109.346L206.679,106.919C209.401,106.211,210.58,103.933,210.43,101.021Z" stroke-width="0px" fill="#dddcd7" transform="translate(202.565,101.409) translate(-202.564,-101.409)"/>
        <path class="b" d="M212.264,115.049L211.816,117.984L194.643,125.114L194.634,125.167L210.354,127.565L209.988,129.967L190.905,127.055L191.353,124.119L208.473,116.981L208.482,116.928L192.815,114.537L193.182,112.135L212.264,115.048Z" stroke-width="0px" fill="#dddcd7" transform="translate(201.585,121.051) translate(-201.584,-121.051)"/>
        <path class="b" d="M196.638,144.422L194.601,143.704L197.892,134.36L191.526,132.118L187.698,142.991L185.661,142.273L190.297,129.109L208.503,135.52L203.975,148.379L201.938,147.661L205.66,137.094L199.931,135.077L196.64,144.421Z" stroke-width="0px" fill="#dddcd7" transform="translate(197.083,138.744) translate(-197.082,-138.744)"/>
    </g>
</svg>
