<?xml version="1.0" encoding="UTF-8" standalone="no"?>
<!-- Created with Keyshape -->
<svg xmlns="http://www.w3.org/2000/svg" shape-rendering="geometricPrecision" text-rendering="geometricPrecision" viewBox="0 0 150 150" style="white-space: pre;">
    <style>
@keyframes ebjxot40wyz6gtnrdmdxiqkl_t { 0% { transform: translate(75.019px,75.0228px) rotate(0deg) translate(-66.194px,-66.2527px); animation-timing-function: cubic-bezier(0.5,0.285,0.6,0.83); } 100% { transform: translate(75.019px,75.0228px) rotate(-360deg) translate(-66.194px,-66.2527px); } }
@keyframes si59lucw7dnsj0e0mns7z0ht_t { 0% { transform: translate(35.589px,37.328px); } 88.1188% { transform: translate(35.589px,37.328px); animation-timing-function: cubic-bezier(0.5,0.285,0.6,0.83); } 89.7623% { transform: translate(35.589px,33.054376px); animation-timing-function: cubic-bezier(0.5,0.285,0.6,0.83); } 91.4158% { transform: translate(35.589px,37.328px); animation-timing-function: cubic-bezier(0.5,0.285,0.6,0.83); } 93.0693% { transform: translate(35.589px,33.0544px); animation-timing-function: cubic-bezier(0.5,0.285,0.6,0.83); } 95.0495% { transform: translate(35.589px,37.328px); } 100% { transform: translate(35.589px,37.328px); } }
@keyframes r7yx9ma62aw3rpnkup2wy92q_t { 0% { transform: rotate(0deg) scale(2,2) translate(-17.7945px,-7.4365px); } 4.9504% { transform: rotate(0deg) scale(2,2) translate(-17.7945px,-7.4365px); animation-timing-function: cubic-bezier(0,0.97,1,1); } 9.9009% { transform: rotate(-5deg) scale(2,2) translate(-17.7945px,-7.4365px); animation-timing-function: cubic-bezier(0,0.97,1,1); } 19.8019% { transform: rotate(-5deg) scale(2,2) translate(-17.7945px,-7.4365px); animation-timing-function: cubic-bezier(0,0.97,1,1); } 23.7623% { transform: rotate(5deg) scale(2,2) translate(-17.7945px,-7.4365px); animation-timing-function: cubic-bezier(0,0.97,1,1); } 32.6732% { transform: rotate(5deg) scale(2,2) translate(-17.7945px,-7.4365px); animation-timing-function: cubic-bezier(0,0.97,1,1); } 36.6336% { transform: rotate(0deg) scale(2,2) translate(-17.7945px,-7.4365px); animation-timing-function: cubic-bezier(0,0.97,1,1); } 44.5544% { transform: rotate(0deg) scale(2,2) translate(-17.7945px,-7.4365px); animation-timing-function: cubic-bezier(0,0.97,1,1); } 48.5148% { transform: rotate(-5deg) scale(2,2) translate(-17.7945px,-7.4365px); animation-timing-function: cubic-bezier(0,0.97,1,1); } 59.4059% { transform: rotate(-5deg) scale(2,2) translate(-17.7945px,-7.4365px); animation-timing-function: cubic-bezier(0,0.97,1,1); } 61.3861% { transform: rotate(0deg) scale(2,2) translate(-17.7945px,-7.4365px); animation-timing-function: cubic-bezier(0,0.97,1,1); } 76.2376% { transform: rotate(0deg) scale(2,2) translate(-17.7945px,-7.4365px); } 100% { transform: rotate(0deg) scale(2,2) translate(-17.7945px,-7.4365px); } }
@keyframes i102o76zmm6l1bo0qps2dv44_t { 0% { transform: translate(45.799px,6.988px); } 4.9504% { transform: translate(45.799px,6.988px); animation-timing-function: cubic-bezier(0,0.97,1,1); } 9.9009% { transform: translate(28.691px,0.828445px); animation-timing-function: cubic-bezier(0,0.97,1,1); } 19.8019% { transform: translate(28.691px,0.828445px); animation-timing-function: cubic-bezier(0,0.97,1,1); } 22.4356% { transform: translate(62.8772px,-4.99277px); animation-timing-function: cubic-bezier(0,0.97,1,1); } 32.6732% { transform: translate(62.8772px,-4.99277px); animation-timing-function: cubic-bezier(0,0.97,1,1); } 36.6336% { transform: translate(40.8231px,13.6548px); animation-timing-function: cubic-bezier(0,0.97,1,1); } 44.5544% { transform: translate(40.8231px,13.6548px); animation-timing-function: cubic-bezier(0,0.97,1,1); } 48.5148% { transform: translate(28.691px,4.80163px); animation-timing-function: cubic-bezier(0,0.97,1,1); } 59.4059% { transform: translate(28.691px,4.80163px); animation-timing-function: cubic-bezier(0,0.97,1,1); } 61.3861% { transform: translate(45.1143px,-11.0371px); animation-timing-function: cubic-bezier(0,0.97,1,1); } 70.297% { transform: translate(45.114px,-11.037px); animation-timing-function: cubic-bezier(0,0.97,1,1); } 72.2772% { transform: translate(32.2713px,0.877496px); animation-timing-function: cubic-bezier(0,0.97,1,1); } 78.2178% { transform: translate(32.2713px,0.877496px); animation-timing-function: cubic-bezier(0,0.97,1,1); } 83.1683% { transform: translate(45.799px,4.45695px); } 88.1188% { transform: translate(45.799px,4.456951px); animation-timing-function: cubic-bezier(0.5,0.285,0.6,0.83); } 90.099% { transform: translate(45.799px,-1.804807px); animation-timing-function: cubic-bezier(0.5,0.285,0.6,0.83); } 92.0792% { transform: translate(45.799px,4.389743px); animation-timing-function: cubic-bezier(0.5,0.285,0.6,0.83); } 94.0594% { transform: translate(45.799px,-2.055884px); animation-timing-function: cubic-bezier(0.5,0.285,0.6,0.83); } 96.0396% { transform: translate(45.799px,6.988px); } 100% { transform: translate(45.799px,6.988px); } }
@keyframes v0x06wq0akj0mkblcwtxt31j_t { 0% { transform: scale(2,2) translate(-3.449px,-3.494px); } 4.9504% { transform: scale(2,2) translate(-3.449px,-3.494px); animation-timing-function: cubic-bezier(0,0.97,1,1); } 5.9405% { transform: scale(2,0) translate(-3.449px,-3.494px); animation-timing-function: cubic-bezier(0,0.97,1,1); } 6.9306% { transform: scale(2,2) translate(-3.449px,-3.494px); animation-timing-function: cubic-bezier(0,0.97,1,1); } 22.4356% { transform: scale(2,2) translate(-3.449px,-3.494px); animation-timing-function: cubic-bezier(0,0.97,1,1); } 23.0891% { transform: scale(2,0) translate(-3.449px,-3.494px); animation-timing-function: cubic-bezier(0,0.97,1,1); } 23.7623% { transform: scale(2,2) translate(-3.449px,-3.494px); animation-timing-function: cubic-bezier(0,0.97,1,1); } 47.1881% { transform: scale(2,2) translate(-3.449px,-3.494px); animation-timing-function: cubic-bezier(0,0.97,1,1); } 47.8415% { transform: scale(2,0) translate(-3.449px,-3.494px); animation-timing-function: cubic-bezier(0,0.97,1,1); } 48.5148% { transform: scale(2,2) translate(-3.449px,-3.494px); } 70.297% { transform: scale(2,2) translate(-3.449px,-3.494px); } 71.2871% { transform: scale(2,0) translate(-3.449px,-3.494px); } 72.2772% { transform: scale(2,2) translate(-3.449px,-3.494px); } 85.1485% { transform: scale(2,2) translate(-3.449px,-3.494px); } 86.1386% { transform: scale(2,0) translate(-3.449px,-3.494px); } 87.1287% { transform: scale(2,2) translate(-3.449px,-3.494px); } 100% { transform: scale(2,2) translate(-3.449px,-3.494px); } }
@keyframes dpu0byi364j9ul240yrup4nl_t { 0% { transform: translate(25.379px,6.988px); } 4.9504% { transform: translate(25.379px,6.988px); animation-timing-function: cubic-bezier(0,0.97,1,1); } 9.9009% { transform: translate(8.271px,0.828445px); animation-timing-function: cubic-bezier(0,0.97,1,1); } 19.8019% { transform: translate(8.271px,0.828445px); animation-timing-function: cubic-bezier(0,0.97,1,1); } 22.4356% { transform: translate(42.4572px,-4.99277px); animation-timing-function: cubic-bezier(0,0.97,1,1); } 32.6732% { transform: translate(42.4572px,-4.99277px); animation-timing-function: cubic-bezier(0,0.97,1,1); } 36.6336% { transform: translate(20.4031px,13.6548px); animation-timing-function: cubic-bezier(0,0.97,1,1); } 44.5544% { transform: translate(20.4031px,13.6548px); animation-timing-function: cubic-bezier(0,0.97,1,1); } 48.5148% { transform: translate(8.271px,4.80163px); animation-timing-function: cubic-bezier(0,0.97,1,1); } 59.4059% { transform: translate(8.271px,4.80163px); animation-timing-function: cubic-bezier(0,0.97,1,1); } 61.3861% { transform: translate(24.6943px,-11.0371px); animation-timing-function: cubic-bezier(0,0.97,1,1); } 70.297% { transform: translate(24.694px,-11.037px); animation-timing-function: cubic-bezier(0,0.97,1,1); } 72.2772% { transform: translate(11.8513px,0.877496px); animation-timing-function: cubic-bezier(0,0.97,1,1); } 78.2178% { transform: translate(11.8513px,0.877496px); animation-timing-function: cubic-bezier(0,0.97,1,1); } 83.1683% { transform: translate(25.379px,4.45695px); } 88.1188% { transform: translate(25.379px,4.456951px); animation-timing-function: cubic-bezier(0.5,0.285,0.6,0.83); } 90.099% { transform: translate(25.379px,-1.804807px); animation-timing-function: cubic-bezier(0.5,0.285,0.6,0.83); } 92.0792% { transform: translate(25.379px,4.389743px); animation-timing-function: cubic-bezier(0.5,0.285,0.6,0.83); } 94.0594% { transform: translate(25.379px,-2.055884px); animation-timing-function: cubic-bezier(0.5,0.285,0.6,0.83); } 96.0396% { transform: translate(25.379px,6.988px); } 100% { transform: translate(25.379px,6.988px); } }
@keyframes qt28hwmnv8dk51x1x06fzprd_t { 0% { transform: scale(2,2) translate(-3.449px,-3.494px); } 4.9504% { transform: scale(2,2) translate(-3.449px,-3.494px); animation-timing-function: cubic-bezier(0,0.97,1,1); } 5.9405% { transform: scale(2,0) translate(-3.449px,-3.494px); animation-timing-function: cubic-bezier(0,0.97,1,1); } 6.9306% { transform: scale(2,2) translate(-3.449px,-3.494px); animation-timing-function: cubic-bezier(0,0.97,1,1); } 22.4356% { transform: scale(2,2) translate(-3.449px,-3.494px); animation-timing-function: cubic-bezier(0,0.97,1,1); } 23.0891% { transform: scale(2,0) translate(-3.449px,-3.494px); animation-timing-function: cubic-bezier(0,0.97,1,1); } 23.7623% { transform: scale(2,2) translate(-3.449px,-3.494px); animation-timing-function: cubic-bezier(0,0.97,1,1); } 47.1881% { transform: scale(2,2) translate(-3.449px,-3.494px); animation-timing-function: cubic-bezier(0,0.97,1,1); } 47.8415% { transform: scale(2,0) translate(-3.449px,-3.494px); animation-timing-function: cubic-bezier(0,0.97,1,1); } 48.5148% { transform: scale(2,2) translate(-3.449px,-3.494px); } 70.297% { transform: scale(2,2) translate(-3.449px,-3.494px); } 71.2871% { transform: scale(2,0) translate(-3.449px,-3.494px); } 72.2772% { transform: scale(2,2) translate(-3.449px,-3.494px); } 100% { transform: scale(2,2) translate(-3.449px,-3.494px); } }
    </style>
    <g id="ebjxot40wyz6gtnrdmdxiqkl" transform="translate(75.019,75.0228) translate(-66.194,-66.2527)" style="animation: 10.1s linear infinite both ebjxot40wyz6gtnrdmdxiqkl_t;">
        <path class="b" d="M115.13,111.021L111.603,114.296C108.92,116.787,105.653,116.574,102.745,113.441C99.837,110.308,99.878,107.048,102.562,104.558L106.09,101.283L115.131,111.021ZM105.875,103.511L103.573,105.648C101.094,107.949,102.2,110.397,103.97,112.304C105.74,114.21,108.111,115.508,110.591,113.207L112.893,111.07L105.875,103.511Z" stroke-width="0px" fill="#dddcd7" transform="translate(107.844,108.639) translate(-107.844,-108.64)"/>
        <path class="b" d="M94.056,120.035L93.287,118.762L99.125,115.235L96.722,111.257L89.929,115.362L89.16,114.089L97.385,109.118L104.259,120.494L96.225,125.348L95.456,124.076L102.058,120.085L99.895,116.506L94.057,120.034Z" stroke-width="0px" fill="#dddcd7" transform="translate(96.7095,117.233) translate(-96.7095,-117.233)"/>
        <path class="b" d="M80.435,120.945C79.783,119.126,80.52,116.946,83.686,115.811C86.642,114.75,89.498,115.501,90.702,118.307L89.128,118.872C88.339,117.221,86.812,116.269,84.188,117.21C82.019,117.988,81.607,119.261,82.009,120.381C82.624,122.095,83.664,122.076,86.694,121.72C88.723,121.485,91.194,121.329,92.066,123.76C92.775,125.736,91.724,127.594,88.961,128.586C86.302,129.54,83.959,128.841,82.82,126.327L84.394,125.762C85.224,127.36,86.483,127.895,88.46,127.186C90.226,126.553,90.926,125.531,90.556,124.499C89.96,122.838,88.531,123.093,86.531,123.297C83.464,123.608,81.458,123.796,80.435,120.945Z" stroke-width="0px" fill="#dddcd7" transform="translate(86.249,122.173) translate(-86.249,-122.173)"/>
        <path class="b" d="M79.197,131.054L76.439,118.055L78.076,117.707L80.833,130.707L79.197,131.053Z" stroke-width="0px" fill="#dddcd7" transform="translate(78.636,124.38) translate(-78.636,-124.381)"/>
        <path class="b" d="M69.718,131.007C72.873,130.837,74.053,127.851,73.919,125.365C73.784,122.859,72.663,119.998,69.322,120.177C66.946,120.305,65.09,122.117,65.223,124.604L69.547,124.371L69.626,125.855L63.632,126.178L63.261,119.274L64.375,119.215L65.032,121.06L65.069,121.058C65.997,119.613,67.2,118.803,69.241,118.694C73.101,118.486,75.373,121.267,75.588,125.277C75.803,129.267,73.471,132.295,69.796,132.492C66.437,132.674,64.58,131.023,63.981,128.524L65.651,128.435C66.143,130.307,67.712,131.116,69.717,131.008Z" stroke-width="0px" fill="#dddcd7" transform="translate(69.4314,125.594) translate(-69.4314,-125.594)"/>
        <path class="b" d="M59.683,132.204L57.67,131.845L53.064,119.9L53.028,119.893L51.101,130.671L49.454,130.377L51.793,117.294L53.806,117.653L58.418,129.562L58.454,129.568L60.374,118.827L62.021,119.121L59.682,132.204Z" stroke-width="0px" fill="#dddcd7" transform="translate(55.7375,124.749) translate(-55.7375,-124.749)"/>
        <path class="b" d="M39.621,120.627L40.186,119.252L46.497,121.844L48.263,117.545L40.921,114.529L41.486,113.154L50.375,116.805L45.325,129.099L36.641,125.532L37.206,124.157L44.342,127.088L45.931,123.218L39.62,120.626Z" stroke-width="0px" fill="#dddcd7" transform="translate(43.508,121.126) translate(-43.508,-121.126)"/>
        <path class="b" d="M33.146,123.673L29.176,120.95C26.157,118.879,25.648,115.646,28.066,112.121C30.483,108.595,33.673,107.92,36.692,109.992L40.661,112.715L33.146,123.673ZM38.441,112.995L35.851,111.218C33.062,109.306,30.917,110.921,29.445,113.067C27.973,115.212,27.228,117.811,30.017,119.723L32.607,121.5L38.44,112.994Z" stroke-width="0px" fill="#dddcd7" transform="translate(33.599,116.249) translate(-33.599,-116.249)"/>
        <path class="b" d="M15.902,109.518L23.357,101.182L23.335,101.151L12.713,104.988L11.644,103.467L18.842,94.767L18.821,94.736L8.457,98.937L7.44,97.492L20.205,92.534L21.275,94.055L13.72,103.122L13.742,103.152L24.827,99.104L25.896,100.624L16.918,110.963L15.902,109.519Z" stroke-width="0px" fill="#dddcd7" transform="translate(16.668,101.748) translate(-16.668,-101.748)"/>
        <path class="b" d="M5.814,92.976L17.902,87.449L18.597,88.97L6.51,94.498L5.814,92.976Z" stroke-width="0px" fill="#dddcd7" transform="translate(12.2055,90.9732) translate(-12.2055,-90.9735)"/>
        <path class="b" d="M4.892,86.43L6.216,90.651L4.797,91.096L1.648,81.057L3.067,80.612L4.391,84.833L15.655,81.3L16.156,82.897L4.892,86.43Z" stroke-width="0px" fill="#dddcd7" transform="translate(8.902,85.8537) translate(-8.902,-85.854)"/>
        <path class="b" d="M0.818,75.999L6.444,75.472L5.782,68.402L0.156,68.929L0,67.262L13.234,66.023L13.39,67.69L7.264,68.263L7.925,75.333L14.051,74.759L14.207,76.426L0.973,77.665L0.817,75.999Z" stroke-width="0px" fill="#dddcd7" transform="translate(7.1035,71.8437) translate(-7.1035,-71.844)"/>
        <path class="b" d="M1.146,54.895L12.7,57.313L14.128,50.49L15.584,50.795L13.814,59.255L0.804,56.532L1.147,54.895Z" stroke-width="0px" fill="#dddcd7" transform="translate(8.194,54.8722) translate(-8.194,-54.8725)"/>
        <path class="b" d="M9.101,48.735C5.431,47.155,3.796,43.619,5.34,40.034C6.883,36.45,10.575,35.206,14.245,36.786C17.915,38.366,19.567,41.91,18.024,45.495C16.48,49.079,12.772,50.316,9.101,48.735ZM13.584,38.322C10.955,37.191,8.028,37.549,6.706,40.623C5.383,43.696,7.134,46.068,9.763,47.2C12.392,48.332,15.336,47.981,16.658,44.907C17.981,41.834,16.213,39.454,13.584,38.322Z" stroke-width="0px" fill="#dddcd7" transform="translate(11.6803,42.7612) translate(-11.6803,-42.7615)"/>
        <path class="b" d="M10.314,30.926L21.963,34.613L21.973,34.597L14.742,24.749L15.77,23.314L23.862,34.832L22.79,36.327L9.285,32.361L10.313,30.926Z" stroke-width="0px" fill="#dddcd7" transform="translate(16.5735,29.8202) translate(-16.5735,-29.8205)"/>
        <path class="b" d="M27.998,19.397L29.01,20.486L24.011,25.127L27.172,28.532L32.988,23.132L34,24.222L26.958,30.759L17.917,21.021L24.795,14.635L25.807,15.725L20.154,20.973L22.999,24.038L27.997,19.397Z" stroke-width="0px" fill="#dddcd7" transform="translate(25.9585,22.6967) translate(-25.9585,-22.697)"/>
        <path class="b" d="M42.729,10.68L43.387,12.013L38.07,14.635L40.726,20.019L39.226,20.759L33.348,8.843L41.431,4.855L42.089,6.188L35.506,9.435L37.414,13.302L42.731,10.68Z" stroke-width="0px" fill="#dddcd7" transform="translate(38.3675,12.8067) translate(-38.3675,-12.807)"/>
        <path class="b" d="M44.59,3.692L49.796,2.295C52.327,1.615,54.399,2.523,55.01,4.802C55.506,6.651,54.902,7.911,53.58,8.65L53.589,8.686C56.593,8.476,56.906,13.8,57.627,13.836L57.656,13.945L55.915,14.412C55.214,14.022,55.187,9.046,51.937,9.918L48.257,10.906L49.649,16.094L48.033,16.528L44.588,3.693ZM47.873,9.469L51.086,8.607C52.414,8.251,54.041,7.64,53.443,5.415C52.845,3.189,51.133,3.475,49.804,3.832L46.591,4.694L47.872,9.468Z" stroke-width="0px" fill="#dddcd7" transform="translate(51.122,9.30088) translate(-51.122,-9.30122)"/>
        <path class="b" d="M57.668,7.122C57.53,3.128,60.03,0.139,63.931,0.005C67.832,-0.13,70.533,2.678,70.671,6.673C70.809,10.668,68.309,13.673,64.408,13.809C60.507,13.943,57.805,11.117,57.667,7.123ZM69,6.73C68.902,3.869,67.327,1.376,63.983,1.491C60.639,1.607,59.241,4.204,59.34,7.064C59.439,9.925,61.014,12.437,64.358,12.322C67.701,12.206,69.099,9.592,69,6.73Z" stroke-width="0px" fill="#dddcd7" transform="translate(64.1695,6.90662) translate(-64.1695,-6.90695)"/>
        <path class="b" d="M74.72,0.449L76.949,0.959L78.545,12.653L78.582,12.662L85.104,2.826L87.333,3.336L84.368,16.294L82.737,15.92L85.175,5.264L85.138,5.256L78.786,15.016L77.336,14.684L75.86,3.133L75.824,3.125L73.386,13.781L71.755,13.408L74.72,0.45Z" stroke-width="0px" fill="#dddcd7" transform="translate(79.544,8.37117) translate(-79.544,-8.3715)"/>
        <path class="b" d="M101.751,12.026C99.101,10.306,96.507,11.879,95.049,14.124C93.583,16.385,93.202,19.395,95.853,21.114C98.191,22.632,100.127,21.628,101.132,20.286L102.535,21.197C100.687,23.498,97.787,24.143,95.043,22.363C91.988,20.379,91.462,16.582,93.646,13.214C95.822,9.863,99.504,8.796,102.559,10.779C105.288,12.55,105.88,15.46,104.77,17.752L103.367,16.841C103.853,15.65,104.073,13.533,101.751,12.026Z" stroke-width="0px" fill="#dddcd7" transform="translate(98.8063,16.584) translate(-98.8063,-16.5843)"/>
        <path class="b" d="M105.115,20.813C108.045,18.096,111.939,18.032,114.594,20.893C117.248,23.755,116.891,27.634,113.961,30.351C111.032,33.069,107.123,33.145,104.469,30.283C101.815,27.421,102.185,23.529,105.115,20.813ZM112.825,29.125C114.923,27.178,115.779,24.357,113.504,21.904C111.229,19.451,108.351,20.092,106.253,22.039C104.154,23.986,103.285,26.819,105.56,29.272C107.835,31.725,110.726,31.07,112.826,29.125Z" stroke-width="0px" fill="#dddcd7" transform="translate(109.534,25.585) translate(-109.534,-25.5854)"/>
        <path class="b" d="M121.743,30.365L111.628,36.449L115.221,42.422L113.946,43.188L109.491,35.781L120.88,28.931L121.742,30.364Z" stroke-width="0px" fill="#dddcd7" transform="translate(115.617,36.0592) translate(-115.617,-36.0595)"/>
        <path class="b" d="M120.104,40.315C123.872,38.984,127.472,40.472,128.772,44.151C130.072,47.831,128.206,51.249,124.438,52.58C120.671,53.911,117.053,52.43,115.754,48.751C114.454,45.071,116.338,41.646,120.105,40.314ZM123.881,51.003C126.579,50.05,128.485,47.8,127.37,44.646C126.256,41.492,123.36,40.939,120.662,41.892C117.964,42.845,116.041,45.102,117.155,48.255C118.27,51.409,121.183,51.956,123.881,51.003Z" stroke-width="0px" fill="#dddcd7" transform="translate(122.264,46.4477) translate(-122.264,-46.448)"/>
        <path class="b" d="M130.793,60.22C130.499,57.073,127.468,56.012,124.988,56.244C122.49,56.478,119.674,57.713,119.986,61.044C120.208,63.413,122.092,65.197,124.572,64.965L124.168,60.652L125.649,60.514L126.208,66.492L119.323,67.136L119.219,66.026L121.036,65.296L121.032,65.259C119.55,64.389,118.694,63.219,118.503,61.183C118.143,57.333,120.833,54.954,124.831,54.579C128.81,54.206,131.929,56.417,132.273,60.081C132.587,63.431,131.011,65.352,128.537,66.051L128.381,64.385C130.232,63.819,130.979,62.218,130.792,60.22Z" stroke-width="0px" fill="#dddcd7" transform="translate(125.392,60.8368) translate(-125.392,-60.8371)"/>
        <path class="b" d="M132.387,70.198L132.107,72.223L120.353,77.296L120.348,77.333L131.193,78.834L130.963,80.49L117.799,78.67L118.08,76.645L129.796,71.565L129.801,71.528L118.994,70.034L119.223,68.377L132.388,70.198Z" stroke-width="0px" fill="#dddcd7" transform="translate(125.094,74.4332) translate(-125.094,-74.4335)"/>
        <path class="b" d="M121.638,90.672L120.241,90.163L122.573,83.755L118.206,82.167L115.493,89.624L114.096,89.116L117.382,80.086L129.87,84.63L126.661,93.45L125.264,92.941L127.901,85.693L123.971,84.263L121.639,90.673Z" stroke-width="0px" fill="#dddcd7" transform="translate(121.983,86.7677) translate(-121.983,-86.768)"/>
    </g>
    <g transform="translate(75,78.9903) scale(0.8,0.8) translate(-35.589,-26.1005)">
        <g id="r7yx9ma62aw3rpnkup2wy92q" style="animation: 10.1s linear infinite both si59lucw7dnsj0e0mns7z0ht_t;">
            <path class="b" d="M17.795,12.939C9.049,12.939,1.935,7.134,1.935,0L0,0C0,8.201,7.983,14.873,17.795,14.873C27.607,14.873,35.589,8.201,35.589,0L33.654,0C33.654,7.134,26.539,12.939,17.794,12.939Z" stroke-width="0px" fill="#dddcd7" transform="translate(35.589,37.328) scale(2,2) translate(-17.7945,-7.4365)" style="animation: 10.1s linear infinite both r7yx9ma62aw3rpnkup2wy92q_t;"/>
        </g>
        <g id="v0x06wq0akj0mkblcwtxt31j" style="animation: 10.1s linear infinite both i102o76zmm6l1bo0qps2dv44_t;">
            <path class="b" d="M3.449,6.987C5.354,6.987,6.898,5.423,6.898,3.493C6.898,1.563,5.355,0,3.449,0C1.543,0,0,1.564,0,3.494C0,5.424,1.544,6.988,3.449,6.988Z" stroke-width="0px" fill="#dddcd7" transform="translate(45.799,6.988) scale(2,2) translate(-3.449,-3.494)" style="animation: 10.1s linear infinite both v0x06wq0akj0mkblcwtxt31j_t;"/>
        </g>
        <g id="qt28hwmnv8dk51x1x06fzprd" style="animation: 10.1s linear infinite both dpu0byi364j9ul240yrup4nl_t;">
            <path class="b" d="M3.449,6.987C5.354,6.987,6.898,5.423,6.898,3.493C6.898,1.563,5.355,0,3.449,0C1.543,0,0,1.564,0,3.494C0,5.424,1.544,6.988,3.449,6.988Z" stroke-width="0px" fill="#dddcd7" transform="translate(25.379,6.988) scale(2,2) translate(-3.449,-3.494)" style="animation: 10.1s linear infinite both qt28hwmnv8dk51x1x06fzprd_t;"/>
        </g>
    </g>
</svg>
