<?xml version="1.0" encoding="UTF-8" standalone="no"?>
<!-- Created with Keyshape -->
<svg xmlns="http://www.w3.org/2000/svg" shape-rendering="geometricPrecision" text-rendering="geometricPrecision" viewBox="0 0 150 150" style="white-space: pre;">
    <style>
@keyframes zlxc4ent9n6md4ujuyn3mg02_t { 0% { transform: translate(35.589px,37.328px); } 88.1188% { transform: translate(35.589px,37.328px); animation-timing-function: cubic-bezier(0.5,0.285,0.6,0.83); } 89.7623% { transform: translate(35.589px,33.054376px); animation-timing-function: cubic-bezier(0.5,0.285,0.6,0.83); } 91.4158% { transform: translate(35.589px,37.328px); animation-timing-function: cubic-bezier(0.5,0.285,0.6,0.83); } 93.0693% { transform: translate(35.589px,33.0544px); animation-timing-function: cubic-bezier(0.5,0.285,0.6,0.83); } 95.0495% { transform: translate(35.589px,37.328px); } 100% { transform: translate(35.589px,37.328px); } }
@keyframes w8kdlxsp8k80gar8eb0gwd7d_t { 0% { transform: rotate(0deg) scale(2,2) translate(-17.7945px,-7.4365px); } 4.9504% { transform: rotate(0deg) scale(2,2) translate(-17.7945px,-7.4365px); animation-timing-function: cubic-bezier(0,0.97,1,1); } 9.9009% { transform: rotate(-5deg) scale(2,2) translate(-17.7945px,-7.4365px); animation-timing-function: cubic-bezier(0,0.97,1,1); } 19.8019% { transform: rotate(-5deg) scale(2,2) translate(-17.7945px,-7.4365px); animation-timing-function: cubic-bezier(0,0.97,1,1); } 23.7623% { transform: rotate(5deg) scale(2,2) translate(-17.7945px,-7.4365px); animation-timing-function: cubic-bezier(0,0.97,1,1); } 32.6732% { transform: rotate(5deg) scale(2,2) translate(-17.7945px,-7.4365px); animation-timing-function: cubic-bezier(0,0.97,1,1); } 36.6336% { transform: rotate(0deg) scale(2,2) translate(-17.7945px,-7.4365px); animation-timing-function: cubic-bezier(0,0.97,1,1); } 44.5544% { transform: rotate(0deg) scale(2,2) translate(-17.7945px,-7.4365px); animation-timing-function: cubic-bezier(0,0.97,1,1); } 48.5148% { transform: rotate(-5deg) scale(2,2) translate(-17.7945px,-7.4365px); animation-timing-function: cubic-bezier(0,0.97,1,1); } 59.4059% { transform: rotate(-5deg) scale(2,2) translate(-17.7945px,-7.4365px); animation-timing-function: cubic-bezier(0,0.97,1,1); } 61.3861% { transform: rotate(0deg) scale(2,2) translate(-17.7945px,-7.4365px); animation-timing-function: cubic-bezier(0,0.97,1,1); } 76.2376% { transform: rotate(0deg) scale(2,2) translate(-17.7945px,-7.4365px); } 100% { transform: rotate(0deg) scale(2,2) translate(-17.7945px,-7.4365px); } }
@keyframes xm8jarwf5h52ogiyz0c3gudl_t { 0% { transform: translate(45.799px,6.988px); } 4.9504% { transform: translate(45.799px,6.988px); animation-timing-function: cubic-bezier(0,0.97,1,1); } 9.9009% { transform: translate(28.691px,0.828445px); animation-timing-function: cubic-bezier(0,0.97,1,1); } 19.8019% { transform: translate(28.691px,0.828445px); animation-timing-function: cubic-bezier(0,0.97,1,1); } 22.4356% { transform: translate(62.8772px,-4.99277px); animation-timing-function: cubic-bezier(0,0.97,1,1); } 32.6732% { transform: translate(62.8772px,-4.99277px); animation-timing-function: cubic-bezier(0,0.97,1,1); } 36.6336% { transform: translate(40.8231px,13.6548px); animation-timing-function: cubic-bezier(0,0.97,1,1); } 44.5544% { transform: translate(40.8231px,13.6548px); animation-timing-function: cubic-bezier(0,0.97,1,1); } 48.5148% { transform: translate(28.691px,4.80163px); animation-timing-function: cubic-bezier(0,0.97,1,1); } 59.4059% { transform: translate(28.691px,4.80163px); animation-timing-function: cubic-bezier(0,0.97,1,1); } 61.3861% { transform: translate(45.1143px,-11.0371px); animation-timing-function: cubic-bezier(0,0.97,1,1); } 70.297% { transform: translate(45.114px,-11.037px); animation-timing-function: cubic-bezier(0,0.97,1,1); } 72.2772% { transform: translate(32.2713px,0.877496px); animation-timing-function: cubic-bezier(0,0.97,1,1); } 78.2178% { transform: translate(32.2713px,0.877496px); animation-timing-function: cubic-bezier(0,0.97,1,1); } 83.1683% { transform: translate(45.799px,4.45695px); } 88.1188% { transform: translate(45.799px,4.456951px); animation-timing-function: cubic-bezier(0.5,0.285,0.6,0.83); } 90.099% { transform: translate(45.799px,-1.804807px); animation-timing-function: cubic-bezier(0.5,0.285,0.6,0.83); } 92.0792% { transform: translate(45.799px,4.389743px); animation-timing-function: cubic-bezier(0.5,0.285,0.6,0.83); } 94.0594% { transform: translate(45.799px,-2.055884px); animation-timing-function: cubic-bezier(0.5,0.285,0.6,0.83); } 96.0396% { transform: translate(45.799px,6.988px); } 100% { transform: translate(45.799px,6.988px); } }
@keyframes y2oa4i2qcvwumc3rnabakkco_t { 0% { transform: scale(2,2) translate(-3.449px,-3.494px); } 4.9504% { transform: scale(2,2) translate(-3.449px,-3.494px); animation-timing-function: cubic-bezier(0,0.97,1,1); } 5.9405% { transform: scale(2,0) translate(-3.449px,-3.494px); animation-timing-function: cubic-bezier(0,0.97,1,1); } 6.9306% { transform: scale(2,2) translate(-3.449px,-3.494px); animation-timing-function: cubic-bezier(0,0.97,1,1); } 22.4356% { transform: scale(2,2) translate(-3.449px,-3.494px); animation-timing-function: cubic-bezier(0,0.97,1,1); } 23.0891% { transform: scale(2,0) translate(-3.449px,-3.494px); animation-timing-function: cubic-bezier(0,0.97,1,1); } 23.7623% { transform: scale(2,2) translate(-3.449px,-3.494px); animation-timing-function: cubic-bezier(0,0.97,1,1); } 47.1881% { transform: scale(2,2) translate(-3.449px,-3.494px); animation-timing-function: cubic-bezier(0,0.97,1,1); } 47.8415% { transform: scale(2,0) translate(-3.449px,-3.494px); animation-timing-function: cubic-bezier(0,0.97,1,1); } 48.5148% { transform: scale(2,2) translate(-3.449px,-3.494px); } 70.297% { transform: scale(2,2) translate(-3.449px,-3.494px); } 71.2871% { transform: scale(2,0) translate(-3.449px,-3.494px); } 72.2772% { transform: scale(2,2) translate(-3.449px,-3.494px); } 85.1485% { transform: scale(2,2) translate(-3.449px,-3.494px); } 86.1386% { transform: scale(2,0) translate(-3.449px,-3.494px); } 87.1287% { transform: scale(2,2) translate(-3.449px,-3.494px); } 100% { transform: scale(2,2) translate(-3.449px,-3.494px); } }
@keyframes sbvoetw3v6vjesmz0drx3vyu_t { 0% { transform: translate(25.379px,6.988px); } 4.9504% { transform: translate(25.379px,6.988px); animation-timing-function: cubic-bezier(0,0.97,1,1); } 9.9009% { transform: translate(8.271px,0.828445px); animation-timing-function: cubic-bezier(0,0.97,1,1); } 19.8019% { transform: translate(8.271px,0.828445px); animation-timing-function: cubic-bezier(0,0.97,1,1); } 22.4356% { transform: translate(42.4572px,-4.99277px); animation-timing-function: cubic-bezier(0,0.97,1,1); } 32.6732% { transform: translate(42.4572px,-4.99277px); animation-timing-function: cubic-bezier(0,0.97,1,1); } 36.6336% { transform: translate(20.4031px,13.6548px); animation-timing-function: cubic-bezier(0,0.97,1,1); } 44.5544% { transform: translate(20.4031px,13.6548px); animation-timing-function: cubic-bezier(0,0.97,1,1); } 48.5148% { transform: translate(8.271px,4.80163px); animation-timing-function: cubic-bezier(0,0.97,1,1); } 59.4059% { transform: translate(8.271px,4.80163px); animation-timing-function: cubic-bezier(0,0.97,1,1); } 61.3861% { transform: translate(24.6943px,-11.0371px); animation-timing-function: cubic-bezier(0,0.97,1,1); } 70.297% { transform: translate(24.694px,-11.037px); animation-timing-function: cubic-bezier(0,0.97,1,1); } 72.2772% { transform: translate(11.8513px,0.877496px); animation-timing-function: cubic-bezier(0,0.97,1,1); } 78.2178% { transform: translate(11.8513px,0.877496px); animation-timing-function: cubic-bezier(0,0.97,1,1); } 83.1683% { transform: translate(25.379px,4.45695px); } 88.1188% { transform: translate(25.379px,4.456951px); animation-timing-function: cubic-bezier(0.5,0.285,0.6,0.83); } 90.099% { transform: translate(25.379px,-1.804807px); animation-timing-function: cubic-bezier(0.5,0.285,0.6,0.83); } 92.0792% { transform: translate(25.379px,4.389743px); animation-timing-function: cubic-bezier(0.5,0.285,0.6,0.83); } 94.0594% { transform: translate(25.379px,-2.055884px); animation-timing-function: cubic-bezier(0.5,0.285,0.6,0.83); } 96.0396% { transform: translate(25.379px,6.988px); } 100% { transform: translate(25.379px,6.988px); } }
@keyframes tw0luy7uq75yzajuhzr3n9ar_t { 0% { transform: scale(2,2) translate(-3.449px,-3.494px); } 4.9504% { transform: scale(2,2) translate(-3.449px,-3.494px); animation-timing-function: cubic-bezier(0,0.97,1,1); } 5.9405% { transform: scale(2,0) translate(-3.449px,-3.494px); animation-timing-function: cubic-bezier(0,0.97,1,1); } 6.9306% { transform: scale(2,2) translate(-3.449px,-3.494px); animation-timing-function: cubic-bezier(0,0.97,1,1); } 22.4356% { transform: scale(2,2) translate(-3.449px,-3.494px); animation-timing-function: cubic-bezier(0,0.97,1,1); } 23.0891% { transform: scale(2,0) translate(-3.449px,-3.494px); animation-timing-function: cubic-bezier(0,0.97,1,1); } 23.7623% { transform: scale(2,2) translate(-3.449px,-3.494px); animation-timing-function: cubic-bezier(0,0.97,1,1); } 47.1881% { transform: scale(2,2) translate(-3.449px,-3.494px); animation-timing-function: cubic-bezier(0,0.97,1,1); } 47.8415% { transform: scale(2,0) translate(-3.449px,-3.494px); animation-timing-function: cubic-bezier(0,0.97,1,1); } 48.5148% { transform: scale(2,2) translate(-3.449px,-3.494px); } 70.297% { transform: scale(2,2) translate(-3.449px,-3.494px); } 71.2871% { transform: scale(2,0) translate(-3.449px,-3.494px); } 72.2772% { transform: scale(2,2) translate(-3.449px,-3.494px); } 100% { transform: scale(2,2) translate(-3.449px,-3.494px); } }
@keyframes spkbt8owweubl63nafa0g1c7_t { 0% { transform: translate(75px,75px) rotate(0deg) scale(0.68,0.68) translate(-103.903813px,-104.0935px); animation-timing-function: cubic-bezier(0.5,0.285,0.6,0.83); } 100% { transform: translate(75px,75px) rotate(-360deg) scale(0.68,0.68) translate(-103.903813px,-104.0935px); } }
    </style>
    <g transform="translate(75,78.9903) scale(0.8,0.8) translate(-35.589,-26.1005)">
        <g id="w8kdlxsp8k80gar8eb0gwd7d" style="animation: 10.1s linear infinite both zlxc4ent9n6md4ujuyn3mg02_t;">
            <path class="b" d="M17.795,12.939C9.049,12.939,1.935,7.134,1.935,0L0,0C0,8.201,7.983,14.873,17.795,14.873C27.607,14.873,35.589,8.201,35.589,0L33.654,0C33.654,7.134,26.539,12.939,17.794,12.939Z" stroke-width="0px" fill="#dddcd7" transform="translate(35.589,37.328) scale(2,2) translate(-17.7945,-7.4365)" style="animation: 10.1s linear infinite both w8kdlxsp8k80gar8eb0gwd7d_t;"/>
        </g>
        <g id="y2oa4i2qcvwumc3rnabakkco" style="animation: 10.1s linear infinite both xm8jarwf5h52ogiyz0c3gudl_t;">
            <path class="b" d="M3.449,6.987C5.354,6.987,6.898,5.423,6.898,3.493C6.898,1.563,5.355,0,3.449,0C1.543,0,0,1.564,0,3.494C0,5.424,1.544,6.988,3.449,6.988Z" stroke-width="0px" fill="#dddcd7" transform="translate(45.799,6.988) scale(2,2) translate(-3.449,-3.494)" style="animation: 10.1s linear infinite both y2oa4i2qcvwumc3rnabakkco_t;"/>
        </g>
        <g id="tw0luy7uq75yzajuhzr3n9ar" style="animation: 10.1s linear infinite both sbvoetw3v6vjesmz0drx3vyu_t;">
            <path class="b" d="M3.449,6.987C5.354,6.987,6.898,5.423,6.898,3.493C6.898,1.563,5.355,0,3.449,0C1.543,0,0,1.564,0,3.494C0,5.424,1.544,6.988,3.449,6.988Z" stroke-width="0px" fill="#dddcd7" transform="translate(25.379,6.988) scale(2,2) translate(-3.449,-3.494)" style="animation: 10.1s linear infinite both tw0luy7uq75yzajuhzr3n9ar_t;"/>
        </g>
    </g>
    <g transform="translate(75,75) scale(0.68,0.68) translate(-103.904,-104.094)" style="animation: 10.1s linear infinite both spkbt8owweubl63nafa0g1c7_t;">
        <path class="b" d="M181.334,173.846L179.184,175.841L165.628,169.092L165.594,169.125L171.318,183.145L169.168,185.141L157.565,172.642L159.138,171.181L168.679,181.46L168.715,181.428L162.948,167.644L164.346,166.346L177.664,173.118L177.699,173.086L168.157,162.807L169.73,161.346L181.333,173.846Z" stroke-width="0px" fill="#dddcd7" transform="translate(169.45,173.243) translate(-169.45,-173.243)"/>
        <path class="b" d="M156.209,178.672L155.168,174.268L157.034,173.069L160.945,190.825L158.937,192.113L144.447,181.146L146.313,179.948L149.884,182.73L156.208,178.672ZM151.497,183.962L158.852,189.816L158.892,189.789L156.636,180.665L151.496,183.963Z" stroke-width="0px" fill="#dddcd7" transform="translate(152.697,182.591) translate(-152.696,-182.591)"/>
        <path class="b" d="M150.393,197.123L144.702,199.524C140.373,201.35,136.527,199.658,134.395,194.604C132.263,189.549,133.745,185.638,138.074,183.812L143.765,181.412L150.393,197.123ZM142.529,184.004L138.816,185.57C134.816,187.258,135.075,190.693,136.373,193.77C137.671,196.847,139.961,199.453,143.961,197.765L147.674,196.199L142.529,184.004Z" stroke-width="0px" fill="#dddcd7" transform="translate(141.913,190.825) translate(-141.912,-190.825)"/>
        <path class="b" d="M121.34,199.125L120.9,197.269L129.416,195.251L128.04,189.45L118.134,191.799L117.695,189.943L129.689,187.1L133.621,203.688L121.905,206.465L121.465,204.608L131.093,202.327L129.856,197.107L121.342,199.126Z" stroke-width="0px" fill="#dddcd7" transform="translate(125.659,196.783) translate(-125.658,-196.783)"/>
        <path class="b" d="M107.919,208.092L105.252,193.995L105.203,193.992L100.817,207.799L98.434,207.701L95.195,193.58L95.147,193.58C95.147,193.58,91.333,207.41,91.333,207.41L89.069,207.316L93.987,190.452L96.37,190.55L99.702,205.32L99.75,205.32C99.75,205.32,104.282,190.877,104.282,190.877L106.665,190.975L110.183,208.187L107.919,208.093Z" stroke-width="0px" fill="#dddcd7" transform="translate(99.6269,199.32) translate(-99.626,-199.32)"/>
        <path class="b" d="M83.64,205.854L86.78,189.091L88.891,189.486L85.75,206.249L83.64,205.854Z" stroke-width="0px" fill="#dddcd7" transform="translate(86.2664,197.67) translate(-86.2655,-197.67)"/>
        <path class="b" d="M76.362,202.155L81.813,203.743L81.28,205.575L68.317,201.8L68.851,199.968L74.301,201.555L78.535,187.014L80.597,187.615L76.362,202.156Z" stroke-width="0px" fill="#dddcd7" transform="translate(75.0659,196.294) translate(-75.065,-196.294)"/>
        <path class="b" d="M62.782,199.48L65.938,192.953L57.735,188.986L54.579,195.513L52.646,194.578L60.07,179.226L62.003,180.16L58.566,187.267L66.768,191.233L70.206,184.126L72.138,185.061L64.714,200.414L62.782,199.48Z" stroke-width="0px" fill="#dddcd7" transform="translate(62.3929,189.82) translate(-62.392,-189.82)"/>
        <path class="b" d="M40.13,186.013L49.758,174.326L42.858,168.64L44.071,167.167L52.629,174.218L41.787,187.377L40.131,186.012Z" stroke-width="0px" fill="#dddcd7" transform="translate(46.3804,177.272) translate(-46.3795,-177.272)"/>
        <path class="b" d="M38.038,173.418C34.2,176.819,29.201,176.788,25.878,173.04C22.556,169.291,23.125,164.323,26.964,160.922C30.801,157.521,35.818,157.536,39.142,161.285C42.464,165.033,41.875,170.015,38.038,173.418ZM28.388,162.529C25.639,164.965,24.458,168.561,27.307,171.774C30.155,174.986,33.866,174.248,36.615,171.81C39.364,169.374,40.561,165.763,37.714,162.55C34.867,159.337,31.137,160.092,28.389,162.529Z" stroke-width="0px" fill="#dddcd7" transform="translate(32.5068,167.166) translate(-32.506,-167.166)"/>
        <path class="b" d="M18.219,162.923L28.306,150.912L28.293,150.891L13.063,154.64L11.866,152.717L29.499,148.765L30.747,150.77L19.419,164.848L18.22,162.923Z" stroke-width="0px" fill="#dddcd7" transform="translate(21.3074,156.807) translate(-21.3065,-156.807)"/>
        <path class="b" d="M12.848,136.706L14.607,135.968L17.997,144.035L23.493,141.726L19.55,132.337L21.309,131.599L26.084,142.965L10.364,149.569L5.7,138.467L7.459,137.728L11.292,146.852L16.238,144.774L12.848,136.706Z" stroke-width="0px" fill="#dddcd7" transform="translate(15.8929,140.584) translate(-15.892,-140.584)"/>
        <path class="b" d="M8.043,115.572L9.925,115.257L11.184,122.761L18.784,121.487L19.138,123.603L2.319,126.426L0.404,115.016L2.286,114.701L3.846,123.993L9.303,123.077L8.044,115.573Z" stroke-width="0px" fill="#dddcd7" transform="translate(9.77187,120.563) translate(-9.771,-120.563)"/>
        <path class="b" d="M0.096,111.295L0,104.379C-0.046,101.017,1.735,98.727,4.764,98.686C7.22,98.653,8.596,99.802,9.099,101.679L9.146,101.679C9.834,97.877,16.553,99.169,16.828,98.283L16.971,98.281L17.002,100.593C16.297,101.342,10.099,99.806,10.157,104.121L10.224,109.01L17.116,108.915L17.145,111.061L0.095,111.294ZM8.316,109.036L8.258,104.766C8.235,103.003,7.988,100.787,5.031,100.828C2.074,100.869,1.89,103.09,1.915,104.854L1.973,109.122L8.316,109.036Z" stroke-width="0px" fill="#dddcd7" transform="translate(8.57293,104.788) translate(-8.57207,-104.788)"/>
        <path class="b" d="M8.458,96.329C3.402,95.482,0.285,91.574,1.112,86.636C1.939,81.697,6.16,79.019,11.217,79.866C16.273,80.714,19.414,84.625,18.586,89.563C17.758,94.501,13.515,97.176,8.457,96.329ZM10.862,81.982C7.24,81.376,3.703,82.717,2.993,86.951C2.284,91.184,5.191,93.605,8.813,94.213C12.435,94.819,15.996,93.483,16.705,89.248C17.414,85.015,14.484,82.59,10.862,81.982Z" stroke-width="0px" fill="#dddcd7" transform="translate(9.84963,88.0976) translate(-9.84876,-88.0976)"/>
        <path class="b" d="M4.095,73.816L5.162,71.084L20.304,71.258L20.322,71.213L9.065,61.085L10.131,58.352L26.019,64.552L25.239,66.552L12.174,61.453L12.156,61.497L23.348,71.396L22.655,73.173L7.716,72.873L7.698,72.918L20.763,78.017L19.983,80.017L4.095,73.816Z" stroke-width="0px" fill="#dddcd7" transform="translate(15.0579,69.1845) translate(-15.057,-69.1845)"/>
        <path class="b" d="M21.156,44.265L17.784,48.829L16.25,47.697L24.268,36.841L25.803,37.975L22.431,42.539L34.611,51.535L33.335,53.26L21.157,44.265Z" stroke-width="0px" fill="#dddcd7" transform="translate(25.4314,45.0505) translate(-25.4305,-45.0505)"/>
        <path class="b" d="M28.201,32.664L33.302,37.818L39.779,31.408L34.677,26.254L36.203,24.744L48.199,36.865L46.674,38.376L41.12,32.766L34.643,39.174L40.198,44.786L38.672,46.296L26.675,34.174L28.201,32.664Z" stroke-width="0px" fill="#dddcd7" transform="translate(37.4379,35.52) translate(-37.437,-35.52)"/>
        <path class="b" d="M53.366,21.38L54.448,22.952L47.238,27.916L50.62,32.828L59.01,27.052L60.091,28.623L49.935,35.617L40.263,21.569L50.184,14.737L51.266,16.309L43.113,21.923L46.157,26.343L53.367,21.379Z" stroke-width="0px" fill="#dddcd7" transform="translate(50.1779,25.177) translate(-50.177,-25.177)"/>
        <path class="b" d="M63.488,8.059L66.009,14.858L74.552,11.691L72.031,4.892L74.045,4.147L79.972,20.136L77.958,20.882L75.215,13.481L66.672,16.646L69.416,24.049L67.403,24.795L61.476,8.805L63.488,8.059Z" stroke-width="0px" fill="#dddcd7" transform="translate(70.7249,14.471) translate(-70.724,-14.471)"/>
        <path class="b" d="M90.865,8.022L91.219,9.897L82.618,11.525L83.726,17.384L93.734,15.49L94.089,17.365L81.972,19.659L78.8,2.9L90.636,0.661L90.99,2.535L81.263,4.376L82.261,9.649L90.863,8.021Z" stroke-width="0px" fill="#dddcd7" transform="translate(86.4454,10.16) translate(-86.4445,-10.16)"/>
        <path class="b" d="M97.997,12.901L96.596,17.206L94.377,17.259L100.27,0.056L102.656,0L109.332,16.905L107.114,16.959L105.51,12.724L97.997,12.902ZM104.773,10.832L101.534,2.008L101.486,2.008C101.486,2.008,98.668,10.977,98.668,10.977L104.773,10.832Z" stroke-width="0px" fill="#dddcd7" transform="translate(101.855,8.6295) translate(-101.855,-8.6295)"/>
        <path class="b" d="M112.405,0.176L119.258,1.129C122.59,1.591,124.585,3.699,124.168,6.7C123.829,9.133,122.484,10.32,120.552,10.533L120.545,10.581C124.2,11.835,121.907,18.285,122.742,18.689L122.722,18.832L120.43,18.513C119.795,17.702,122.253,11.806,117.977,11.212L113.131,10.538L112.183,17.367L110.056,17.072L112.405,0.176ZM113.395,8.647L117.624,9.235C119.373,9.477,121.6,9.571,122.007,6.641C122.414,3.71,120.246,3.193,118.497,2.949L114.268,2.361L113.394,8.647Z" stroke-width="0px" fill="#dddcd7" transform="translate(117.14,9.504) translate(-117.139,-9.504)"/>
        <path class="b" d="M132.335,5.931L126.898,4.295L127.448,2.468L140.377,6.358L139.826,8.184L134.39,6.549L130.027,21.054L127.97,20.435L132.334,5.931Z" stroke-width="0px" fill="#dddcd7" transform="translate(133.638,11.761) translate(-133.638,-11.761)"/>
        <path class="b" d="M146.571,18.145C149.248,13.77,154.04,12.339,158.312,14.954C162.586,17.569,163.492,22.487,160.814,26.862C158.137,31.237,153.334,32.688,149.06,30.074C144.786,27.46,143.893,22.52,146.571,18.145ZM158.983,25.74C160.901,22.607,160.979,18.822,157.317,16.582C153.654,14.34,150.319,16.131,148.402,19.265C146.484,22.4,146.393,26.203,150.056,28.445C153.719,30.687,157.066,28.876,158.983,25.741Z" stroke-width="0px" fill="#dddcd7" transform="translate(153.691,22.511) translate(-153.69,-22.511)"/>
        <path class="b" d="M171.012,34.445L169.749,35.877L164.041,30.844L158.944,36.624L157.334,35.203L168.616,22.41L177.295,30.062L176.032,31.493L168.964,25.261L165.304,29.412L171.012,34.445Z" stroke-width="0px" fill="#dddcd7" transform="translate(167.315,29.517) translate(-167.314,-29.517)"/>
        <path class="b" d="M188.224,45.869C185.908,42.541,182.063,43.154,179.245,45.116C176.406,47.093,174.497,50.486,176.813,53.812C178.857,56.749,181.643,56.494,183.487,55.385L184.714,57.147C181.402,58.986,177.646,58.347,175.247,54.903C172.577,51.066,173.791,46.299,178.018,43.355C182.227,40.425,187.121,40.942,189.79,44.778C192.175,48.204,191.47,51.949,189.039,54.135L187.813,52.373C188.966,51.192,190.254,48.784,188.224,45.868Z" stroke-width="0px" fill="#dddcd7" transform="translate(182.548,49.8158) translate(-182.547,-49.8158)"/>
        <path class="b" d="M187.8,57.656C192.489,55.579,197.243,57.125,199.273,61.706C201.301,66.285,199.252,70.847,194.563,72.924C189.875,75.001,185.097,73.464,183.068,68.883C181.04,64.304,183.111,59.734,187.8,57.656ZM193.693,70.96C197.051,69.473,199.266,66.404,197.528,62.479C195.788,58.552,192.028,58.131,188.669,59.62C185.311,61.108,183.073,64.185,184.813,68.111C186.552,72.038,190.334,72.449,193.694,70.961Z" stroke-width="0px" fill="#dddcd7" transform="translate(191.173,65.2909) translate(-191.172,-65.2909)"/>
        <path class="b" d="M204.002,75.74L189.314,79.431L191.495,88.105L189.643,88.57L186.941,77.814L203.48,73.658L204.002,75.74Z" stroke-width="0px" fill="#dddcd7" transform="translate(195.472,81.114) translate(-195.472,-81.114)"/>
        <path class="b" d="M198.213,87.122C203.323,86.67,207.325,89.667,207.768,94.658C208.212,99.649,204.799,103.304,199.69,103.759C194.58,104.211,190.554,101.215,190.111,96.225C189.669,91.234,193.104,87.577,198.214,87.122ZM199.499,101.619C203.159,101.295,206.246,99.104,205.867,94.826C205.488,90.549,202.062,88.936,198.403,89.261C194.743,89.586,191.632,91.779,192.011,96.057C192.391,100.334,195.839,101.945,199.498,101.619Z" stroke-width="0px" fill="#dddcd7" transform="translate(198.941,95.4405) translate(-198.94,-95.4405)"/>
        <path class="b" d="M205.696,114.718C206.121,110.685,202.576,108.584,199.397,108.249C196.195,107.912,192.34,108.754,191.89,113.023C191.571,116.058,193.491,118.78,196.669,119.115L197.252,113.588L199.148,113.788L198.342,121.451L189.517,120.52L189.667,119.097L192.138,118.637L192.143,118.589C190.499,117.121,189.717,115.432,189.992,112.823C190.512,107.887,194.498,105.574,199.622,106.113C204.722,106.651,208.088,110.219,207.593,114.916C207.141,119.21,204.674,121.229,201.385,121.482L201.61,119.346C204.083,119.103,205.425,117.278,205.696,114.716Z" stroke-width="0px" fill="#dddcd7" transform="translate(198.58,113.759) translate(-198.579,-113.759)"/>
        <path class="b" d="M205.445,127.098L204.701,129.614L188.818,133.792L188.804,133.837L202.272,137.822L201.663,139.88L185.314,135.043L186.058,132.528L201.896,128.336L201.909,128.29L188.487,124.318L189.095,122.26L205.445,127.098Z" stroke-width="0px" fill="#dddcd7" transform="translate(195.38,131.07) translate(-195.379,-131.07)"/>
        <path class="b" d="M188.472,151.054L186.758,150.213L190.612,142.354L185.258,139.728L180.775,148.874L179.062,148.033L184.49,136.961L199.802,144.469L194.5,155.285L192.786,154.444L197.144,145.557L192.325,143.194L188.471,151.054Z" stroke-width="0px" fill="#dddcd7" transform="translate(189.433,146.123) translate(-189.432,-146.123)"/>
    </g>
</svg>
