<?xml version="1.0" encoding="UTF-8" standalone="no"?>
<!-- Created with Keyshape -->
<svg xmlns="http://www.w3.org/2000/svg" shape-rendering="geometricPrecision" text-rendering="geometricPrecision" viewBox="0 0 1920 1080" style="white-space: pre;">
    <style>
@keyframes a0_t { 0% { transform: translate(-616.148321px,503.682423px); } 25% { transform: translate(-616.148321px,503.682423px); animation-timing-function: cubic-bezier(0,0,0.58,1); } 96.875% { transform: translate(3186.942111px,503.682423px); } 100% { transform: translate(3186.942111px,503.682423px); } }
@keyframes a0_o { 0% { opacity: 0; } 25% { opacity: 0; animation-timing-function: cubic-bezier(0.295,0.5,0.795,0.31); } 48.8125% { opacity: 1; } 100% { opacity: 1; } }
@keyframes a1_t { 0% { transform: translate(-195.103px,895.77505px); animation-timing-function: cubic-bezier(0.295,0.5,0.795,0.31); } 78.6562% { transform: translate(2486.631px,895.77505px); } 100% { transform: translate(2486.631px,895.77505px); } }
@keyframes a1_o { 0% { opacity: 0; animation-timing-function: cubic-bezier(0.295,0.5,0.795,0.31); } 31.25% { opacity: 1; } 100% { opacity: 1; } }
@keyframes a2_t { 0% { transform: translate(-195.103px,356.87305px); } 9.375% { transform: translate(-195.103px,356.87305px); animation-timing-function: cubic-bezier(0.295,0.5,0.795,0.31); } 88.0312% { transform: translate(2486.631px,356.87305px); } 100% { transform: translate(2486.631px,356.87305px); } }
@keyframes a2_o { 0% { opacity: 0; } 9.375% { opacity: 0; animation-timing-function: cubic-bezier(0.295,0.5,0.795,0.31); } 40.625% { opacity: 1; } 100% { opacity: 1; } }
@keyframes a3_t { 0% { transform: translate(-195.103px,828.339906px); } 43.75% { transform: translate(-195.103px,828.339906px); animation-timing-function: cubic-bezier(0.295,0.5,0.795,0.31); } 100% { transform: translate(2486.631px,828.339906px); } }
@keyframes a3_o { 0% { opacity: 0; } 43.75% { opacity: 0; animation-timing-function: cubic-bezier(0.295,0.5,0.795,0.31); } 66.0938% { opacity: 1; } 100% { opacity: 1; } }
@keyframes a4_t { 0% { transform: translate(-195.103px,163.03905px); } 18.75% { transform: translate(-195.103px,163.03905px); animation-timing-function: cubic-bezier(0.295,0.5,0.795,0.31); } 97.4062% { transform: translate(2583.801px,163.03905px); } 100% { transform: translate(2583.801px,163.03905px); } }
@keyframes a4_o { 0% { opacity: 0; } 18.75% { opacity: 0; animation-timing-function: cubic-bezier(0.295,0.5,0.795,0.31); } 50% { opacity: 1; } 100% { opacity: 1; } }
@keyframes a5_t { 0% { transform: translate(-246.296px,688.996474px); } 12.5% { transform: translate(-246.296px,688.996474px); animation-timing-function: cubic-bezier(0.295,0.5,0.795,0.31); } 73.375% { transform: translate(2507.071px,688.996474px); } 100% { transform: translate(2507.071px,688.996474px); } }
@keyframes a5_o { 0% { opacity: 0; } 12.5% { opacity: 0; animation-timing-function: cubic-bezier(0.295,0.5,0.795,0.31); } 41% { opacity: 1; } 100% { opacity: 1; } }
@keyframes a6_t { 0% { transform: translate(-224.924px,243.98105px); } 43.75% { transform: translate(-224.924px,243.98105px); animation-timing-function: cubic-bezier(0.295,0.5,0.795,0.31); } 90.625% { transform: translate(2523.141px,243.98105px); } 100% { transform: translate(2523.141px,243.98105px); } }
@keyframes a6_o { 0% { opacity: 0; } 43.75% { opacity: 0; animation-timing-function: cubic-bezier(0.295,0.5,0.795,0.31); } 65.6875% { opacity: 1; } 100% { opacity: 1; } }
    </style>
    <path class="c" d="M105.548,61.8663L82.4194,84.9948C81.7854,85.6281,81.1522,85.9447,80.201,85.9447C77.6668,85.9447,76.0828,82.4598,77.984,80.5588L99.5277,59.0148L72.3651,59.0148C70.7809,59.0148,69.1968,57.4308,69.1968,55.8466C69.1968,54.2625,70.7809,52.6784,72.3651,52.6784L99.5277,52.6784L77.984,31.1343C75.132,28.2829,79.5678,23.8473,82.4194,26.6987L105.23,49.5101C108.716,52.9952,108.716,58.698,105.548,61.8663Z" stroke-width="0px" fill="#fe2a00" opacity="0" transform="translate(-604.229,513.177) translate(-11.919,-9.49495)" style="animation: 3.2s linear infinite both a0_t, 3.2s linear infinite both a0_o;"/>
    <path class="c" d="M63.5102,41.1386L53.6665,50.9825C53.3967,51.252,53.1272,51.3868,52.7223,51.3868C51.6437,51.3868,50.9695,49.9036,51.7787,49.0944L60.948,39.925L49.0494,39.925C48.3751,39.925,47.7009,39.2508,47.7009,38.5766C47.7009,37.9023,48.3751,37.2281,49.0494,37.2281L60.948,37.2281L51.7787,28.0586C50.5649,26.845,52.4528,24.9572,53.6665,26.1708L63.3751,35.8797C64.8586,37.363,64.8586,39.7902,63.5102,41.1386Z" stroke-width="0px" fill="#fe2a00" opacity="0" transform="translate(-183.184,905.27) translate(-11.919,-9.49495)" style="animation: 3.2s linear infinite both a1_t, 3.2s linear infinite both a1_o;"/>
    <path class="c" d="M63.5102,41.1386L53.6665,50.9825C53.3967,51.252,53.1272,51.3868,52.7223,51.3868C51.6437,51.3868,50.9695,49.9036,51.7787,49.0944L60.948,39.925L48.7798,39.925L49.3696,39.925C48.6953,39.925,48.0211,39.2508,48.0211,38.5766C48.0211,37.9023,48.6953,37.2281,49.3696,37.2281L60.948,37.2281L51.7787,28.0586C50.5649,26.845,52.4528,24.9572,53.6665,26.1708L63.3751,35.8797C64.8586,37.363,64.8586,39.7902,63.5102,41.1386Z" stroke-width="0px" fill="#fe2a00" opacity="0" transform="translate(-183.184,366.368) translate(-11.919,-9.49495)" style="animation: 3.2s linear infinite both a2_t, 3.2s linear infinite both a2_o;"/>
    <path class="c" d="M63.5102,41.1386L53.6665,50.9825C53.3967,51.252,53.1272,51.3868,52.7223,51.3868C51.6437,51.3868,50.9695,49.9036,51.7787,49.0944L60.948,39.925L48.7798,39.925L49.3696,39.925C48.6953,39.925,48.0211,39.2508,48.0211,38.5766C48.0211,37.9023,48.6953,37.2281,49.3696,37.2281L60.948,37.2281L51.7787,28.0586C50.5649,26.845,52.4528,24.9572,53.6665,26.1708L63.3751,35.8797C64.8586,37.363,64.8586,39.7902,63.5102,41.1386Z" stroke-width="0px" fill="#fe2a00" opacity="0" transform="translate(-183.184,837.835) translate(-11.919,-9.49495)" style="animation: 3.2s linear infinite both a3_t, 3.2s linear infinite both a3_o;"/>
    <path class="c" d="M63.5102,41.1386L53.6665,50.9825C53.3967,51.252,53.1272,51.3868,52.7223,51.3868C51.6437,51.3868,50.9695,49.9036,51.7787,49.0944L60.948,39.925L47.4398,39.925C46.7655,39.925,46.0913,39.2508,46.0913,38.5766C46.0913,37.9023,46.7655,37.2281,47.4398,37.2281L60.948,37.2281L51.7787,28.0586C50.5649,26.845,52.4528,24.9572,53.6665,26.1708L63.3751,35.8797C64.8586,37.363,64.8586,39.7902,63.5102,41.1386Z" stroke-width="0px" fill="#fe2a00" opacity="0" transform="translate(-183.184,172.534) translate(-11.919,-9.49495)" style="animation: 3.2s linear infinite both a4_t, 3.2s linear infinite both a4_o;"/>
    <path class="c" d="M124.977,76.7812L101.262,100.496C100.613,101.145,99.9632,101.47,98.9879,101.47C96.3895,101.47,94.7653,97.8968,96.7147,95.9475L118.805,73.8574L91.3905,73.8574C89.7661,73.8574,88.1419,72.2332,88.1419,70.6088C88.1419,68.9846,89.7661,67.3603,91.3905,67.3603L118.805,67.3603L96.7147,45.27C93.7904,42.3463,98.3386,37.7983,101.262,40.722L124.652,64.1117C128.226,67.6851,128.226,73.5325,124.977,76.7812Z" stroke-width="0px" fill="#fe2a00" opacity="0" transform="translate(-234.377,698.491) translate(-11.919,-9.49495)" style="animation: 3.2s linear infinite both a5_t, 3.2s linear infinite both a5_o;"/>
    <path class="c" d="M106.4,67.6213L88.5558,85.4655C88.0675,85.9538,87.5785,86.1983,86.8447,86.1983C84.8895,86.1983,83.6674,83.5097,85.1342,82.043L101.756,65.4213L79.9759,65.4213C78.7536,65.4213,77.5315,64.1992,77.5315,62.9769C77.5315,61.7548,78.7536,60.5326,79.9759,60.5326L101.756,60.5326L85.1342,43.9108C82.9338,41.7109,86.3561,38.2888,88.5558,40.4887L106.156,58.0882C108.845,60.777,108.845,65.1769,106.4,67.6213Z" stroke-width="0px" fill="#fe2a00" opacity="0" transform="translate(-213.005,253.476) translate(-11.919,-9.49495)" style="animation: 3.2s linear infinite both a6_t, 3.2s linear infinite both a6_o;"/>
</svg>
