<?xml version="1.0" encoding="UTF-8"?>
<svg xmlns="http://www.w3.org/2000/svg" xmlns:xlink="http://www.w3.org/1999/xlink" id="b" viewBox="0 0 477.377 457.042">
  <defs>
    <style>.s{fill:url(#j);}.t{fill:url(#i);}.u{fill:url(#h);}.v{fill:url(#g);}.w{fill:url(#f);}.x{fill:url(#e);}.y{fill:url(#d);}.z{stroke-linecap:round;stroke-linejoin:round;stroke-width:1.993px;}.z,.aa{fill:none;stroke:#fe2a00;}.aa{stroke-width:1.161px;}.ab{fill:url(#q);}.ab,.ac,.ad,.ae,.af,.ag,.ah,.ai{stroke:#f5f5f6;stroke-miterlimit:10;stroke-width:1.024px;}.ac{fill:url(#p);}.ad{fill:url(#n);}.ae{fill:url(#m);}.af{fill:url(#l);}.ag{fill:url(#k);}.ah{fill:url(#r);}.ai{fill:url(#o);}</style>
    <linearGradient id="d" x1="308.826" y1="222.449" x2="17.847" y2="-68.53" gradientUnits="userSpaceOnUse">
      <stop offset="0" stop-color="#fe2a00" stop-opacity=".8"></stop>
      <stop offset=".279" stop-color="#fe2a00" stop-opacity=".564"></stop>
      <stop offset=".777" stop-color="#fe2a00" stop-opacity=".161"></stop>
      <stop offset="1" stop-color="#fe2a00" stop-opacity="0"></stop>
    </linearGradient>
    <linearGradient id="e" x1="192.601" y1="479.215" x2="277.915" y2="177.773" gradientUnits="userSpaceOnUse">
      <stop offset="0" stop-color="#fe2a00"></stop>
      <stop offset=".007" stop-color="#fe2a00" stop-opacity=".968"></stop>
      <stop offset=".047" stop-color="#fe2a00" stop-opacity=".787"></stop>
      <stop offset=".092" stop-color="#fe2a00" stop-opacity=".617"></stop>
      <stop offset=".141" stop-color="#fe2a00" stop-opacity=".469"></stop>
      <stop offset=".194" stop-color="#fe2a00" stop-opacity=".341"></stop>
      <stop offset=".253" stop-color="#fe2a00" stop-opacity=".234"></stop>
      <stop offset=".319" stop-color="#fe2a00" stop-opacity=".147"></stop>
      <stop offset=".397" stop-color="#fe2a00" stop-opacity=".081"></stop>
      <stop offset=".493" stop-color="#fe2a00" stop-opacity=".034"></stop>
      <stop offset=".627" stop-color="#fe2a00" stop-opacity=".007"></stop>
      <stop offset="1" stop-color="#fe2a00" stop-opacity="0"></stop>
    </linearGradient>
    <linearGradient id="f" x1="468.063" y1="411.952" x2="92.73" y2="261.25" gradientUnits="userSpaceOnUse">
      <stop offset="0" stop-color="#fe2a00"></stop>
      <stop offset=".034" stop-color="#fe2a00" stop-opacity=".886"></stop>
      <stop offset=".098" stop-color="#fe2a00" stop-opacity=".702"></stop>
      <stop offset=".166" stop-color="#fe2a00" stop-opacity=".534"></stop>
      <stop offset=".239" stop-color="#fe2a00" stop-opacity=".39"></stop>
      <stop offset=".317" stop-color="#fe2a00" stop-opacity=".269"></stop>
      <stop offset=".402" stop-color="#fe2a00" stop-opacity=".17"></stop>
      <stop offset=".497" stop-color="#fe2a00" stop-opacity=".094"></stop>
      <stop offset=".606" stop-color="#fe2a00" stop-opacity=".04"></stop>
      <stop offset=".744" stop-color="#fe2a00" stop-opacity=".009"></stop>
      <stop offset="1" stop-color="#fe2a00" stop-opacity="0"></stop>
    </linearGradient>
    <linearGradient id="g" x1="235.982" y1="368.184" x2="235.982" y2="651.746" xlink:href="#e"></linearGradient>
    <linearGradient id="h" x1="354.265" y1="493.822" x2="220.885" y2="429.283" gradientTransform="translate(529.899 901.209) rotate(180)" xlink:href="#e"></linearGradient>
    <linearGradient id="i" x1="149.579" y1="400.422" x2="364.258" y2="487.858" xlink:href="#e"></linearGradient>
    <linearGradient id="j" x1="253.043" y1="171.751" x2="222.817" y2="135.948" gradientUnits="userSpaceOnUse">
      <stop offset="0" stop-color="#fe2a00"></stop>
      <stop offset=".094" stop-color="#fe2a00" stop-opacity=".977"></stop>
      <stop offset=".219" stop-color="#fe2a00" stop-opacity=".91"></stop>
      <stop offset=".362" stop-color="#fe2a00" stop-opacity=".801"></stop>
      <stop offset=".518" stop-color="#fe2a00" stop-opacity=".648"></stop>
      <stop offset=".684" stop-color="#fe2a00" stop-opacity=".453"></stop>
      <stop offset=".857" stop-color="#fe2a00" stop-opacity=".218"></stop>
      <stop offset="1" stop-color="#fe2a00" stop-opacity="0"></stop>
    </linearGradient>
    <linearGradient id="k" x1="320.531" y1="246.496" x2="335.811" y2="246.496" gradientUnits="userSpaceOnUse">
      <stop offset="0" stop-color="#fe2a00" stop-opacity=".5"></stop>
      <stop offset=".655" stop-color="#fe2a00" stop-opacity=".16"></stop>
      <stop offset="1" stop-color="#fe2a00" stop-opacity="0"></stop>
    </linearGradient>
    <linearGradient id="l" y1="67.042" y2="67.042" xlink:href="#k"></linearGradient>
    <linearGradient id="m" x1="141.594" y1="67.042" x2="156.874" y2="67.042" xlink:href="#k"></linearGradient>
    <linearGradient id="n" x1="141.594" x2="156.874" xlink:href="#k"></linearGradient>
    <linearGradient id="o" x1="140.597" y1="153.004" x2="157.871" y2="153.004" xlink:href="#k"></linearGradient>
    <linearGradient id="p" x1="319.534" y1="153.004" x2="336.808" y2="153.004" xlink:href="#k"></linearGradient>
    <linearGradient id="q" x1="231.696" y1="246.496" x2="248.97" y2="246.496" xlink:href="#k"></linearGradient>
    <linearGradient id="r" x1="231.696" y1="67.042" x2="248.97" y2="67.042" xlink:href="#k"></linearGradient>
  </defs>
  <g id="c">
    <path class="y" d="M476.381,12.874c0-7.111-5.765-12.874-12.874-12.874H12.902C5.792,0,.028,5.764.028,12.874v283.237h476.353V12.874Z"></path>
    <path class="x" d="M464.503,347.609H13.899c-7.11,0-13.899-5.764-13.899-12.874l.028-38.623h477.35v38.623c0,7.11-5.764,12.874-12.874,12.874Z"></path>
    <path class="w" d="M463.506,347.609H12.902c-5.687,0-12.902-5.764-12.902-12.874l.028-38.623h476.353v38.623c0,7.11-5.764,12.874-12.874,12.874Z"></path>
    <path class="v" d="M310.01,347.609v90.121c0,3.555,2.882,6.437,6.437,6.437h-154.493c-3.555,0-6.437-2.882-6.437-6.437v-90.121h154.493Z"></path>
    <rect class="u" x="181.266" y="444.167" width="167.367" height="12.874" transform="translate(529.899 901.209) rotate(-180)"></rect>
    <path class="t" d="M161.954,444.167c-3.555,0-6.437-2.882-6.437-6.437v-90.121h-12.874v96.558c0,7.11,5.765,12.874,12.874,12.874h25.749v-12.874h-19.312Z"></path>
    <rect class="aa" x="149.918" y="66.223" width="180.205" height="180.205"></rect>
    <circle class="z" cx="240.021" cy="156.326" r="88.693"></circle>
    <circle class="s" cx="240.021" cy="156.326" r="21.924"></circle>
    <rect class="z" x="213.114" y="129.419" width="53.814" height="53.814" transform="translate(-40.239 215.507) rotate(-45)"></rect>
    <rect class="ag" x="320.531" y="238.855" width="15.281" height="15.281"></rect>
    <rect class="af" x="320.531" y="59.402" width="15.281" height="15.281"></rect>
    <rect class="ae" x="141.594" y="59.402" width="15.281" height="15.281"></rect>
    <rect class="ad" x="141.594" y="238.855" width="15.281" height="15.281"></rect>
    <path class="ai" d="M157.871,153.004c0,4.77-3.867,8.637-8.637,8.637h0c-4.77,0-8.637-3.867-8.637-8.637h0c0-4.77,3.867-8.637,8.637-8.637h0c4.77,0,8.637,3.867,8.637,8.637h0Z"></path>
    <path class="ac" d="M336.808,153.004c0,4.77-3.867,8.637-8.637,8.637h0c-4.77,0-8.637-3.867-8.637-8.637h0c0-4.77,3.867-8.637,8.637-8.637h0c4.77,0,8.637,3.867,8.637,8.637h0Z"></path>
    <path class="ab" d="M248.97,246.496c0,4.77-3.867,8.637-8.637,8.637h0c-4.77,0-8.637-3.867-8.637-8.637h0c0-4.77,3.867-8.637,8.637-8.637h0c4.77,0,8.637,3.867,8.637,8.637h0Z"></path>
    <path class="ah" d="M248.97,67.042c0,4.77-3.867,8.637-8.637,8.637h0c-4.77,0-8.637-3.867-8.637-8.637h0c0-4.77,3.867-8.637,8.637-8.637h0c4.77,0,8.637,3.867,8.637,8.637h0Z"></path>
  </g>
</svg>
