<?xml version="1.0" encoding="UTF-8"?>
<svg xmlns="http://www.w3.org/2000/svg" id="b" viewBox="0 0 342.496 490.452">
  <defs>
    <style>.d{fill:#e99b89;}.e{fill:#f84a27;}.f{fill:#dddcd7;}.g{fill:#e0ccc3;}.h{fill:#ef7b62;}.i{fill:#e3bcb0;}.j{fill:#060606;}.k{fill:#fe2a00;}.l{fill:#f26b4e;}</style>
  </defs>
  <g id="c">
    <rect class="f" x="166.662" y="216.182" width="175.835" height="274.27" rx="14.901" ry="14.901"></rect>
    <path class="j" d="M205.9,257.25c-.684-.411-1.221-.993-1.608-1.746s-.582-1.626-.582-2.622c0-.958.189-1.809.568-2.553s.924-1.326,1.636-1.746c.712-.419,1.547-.629,2.505-.629,1.223,0,2.238.342,3.046,1.026.808.685,1.312,1.625,1.513,2.82h-1.369c-.173-.831-.541-1.479-1.102-1.944-.561-.466-1.257-.698-2.087-.698-.675,0-1.262.15-1.759.452s-.881.732-1.15,1.293c-.269.562-.404,1.221-.404,1.978,0,.767.135,1.436.404,2.006s.646,1.008,1.129,1.314c.484.306,1.045.458,1.684.458.547,0,1.031-.116,1.451-.349.42-.232.742-.554.965-.965s.335-.881.335-1.41h-3.094v-1.15h3.326c.548,0,.963.135,1.246.404.283.27.424.66.424,1.17v3.34h-1.177v-3.148h-.027c-.101,1.031-.454,1.841-1.061,2.43-.607.589-1.426.883-2.457.883-.886,0-1.67-.205-2.355-.616Z"></path>
    <path class="j" d="M214.922,257.702v-9.583h4.49c.602,0,1.136.112,1.602.335.465.224.826.539,1.082.944.255.406.383.87.383,1.39,0,.575-.183,1.084-.548,1.526-.365.443-.849.755-1.451.938.566.137.945.47,1.136,1l1.301,3.45h-1.424l-1.191-3.217c-.155-.411-.461-.616-.917-.616h-3.121v3.833h-1.341ZM219.412,252.691c.538,0,.96-.167,1.266-.5.306-.333.458-.746.458-1.239,0-.511-.16-.908-.479-1.191-.32-.283-.735-.424-1.246-.424h-3.149v3.354h3.149Z"></path>
    <path class="j" d="M225.024,257.702h-1.382l3.942-9.583h1.328l3.956,9.583h-1.383l-1.068-2.601h-4.326l-1.068,2.601ZM228.255,249.831l-1.67,4.079h3.34l-1.67-4.079Z"></path>
    <path class="j" d="M235.633,257.702h-1.341v-9.583h6.625v1.218h-5.284v2.93h4.901v1.218h-4.901v4.216Z"></path>
    <path class="j" d="M243.902,257.702h-1.341v-9.583h1.341v9.583Z"></path>
    <path class="j" d="M247.434,257.702h-1.341v-9.583h1.341v5.038l4.723-5.038h1.711l-3.792,3.97,4.052,5.613h-1.643l-3.34-4.641-1.711,1.793v2.847Z"></path>
    <path class="j" d="M255.47,257.702v-9.583h3.409c.921,0,1.741.201,2.457.603.716.401,1.275.96,1.677,1.677.402.716.603,1.536.603,2.457,0,.94-.201,1.778-.603,2.512-.401.735-.96,1.307-1.677,1.718s-1.536.616-2.457.616h-3.409ZM258.974,256.483c.63,0,1.191-.153,1.684-.458.493-.306.876-.735,1.15-1.287.274-.552.411-1.179.411-1.882,0-.657-.139-1.254-.417-1.793s-.664-.96-1.157-1.267c-.493-.306-1.049-.458-1.67-.458h-2.163v7.146h2.163Z"></path>
    <path class="j" d="M272.102,257.702h-6.735v-9.583h6.612v1.218h-5.284v2.807h4.764v1.191h-4.764v3.148h5.407v1.218Z"></path>
    <path class="j" d="M275.456,257.476c-.63-.26-1.127-.623-1.492-1.088-.365-.466-.566-1.004-.602-1.616h1.396c.073.584.363,1.047.87,1.39.506.342,1.166.513,1.978.513.684,0,1.207-.13,1.567-.39.36-.26.541-.623.541-1.088,0-.411-.144-.725-.431-.944s-.701-.411-1.239-.575l-1.629-.507c-.064-.018-.361-.109-.89-.274-.529-.164-.972-.452-1.328-.862s-.534-.898-.534-1.465c0-.52.135-.976.404-1.369.269-.393.654-.698,1.157-.917.501-.219,1.086-.328,1.752-.328,1.123,0,2.017.278,2.683.835s1.031,1.341,1.095,2.354h-1.369c-.045-.63-.283-1.12-.712-1.472-.429-.351-1.013-.527-1.752-.527-.584,0-1.052.121-1.403.363-.351.242-.527.573-.527.992,0,.301.086.543.26.726.173.183.365.315.575.397s.552.196,1.027.342l1.506.465c.556.174,1.02.352,1.389.534s.682.449.938.801c.255.351.383.805.383,1.362,0,.849-.308,1.518-.924,2.006-.616.488-1.462.732-2.539.732-.803,0-1.52-.13-2.149-.39Z"></path>
    <path class="j" d="M284.039,257.702h-1.341v-9.583h1.341v9.583Z"></path>
    <path class="j" d="M287.981,257.25c-.684-.411-1.221-.993-1.608-1.746s-.582-1.626-.582-2.622c0-.958.189-1.809.568-2.553s.924-1.326,1.636-1.746c.712-.419,1.547-.629,2.505-.629,1.223,0,2.238.342,3.046,1.026.808.685,1.312,1.625,1.513,2.82h-1.369c-.173-.831-.541-1.479-1.102-1.944-.561-.466-1.257-.698-2.087-.698-.675,0-1.262.15-1.759.452s-.881.732-1.15,1.293c-.269.562-.404,1.221-.404,1.978,0,.767.135,1.436.404,2.006s.646,1.008,1.129,1.314c.484.306,1.045.458,1.684.458.547,0,1.031-.116,1.451-.349.42-.232.742-.554.965-.965s.335-.881.335-1.41h-3.094v-1.15h3.326c.548,0,.963.135,1.246.404.283.27.424.66.424,1.17v3.34h-1.177v-3.148h-.027c-.101,1.031-.454,1.841-1.061,2.43-.607.589-1.426.883-2.457.883-.886,0-1.67-.205-2.355-.616Z"></path>
    <path class="j" d="M298.344,257.702h-1.341v-9.583h1.492l5.174,7.666v-7.666h1.328v9.583h-1.492l-5.161-7.666v7.666Z"></path>
    <path class="j" d="M250.756,466.086c-.421.573-1.091.859-2.009.859h-.139v-1.201h.139c.657,0,1.158-.137,1.504-.411.345-.273.518-.672.518-1.194v-.126h1.226v8.845h-1.238v-6.773Z"></path>
    <path class="j" d="M255.154,472.682c-.522-.219-.924-.524-1.207-.917-.282-.392-.423-.84-.423-1.346s.158-.95.474-1.333c.315-.383.756-.676,1.32-.878-.438-.186-.779-.453-1.023-.803-.245-.35-.367-.743-.367-1.181,0-.447.126-.849.379-1.207.252-.358.608-.64,1.067-.847.459-.206.988-.31,1.586-.31s1.125.104,1.58.31c.455.207.807.489,1.055.847.249.358.373.76.373,1.207,0,.438-.12.83-.36,1.175-.24.346-.58.615-1.017.809.556.202.992.495,1.308.878s.474.828.474,1.333c0,.498-.137.941-.411,1.333-.273.392-.669.699-1.188.922s-1.123.335-1.813.335c-.682,0-1.285-.11-1.807-.329ZM258.509,471.45c.392-.299.588-.68.588-1.144s-.196-.842-.588-1.137c-.392-.294-.908-.442-1.548-.442s-1.158.147-1.554.442c-.396.295-.594.674-.594,1.137s.198.845.594,1.144c.396.299.914.449,1.554.449s1.156-.149,1.548-.449ZM258.244,467.394c.333-.273.499-.625.499-1.055,0-.413-.167-.75-.499-1.011-.333-.261-.76-.392-1.283-.392-.531,0-.962.131-1.295.392-.333.261-.5.598-.5,1.011,0,.43.167.782.5,1.055.333.274.764.411,1.295.411.522,0,.95-.137,1.283-.411Z"></path>
    <rect class="g" x="126.021" y="184.421" width="175.835" height="274.27" rx="14.901" ry="14.901" transform="translate(22.376 -13.812) rotate(3.902)"></rect>
    <path class="j" d="M185.66,223.563c-.61-.302-1.082-.698-1.415-1.187-.333-.49-.496-1.04-.491-1.653l1.393.095c.033.588.291,1.07.773,1.446.482.376,1.128.591,1.938.646.683.047,1.212-.047,1.59-.282.377-.235.582-.584.613-1.049.028-.41-.094-.733-.366-.972s-.671-.458-1.197-.658l-1.591-.617c-.062-.022-.353-.133-.869-.333-.518-.2-.939-.517-1.266-.951-.327-.434-.472-.933-.433-1.498.035-.519.201-.965.497-1.338.295-.373.7-.652,1.216-.836s1.106-.253,1.771-.208c1.12.077,1.994.416,2.62,1.016.626.601.938,1.409.933,2.424l-1.366-.093c-.002-.631-.206-1.137-.61-1.517-.404-.379-.975-.595-1.712-.645-.583-.04-1.058.049-1.424.267-.367.218-.564.536-.593.954-.021.301.049.547.21.742.16.194.343.339.547.435.204.096.538.233,1.001.411l1.471.567c.543.211.993.42,1.35.627.356.207.65.495.881.863.231.367.328.829.291,1.384-.058.847-.411,1.493-1.059,1.938-.647.445-1.509.63-2.583.557-.801-.055-1.507-.232-2.118-.535Z"></path>
    <path class="j" d="M196.462,224.527l-1.325-.09.569-8.345-3.264-.223.083-1.216,7.853.536-.083,1.216-3.264-.223-.569,8.345Z"></path>
    <path class="j" d="M201.256,224.854l.652-9.561,4.48.306c.601.041,1.125.189,1.575.444.449.255.787.593,1.015,1.016.227.423.323.894.288,1.413-.039.574-.256,1.069-.65,1.485-.395.417-.898.696-1.512.837.555.175.91.533,1.065,1.074l1.063,3.53-1.42-.097-.97-3.291c-.127-.42-.417-.646-.873-.677l-3.114-.212-.261,3.824-1.338-.091ZM206.077,220.161c.537.037.969-.101,1.297-.413.327-.311.508-.713.542-1.205.035-.51-.098-.917-.397-1.22-.3-.304-.704-.474-1.213-.508l-3.142-.214-.229,3.346,3.142.214Z"></path>
    <path class="j" d="M211.335,225.541l-1.379-.094,4.585-9.292,1.325.09,3.295,9.83-1.38-.094-.889-2.668-4.315-.294-1.242,2.522ZM215.094,217.908l-1.944,3.956,3.332.227-1.388-4.183Z"></path>
    <path class="j" d="M223.149,226.347l-1.325-.09.569-8.345-3.264-.223.083-1.216,7.853.536-.083,1.216-3.264-.223-.569,8.345Z"></path>
    <path class="j" d="M234.662,227.132l-6.719-.458.652-9.561,6.597.45-.083,1.216-5.272-.359-.191,2.8,4.753.324-.081,1.188-4.753-.324-.214,3.141,5.395.368-.083,1.215Z"></path>
    <path class="j" d="M238.148,226.917c-.655-.456-1.151-1.073-1.486-1.851-.335-.777-.469-1.662-.401-2.655.065-.956.312-1.792.74-2.508.429-.716,1.013-1.26,1.751-1.63.738-.37,1.585-.522,2.542-.458,1.22.083,2.21.494,2.969,1.231.759.738,1.198,1.71,1.317,2.917l-1.366-.093c-.117-.84-.439-1.512-.967-2.015-.528-.503-1.207-.782-2.035-.839-.674-.046-1.269.064-1.786.331-.517.267-.929.671-1.235,1.212-.307.542-.486,1.19-.538,1.946-.052.765.037,1.441.267,2.028.229.587.575,1.05,1.037,1.388.462.338,1.011.529,1.649.572.546.037,1.037-.046,1.471-.25.435-.203.778-.502,1.029-.896.251-.395.395-.856.431-1.384l-3.086-.21.078-1.147,3.318.227c.546.037.951.2,1.216.487.264.289.378.687.343,1.197l-.227,3.333-1.174-.08.214-3.142h-.027c-.171,1.021-.579,1.804-1.224,2.35s-1.483.784-2.512.713c-.883-.06-1.652-.318-2.307-.774Z"></path>
    <path class="j" d="M248.456,228.073l-1.338-.091.652-9.561,1.338.091-.652,9.561Z"></path>
    <path class="j" d="M257.361,228.68l-6.719-.458.652-9.561,6.597.45-.083,1.216-5.272-.359-.191,2.8,4.753.324-.081,1.188-4.753-.324-.214,3.141,5.395.368-.083,1.215Z"></path>
    <path class="j" d="M202.502,433.807c-.459.542-1.147.783-2.063.721l-.138-.009.082-1.198.139.009c.655.045,1.165-.058,1.528-.307.363-.249.562-.635.598-1.156l.009-.125,1.223.083-.602,8.824-1.235-.084.461-6.757Z"></path>
    <path class="j" d="M205.899,440.264c-.547-.514-.847-1.191-.9-2.031l1.261.086c.05.501.238.901.564,1.197.326.297.762.463,1.309.501.706.048,1.274-.203,1.704-.751.43-.549.688-1.348.777-2.397.008-.109.009-.249.003-.418-.151.488-.447.871-.889,1.149-.441.278-.968.396-1.582.354-.597-.041-1.122-.204-1.576-.487-.454-.285-.795-.663-1.024-1.134-.229-.472-.325-.998-.285-1.577.04-.58.207-1.086.502-1.518.295-.431.689-.757,1.181-.977.492-.219,1.036-.309,1.633-.268.74.05,1.357.282,1.853.697.495.414.854.974,1.076,1.681.222.708.301,1.528.237,2.461-.097,1.421-.467,2.51-1.109,3.268-.643.759-1.502,1.102-2.578,1.028-.891-.061-1.61-.349-2.158-.863ZM209.217,436.741c.296-.127.542-.328.738-.603.196-.273.307-.608.334-1.003.027-.403-.035-.756-.187-1.058-.153-.302-.367-.536-.643-.703-.276-.166-.577-.26-.905-.283-.344-.023-.669.03-.974.161-.305.131-.557.336-.757.613-.201.277-.314.618-.342,1.021-.027.396.041.74.202,1.033.162.295.382.525.663.691.28.167.588.262.924.285.336.023.652-.029.948-.157Z"></path>
    <rect class="i" x="113.385" y="153.684" width="175.835" height="274.27" rx="14.901" ry="14.901" transform="translate(33.884 -20.741) rotate(6.439)"></rect>
    <path class="j" d="M163.704,189.899c-.634-.485-1.102-1.124-1.403-1.915-.302-.792-.396-1.682-.284-2.671.107-.952.392-1.776.851-2.473.459-.696,1.067-1.213,1.821-1.551s1.608-.452,2.56-.345c1.215.137,2.186.591,2.912,1.362.726.771,1.121,1.761,1.187,2.972l-1.36-.153c-.079-.845-.372-1.529-.877-2.055-.506-.526-1.172-.835-1.997-.928-.671-.076-1.271.008-1.798.251-.529.244-.958.629-1.288,1.156-.331.528-.538,1.168-.623,1.92-.086.763-.028,1.442.176,2.039.203.597.528,1.074.975,1.433.446.358.987.573,1.621.644.544.062,1.038,0,1.482-.184.442-.184.798-.468,1.066-.851.269-.383.432-.838.491-1.364l-3.074-.347.129-1.143,3.306.373c.543.061.941.242,1.192.541.251.3.348.703.291,1.21l-.375,3.319-1.17-.132.353-3.128-.026-.003c-.216,1.014-.658,1.778-1.326,2.295-.67.518-1.516.718-2.541.602-.88-.1-1.636-.391-2.271-.876Z"></path>
    <path class="j" d="M172.617,191.359l1.075-9.522,4.462.503c.599.067,1.117.239,1.554.513.438.274.761.628.969,1.059.208.433.284.907.225,1.424-.064.571-.303,1.057-.714,1.456-.413.399-.929.655-1.548.769.547.2.886.573,1.017,1.121l.905,3.574-1.415-.16-.823-3.33c-.108-.425-.389-.664-.842-.715l-3.101-.35-.43,3.809-1.333-.15ZM177.641,186.884c.536.061.974-.058,1.315-.354.341-.296.54-.69.595-1.18.057-.507-.058-.92-.343-1.237s-.682-.504-1.191-.562l-3.128-.353-.376,3.333,3.128.353Z"></path>
    <path class="j" d="M182.656,192.492l-1.375-.155,4.994-9.08,1.318.149,2.856,9.966-1.373-.155-.77-2.704-4.298-.485-1.354,2.465ZM186.749,185.033l-2.117,3.866,3.32.375-1.203-4.241Z"></path>
    <path class="j" d="M193.198,193.682l-1.333-.15,1.075-9.522,6.584.743-.136,1.21-5.251-.592-.329,2.911,4.87.549-.137,1.211-4.87-.549-.473,4.189Z"></path>
    <path class="j" d="M201.414,194.609l-1.333-.15,1.075-9.522,1.333.15-1.075,9.522Z"></path>
    <path class="j" d="M204.925,195.005l-1.334-.15,1.075-9.522,1.334.15-.565,5.006,5.257-4.476,1.701.192-4.213,3.52,3.396,6.032-1.632-.185-2.799-4.986-1.901,1.59-.319,2.829Z"></path>
    <path class="j" d="M212.909,195.907l1.075-9.522,3.388.382c.916.103,1.706.394,2.374.874.667.479,1.16,1.098,1.478,1.854.318.756.426,1.593.323,2.509-.105.935-.4,1.744-.881,2.428-.48.686-1.101,1.191-1.858,1.519-.759.328-1.595.44-2.511.337l-3.388-.382ZM216.528,195.089c.626.07,1.201-.019,1.725-.267.524-.248.952-.632,1.288-1.15.333-.517.54-1.125.619-1.824.073-.653.003-1.262-.213-1.829-.217-.566-.552-1.029-1.008-1.389-.455-.359-.991-.573-1.607-.643l-2.149-.243-.802,7.101,2.149.243Z"></path>
    <path class="j" d="M229.437,197.772l-6.692-.755,1.075-9.522,6.57.742-.136,1.21-5.251-.592-.315,2.789,4.733.534-.134,1.184-4.733-.534-.353,3.128,5.373.606-.137,1.21Z"></path>
    <path class="j" d="M232.796,197.923c-.597-.329-1.051-.745-1.361-1.249s-.45-1.061-.417-1.673l1.388.157c.007.588.243,1.082.708,1.478.465.397,1.101.641,1.908.732.68.077,1.214.006,1.602-.211.387-.218.607-.558.659-1.021.046-.408-.062-.737-.322-.987-.262-.25-.651-.487-1.167-.71l-1.562-.686c-.062-.025-.345-.149-.853-.372-.507-.223-.916-.558-1.223-1.006-.309-.448-.431-.953-.367-1.516.059-.517.244-.955.556-1.314.311-.36.728-.621,1.251-.782.523-.161,1.116-.205,1.779-.13,1.114.126,1.973.503,2.571,1.13.6.628.875,1.449.824,2.463l-1.359-.153c.025-.631-.155-1.146-.542-1.542-.387-.397-.949-.637-1.683-.72-.58-.065-1.058.002-1.434.203-.376.201-.588.51-.635.927-.034.299.025.549.177.75.152.201.328.354.526.459.2.105.527.257.982.455l1.444.631c.533.235.974.464,1.321.687.347.223.627.523.842.901.215.378.291.843.229,1.396-.096.844-.477,1.474-1.143,1.89-.667.416-1.535.563-2.605.442-.798-.09-1.497-.299-2.091-.629Z"></path>
    <path class="j" d="M241.298,199.11l-1.333-.15,1.075-9.522,1.333.15-1.075,9.522Z"></path>
    <path class="j" d="M245.268,199.104c-.635-.485-1.102-1.123-1.403-1.915-.301-.792-.396-1.682-.284-2.671.107-.952.392-1.776.851-2.473.459-.697,1.066-1.213,1.821-1.551.754-.337,1.608-.452,2.559-.344,1.215.137,2.186.591,2.912,1.361.725.771,1.121,1.761,1.187,2.972l-1.36-.153c-.079-.845-.373-1.529-.877-2.055-.506-.526-1.172-.835-1.997-.928-.671-.076-1.27.008-1.798.251-.529.244-.958.629-1.288,1.156-.331.528-.538,1.168-.623,1.92-.086.762-.028,1.441.175,2.039.204.597.529,1.075.976,1.433.446.358.986.573,1.621.645.544.061,1.038,0,1.482-.185.442-.184.798-.468,1.066-.851.269-.383.432-.838.491-1.364l-3.074-.347.129-1.143,3.307.373c.543.061.941.242,1.192.541.251.3.348.703.291,1.211l-.375,3.319-1.17-.132.354-3.128-.027-.003c-.216,1.014-.658,1.778-1.326,2.295-.671.518-1.516.718-2.542.602-.88-.1-1.636-.391-2.27-.876Z"></path>
    <path class="j" d="M255.514,200.715l-1.334-.15,1.075-9.522,1.483.167,4.282,8.198.86-7.618,1.32.149-1.075,9.522-1.483-.167-4.268-8.196-.86,7.618Z"></path>
    <path class="j" d="M187.159,404.367c-.262.331-.566.597-.91.8-.346.203-.803.429-1.374.678-.482.208-.867.392-1.156.55-.29.158-.543.358-.761.601-.218.242-.359.534-.423.874l4.37.493-.126,1.117-5.688-.642.093-.829c.062-.553.235-1.014.519-1.384.284-.371.609-.665.978-.882.367-.216.851-.46,1.45-.732.481-.208.864-.395,1.149-.557.286-.163.531-.362.736-.597.204-.236.325-.521.362-.856.05-.443-.056-.818-.318-1.123-.262-.305-.636-.485-1.122-.541-.535-.06-.998.062-1.389.366-.391.303-.626.769-.704,1.395l-1.294-.146c.108-.649.33-1.188.666-1.616.336-.428.75-.735,1.242-.921.492-.187,1.03-.246,1.616-.18.569.064,1.058.227,1.465.49.407.262.706.601.896,1.017.19.416.257.879.199,1.389-.056.495-.215.906-.477,1.237Z"></path>
    <path class="j" d="M189.72,409.399c-.474-.431-.811-1.007-1.012-1.729-.205-.723-.253-1.543-.149-2.464.102-.904.332-1.681.69-2.332.356-.651.812-1.133,1.364-1.449.553-.315,1.172-.434,1.859-.356.687.077,1.265.329,1.733.755.468.426.806.996,1.009,1.709s.253,1.527.15,2.439c-.103.912-.331,1.698-.685,2.357-.354.66-.811,1.149-1.367,1.467-.558.318-1.179.439-1.866.362-.678-.077-1.254-.33-1.726-.761ZM192.763,408.745c.359-.248.654-.621.89-1.121.234-.499.39-1.096.468-1.791.078-.687.058-1.295-.06-1.826-.119-.53-.324-.954-.62-1.271-.294-.318-.661-.501-1.095-.55-.436-.049-.83.048-1.183.292-.355.245-.651.612-.889,1.102-.236.49-.395,1.079-.472,1.765-.078.695-.056,1.312.064,1.851.122.54.328.969.619,1.291.289.321.652.506,1.087.555.435.049.833-.05,1.191-.298Z"></path>
    <rect class="d" x="91.186" y="119.873" width="175.835" height="274.27" rx="14.901" ry="14.901" transform="translate(72.799 -37.662) rotate(15.035)"></rect>
    <path class="j" d="M170.278,155.4c-.541-.415-.927-.894-1.159-1.438-.231-.544-.286-1.116-.162-1.716l1.349.362c-.082.583.078,1.105.479,1.567.399.462.992.798,1.777,1.009.661.178,1.199.188,1.615.03.415-.157.684-.461.805-.911.106-.396.049-.737-.171-1.023-.222-.287-.57-.579-1.048-.877l-1.44-.912c-.058-.035-.32-.2-.789-.496-.469-.295-.822-.688-1.06-1.178-.237-.489-.283-1.006-.136-1.553.135-.502.383-.907.746-1.217.361-.31.813-.505,1.354-.586.542-.081,1.134-.035,1.778.138,1.084.291,1.875.792,2.374,1.502.499.71.648,1.563.446,2.558l-1.321-.355c.119-.62.017-1.155-.306-1.606-.324-.451-.842-.772-1.556-.963-.564-.151-1.047-.156-1.449-.014-.403.143-.659.416-.767.821-.078.291-.057.547.062.769.121.221.272.398.453.532.182.134.482.333.903.597l1.333.84c.493.312.896.604,1.204.876.31.272.543.611.698,1.017.156.405.161.877.017,1.415-.221.819-.692,1.385-1.412,1.697-.723.312-1.603.327-2.643.048-.775-.208-1.434-.52-1.974-.934Z"></path>
    <path class="j" d="M180.69,158.431l-1.282-.345,2.17-8.078-3.16-.849.316-1.177,7.602,2.042-.316,1.177-3.159-.849-2.17,8.078Z"></path>
    <path class="j" d="M185.33,159.677l2.486-9.255,4.336,1.165c.582.156,1.069.403,1.46.739.392.337.658.735.8,1.193.141.458.145.939.01,1.441-.149.555-.458,1-.924,1.333-.467.333-1.017.509-1.645.528.51.279.79.699.837,1.26l.361,3.669-1.375-.37-.316-3.415c-.043-.438-.286-.715-.726-.833l-3.014-.81-.994,3.701-1.296-.348ZM190.966,156.002c.521.14.972.088,1.353-.154s.637-.601.765-1.078c.132-.493.08-.918-.154-1.274-.235-.356-.6-.6-1.094-.733l-3.04-.816-.87,3.238,3.04.817Z"></path>
    <path class="j" d="M195.088,162.297l-1.336-.359,6.294-8.231,1.281.345,1.335,10.28-1.335-.358-.357-2.789-4.177-1.122-1.706,2.234ZM200.249,155.534l-2.67,3.506,3.227.867-.556-4.373Z"></path>
    <path class="j" d="M206.523,165.369l-1.282-.345,2.17-8.077-3.159-.849.316-1.177,7.602,2.042-.316,1.177-3.16-.849-2.17,8.078Z"></path>
    <path class="j" d="M217.668,168.362l-6.505-1.747,2.486-9.254,6.386,1.715-.316,1.177-5.103-1.371-.728,2.71,4.601,1.235-.309,1.15-4.601-1.236-.816,3.041,5.222,1.403-.316,1.176Z"></path>
    <path class="j" d="M221.131,168.825c-.555-.574-.922-1.276-1.101-2.104-.18-.828-.141-1.722.117-2.683.249-.925.653-1.698,1.211-2.318.559-.621,1.237-1.041,2.033-1.262.796-.22,1.657-.207,2.582.042,1.181.317,2.073.911,2.676,1.782.602.871.845,1.91.729,3.117l-1.323-.355c.05-.847-.139-1.568-.559-2.163-.421-.596-1.034-1.001-1.835-1.216-.652-.176-1.257-.183-1.815-.021-.56.162-1.041.479-1.447.951-.405.472-.707,1.074-.903,1.806-.199.74-.242,1.421-.131,2.042.113.621.363,1.142.751,1.562.388.421.89.714,1.507.88.528.142,1.026.155,1.492.039.465-.115.86-.343,1.182-.682.322-.338.552-.764.689-1.274l-2.987-.803.298-1.11,3.213.863c.528.142.895.379,1.097.712.204.334.24.748.108,1.241l-.867,3.226-1.138-.306.817-3.04-.026-.007c-.365.97-.917,1.661-1.655,2.072-.74.411-1.606.482-2.602.215-.855-.229-1.559-.631-2.114-1.205Z"></path>
    <path class="j" d="M231.021,171.949l-1.296-.348,2.486-9.254,1.296.348-2.486,9.255Z"></path>
    <path class="j" d="M239.641,174.265l-6.504-1.747,2.486-9.255,6.386,1.715-.316,1.177-5.104-1.371-.728,2.71,4.601,1.236-.309,1.149-4.601-1.235-.816,3.041,5.222,1.402-.316,1.177Z"></path>
    <path class="j" d="M149.685,367.58c-.308.289-.649.506-1.019.655-.372.148-.858.304-1.46.465-.507.135-.916.258-1.225.371-.31.113-.59.273-.842.48-.251.207-.435.475-.549.802l4.247,1.141-.292,1.086-5.528-1.485.217-.806c.144-.537.384-.967.72-1.291.336-.324.701-.566,1.098-.726.396-.16.91-.329,1.542-.508.507-.134.913-.261,1.22-.379.307-.117.579-.278.817-.48.237-.202.399-.466.487-.792.115-.431.066-.818-.148-1.158-.214-.341-.556-.576-1.028-.702-.521-.14-.996-.089-1.429.153-.43.242-.733.667-.904,1.274l-1.257-.338c.203-.625.503-1.125.899-1.498.396-.373.853-.615,1.366-.726.514-.11,1.055-.09,1.625.063.553.148,1.011.383,1.375.703.363.32.608.7.735,1.139.125.44.122.908-.012,1.404-.129.48-.347.864-.656,1.152Z"></path>
    <path class="j" d="M153.512,366.9c-.556.444-1.277.547-2.164.309l-.135-.037.312-1.159.135.036c.635.17,1.154.168,1.559-.006.404-.175.674-.515.81-1.019l.033-.122,1.184.318-2.295,8.542-1.195-.321,1.757-6.542Z"></path>
    <rect class="h" x="74.451" y="88.795" width="175.835" height="274.27" rx="14.901" ry="14.901" transform="translate(65.861 -35.019) rotate(15.407)"></rect>
    <path class="j" d="M150.375,123.445l-1.294-.356,2.546-9.238,1.598.44,1.004,8.569,5.226-6.853,1.609.443-2.546,9.238-1.28-.353,1.931-7.008-4.781,6.222-1.188-.328-.896-7.772-1.928,6.994Z"></path>
    <path class="j" d="M161.237,126.439l-1.333-.368,6.348-8.19,1.279.353,1.269,10.289-1.332-.367-.339-2.792-4.17-1.149-1.721,2.224ZM166.443,119.709l-2.694,3.489,3.221.887-.526-4.376Z"></path>
    <path class="j" d="M170.17,128.901l2.546-9.238,4.329,1.193c.581.16,1.066.41,1.455.749.39.339.654.739.792,1.198.138.459.138.939,0,1.44-.153.555-.464.997-.933,1.327s-1.019.502-1.647.518c.509.283.785.704.829,1.266l.337,3.671-1.372-.378-.294-3.418c-.041-.437-.281-.716-.72-.837l-3.009-.83-1.019,3.695-1.294-.356ZM175.831,125.263c.52.143.971.095,1.354-.145.382-.239.641-.597.772-1.073.136-.492.087-.917-.146-1.275-.232-.357-.596-.604-1.089-.74l-3.035-.836-.891,3.233,3.035.836Z"></path>
    <path class="j" d="M180.611,131.778l-1.294-.356,2.546-9.238,1.294.356-1.338,4.856,5.891-3.602,1.65.455-4.71,2.82,2.415,6.488-1.584-.437-1.988-5.362-2.126,1.274-.756,2.745Z"></path>
    <path class="j" d="M194.85,135.702l-6.493-1.789,2.546-9.238,6.375,1.756-.324,1.174-5.095-1.404-.746,2.706,4.593,1.266-.316,1.148-4.593-1.266-.836,3.035,5.213,1.437-.324,1.175Z"></path>
    <path class="j" d="M200.315,137.208l-1.28-.353,2.222-8.064-3.154-.869.324-1.174,7.588,2.091-.324,1.174-3.153-.869-2.222,8.064Z"></path>
    <path class="j" d="M206.24,138.841l-1.294-.356,2.546-9.238,1.294.356-2.546,9.238Z"></path>
    <path class="j" d="M209.645,139.779l-1.294-.356,2.546-9.238,1.438.396,2.953,8.766,2.037-7.391,1.28.353-2.546,9.238-1.438-.396-2.939-8.762-2.037,7.391Z"></path>
    <path class="j" d="M219.993,142.162c-.551-.578-.913-1.281-1.087-2.11-.174-.829-.128-1.722.136-2.682.254-.923.664-1.694,1.226-2.31.562-.617,1.243-1.033,2.041-1.248.797-.215,1.658-.196,2.581.059,1.179.325,2.067.925,2.664,1.798.598.875.833,1.915.71,3.121l-1.32-.363c.053-.847-.129-1.569-.545-2.167-.418-.599-1.027-1.008-1.828-1.228-.651-.179-1.256-.19-1.815-.032-.561.158-1.043.472-1.453.941-.409.47-.713,1.069-.915,1.8-.204.739-.252,1.42-.144,2.041.109.622.355,1.144.741,1.567.384.423.885.719,1.501.889.528.146,1.025.162,1.492.049.465-.112.861-.337,1.186-.674.325-.336.558-.76.698-1.27l-2.982-.822.306-1.109,3.207.884c.527.145.893.385,1.093.72.202.335.235.749.099,1.241l-.888,3.221-1.136-.313.836-3.035-.026-.008c-.371.968-.927,1.655-1.668,2.061-.742.407-1.608.473-2.604.199-.854-.235-1.555-.641-2.106-1.219Z"></path>
    <path class="j" d="M131.128,336.004c-.31.286-.652.502-1.023.648-.374.146-.861.298-1.463.456-.508.131-.917.252-1.228.363-.31.111-.592.269-.845.475-.253.206-.438.471-.554.798l4.239,1.168-.299,1.084-5.519-1.521.221-.804c.148-.536.391-.965.729-1.287.338-.321.704-.561,1.103-.718.396-.157.913-.323,1.546-.498.508-.131.915-.255,1.222-.372.307-.116.58-.275.82-.475.238-.2.402-.464.492-.788.119-.431.072-.817-.14-1.159-.211-.343-.553-.579-1.024-.708-.52-.144-.995-.096-1.429.144-.433.239-.738.662-.913,1.269l-1.255-.346c.207-.624.51-1.122.909-1.493.398-.371.855-.61,1.37-.716.515-.107,1.057-.083,1.625.073.552.152,1.009.39,1.37.712s.604.704.727,1.144c.123.44.116.908-.02,1.403-.132.479-.353.862-.663,1.147Z"></path>
    <path class="j" d="M138.048,337.911c-.31.287-.652.502-1.024.648-.373.147-.86.298-1.462.456-.508.131-.917.252-1.228.363-.31.111-.592.27-.845.475-.253.206-.438.472-.554.798l4.239,1.168-.299,1.084-5.519-1.521.221-.804c.148-.536.391-.965.729-1.287.338-.322.704-.561,1.103-.718.396-.157.912-.323,1.546-.498.508-.131.915-.255,1.222-.372.307-.115.58-.274.819-.475.239-.201.403-.464.493-.789.119-.43.072-.817-.14-1.159s-.553-.579-1.024-.708c-.52-.143-.996-.095-1.429.144s-.738.662-.914,1.269l-1.255-.346c.208-.624.511-1.122.91-1.493.398-.37.855-.609,1.37-.716.515-.107,1.056-.083,1.625.074.552.152,1.009.39,1.37.712s.604.704.727,1.144c.123.44.116.909-.02,1.404-.132.479-.353.862-.663,1.147Z"></path>
    <rect class="l" x="59.424" y="62.84" width="175.835" height="274.27" rx="14.901" ry="14.901" transform="translate(60.155 -32.615) rotate(15.834)"></rect>
    <path class="j" d="M126.723,94.271c-.546-.581-.904-1.288-1.072-2.118-.168-.83-.116-1.724.156-2.681.261-.922.676-1.689,1.243-2.301.567-.612,1.251-1.023,2.05-1.233.8-.209,1.66-.183,2.582.078,1.176.334,2.06.94,2.65,1.819.59.879.819,1.921.686,3.125l-1.317-.373c.06-.846-.117-1.57-.53-2.171-.413-.601-1.019-1.014-1.818-1.241-.65-.184-1.255-.2-1.816-.046-.561.154-1.047.465-1.459.931-.412.467-.721,1.064-.928,1.793-.209.738-.263,1.418-.159,2.04.103.622.346,1.146.728,1.572s.881.726,1.495.901c.527.149,1.024.169,1.491.06.468-.109.865-.331,1.192-.665.327-.334.563-.756.708-1.265l-2.976-.844.314-1.106,3.2.908c.527.149.89.392,1.088.728.199.336.228.75.089,1.242l-.911,3.213-1.132-.321.859-3.029-.027-.008c-.378.965-.939,1.647-1.684,2.048s-1.613.46-2.605.179c-.852-.242-1.551-.653-2.097-1.235Z"></path>
    <path class="j" d="M135.278,97.167l2.615-9.219,4.32,1.225c.579.164,1.062.418,1.449.76.386.343.647.744.782,1.204s.131.94-.011,1.441c-.157.553-.471.993-.943,1.319-.472.327-1.022.495-1.652.506.507.286.78.71.82,1.272l.31,3.673-1.37-.388-.268-3.42c-.037-.437-.275-.718-.714-.843l-3.003-.852-1.046,3.688-1.291-.366ZM140.965,93.572c.518.147.969.102,1.354-.135s.645-.593.779-1.067c.139-.491.094-.917-.136-1.276s-.591-.609-1.082-.748l-3.029-.859-.915,3.227,3.029.859Z"></path>
    <path class="j" d="M144.998,99.923l-1.33-.377,6.408-8.143,1.277.362,1.192,10.299-1.33-.377-.318-2.794-4.162-1.18-1.737,2.211ZM150.253,93.232l-2.72,3.469,3.213.911-.494-4.38Z"></path>
    <path class="j" d="M155.204,102.818l-1.291-.366,2.615-9.219,6.374,1.808-.332,1.172-5.084-1.442-.799,2.818,4.715,1.337-.332,1.172-4.715-1.337-1.15,4.056Z"></path>
    <path class="j" d="M163.159,105.074l-1.291-.366,2.615-9.219,1.291.366-2.615,9.219Z"></path>
    <path class="j" d="M166.556,106.038l-1.291-.366,2.615-9.219,1.291.366-1.375,4.847,5.918-3.558,1.646.467-4.731,2.785,2.366,6.505-1.58-.448-1.947-5.376-2.136,1.258-.777,2.739Z"></path>
    <path class="j" d="M174.287,108.23l2.615-9.219,3.279.93c.887.252,1.62.668,2.2,1.25s.965,1.272,1.156,2.071c.191.799.16,1.642-.091,2.528-.256.904-.678,1.655-1.265,2.253-.587.597-1.281.995-2.082,1.195s-1.645.174-2.532-.078l-3.279-.93ZM177.991,108.014c.605.172,1.187.178,1.745.019.558-.16,1.043-.468,1.458-.924.414-.457.717-1.023.909-1.699.179-.632.208-1.245.088-1.839-.121-.594-.377-1.105-.768-1.534-.391-.429-.885-.728-1.482-.897l-2.081-.59-1.95,6.874,2.081.59Z"></path>
    <path class="j" d="M190.289,112.769l-6.48-1.838,2.615-9.219,6.361,1.804-.332,1.172-5.084-1.442-.766,2.7,4.584,1.3-.325,1.146-4.584-1.3-.859,3.029,5.202,1.475-.332,1.172Z"></path>
    <path class="j" d="M193.577,113.467c-.535-.422-.915-.907-1.138-1.454-.224-.547-.271-1.12-.139-1.719l1.343.381c-.089.582.063,1.107.457,1.574.394.467.981.812,1.763,1.033.658.187,1.196.204,1.614.052.418-.151.69-.451.817-.899.112-.395.059-.737-.157-1.026s-.562-.586-1.035-.891l-1.429-.932c-.056-.035-.317-.204-.781-.506-.465-.303-.812-.7-1.042-1.192-.23-.492-.268-1.01-.114-1.555.142-.501.396-.903.762-1.207.366-.303.821-.493,1.363-.566s1.134-.02,1.775.162c1.08.306,1.865.818,2.353,1.535.489.718.626,1.572.411,2.564l-1.317-.373c.128-.618.033-1.155-.284-1.61-.317-.455-.831-.783-1.542-.985-.562-.16-1.045-.171-1.449-.034-.404.137-.663.407-.778.811-.082.29-.065.546.052.769s.265.402.445.539c.179.136.477.339.894.609l1.322.859c.488.319.886.616,1.191.893.306.276.534.619.684,1.027s.149.879-.003,1.415c-.231.816-.71,1.376-1.436,1.677-.726.302-1.607.305-2.643.011-.773-.219-1.426-.539-1.961-.961Z"></path>
    <path class="j" d="M201.773,116.026l-1.291-.366,2.615-9.219,1.291.366-2.615,9.219Z"></path>
    <path class="j" d="M205.689,116.667c-.546-.581-.904-1.288-1.072-2.118-.168-.83-.116-1.724.156-2.681.261-.922.676-1.689,1.243-2.301.567-.612,1.251-1.023,2.05-1.233.8-.209,1.66-.183,2.582.078,1.176.334,2.06.94,2.65,1.819.59.879.819,1.921.686,3.125l-1.317-.373c.06-.846-.117-1.57-.53-2.171-.413-.601-1.019-1.014-1.818-1.241-.65-.184-1.255-.2-1.816-.046-.561.154-1.047.465-1.459.931-.412.467-.721,1.064-.928,1.793-.209.738-.263,1.418-.159,2.04.103.622.346,1.146.728,1.572s.881.726,1.495.901c.527.149,1.024.169,1.491.06.468-.109.865-.331,1.192-.665.327-.334.563-.756.708-1.265l-2.976-.844.314-1.106,3.2.908c.527.149.89.392,1.088.728.199.336.228.75.089,1.242l-.911,3.213-1.132-.321.859-3.029-.027-.008c-.378.965-.939,1.647-1.684,2.048s-1.613.46-2.605.179c-.852-.242-1.551-.653-2.097-1.235Z"></path>
    <path class="j" d="M215.535,119.929l-1.291-.366,2.615-9.219,1.436.407,2.886,8.787,2.092-7.375,1.277.362-2.615,9.219-1.436-.407-2.873-8.783-2.092,7.375Z"></path>
    <path class="j" d="M115.052,309.748c-.313.284-.656.497-1.029.641-.374.144-.863.292-1.466.445-.509.127-.919.245-1.23.354s-.594.265-.849.469-.442.468-.56.794l4.231,1.2-.307,1.082-5.507-1.562.228-.802c.152-.535.397-.962.738-1.281s.709-.556,1.108-.71c.398-.154.915-.316,1.55-.487.509-.127.917-.248,1.225-.362s.582-.27.823-.469c.24-.199.406-.46.498-.784.122-.43.079-.816-.131-1.16-.209-.344-.548-.582-1.018-.715-.519-.147-.995-.103-1.43.133-.435.236-.742.656-.923,1.262l-1.252-.355c.212-.623.519-1.118.921-1.486.402-.367.861-.603,1.376-.706s1.056-.075,1.624.086c.551.156,1.006.397,1.365.722.359.325.598.708.718,1.149.12.441.11.909-.03,1.403-.136.478-.36.859-.672,1.142Z"></path>
    <path class="j" d="M116.663,315.321c-.432-.376-.732-.821-.903-1.333-.17-.513-.189-1.065-.055-1.658l1.228.348c-.116.563-.025,1.059.274,1.489.298.431.76.734,1.383.911.576.163,1.074.156,1.497-.022.422-.178.698-.494.827-.948.126-.446.056-.845-.212-1.196s-.702-.613-1.302-.783l-1.215-.345.279-.985,1.215.345c.47.133.888.116,1.256-.051.367-.167.607-.449.72-.847.115-.405.059-.78-.167-1.124-.226-.344-.578-.584-1.057-.72-.494-.14-.951-.113-1.37.084s-.733.524-.941.981l-1.228-.348c.335-.78.855-1.331,1.559-1.653.704-.321,1.485-.36,2.345-.116.527.149.972.379,1.335.687.363.309.613.664.748,1.066s.143.818.021,1.247c-.14.495-.409.878-.806,1.151-.397.273-.86.4-1.389.381.577.313.983.704,1.217,1.173.235.47.274.98.118,1.531-.136.478-.383.866-.744,1.162-.36.297-.8.482-1.321.558-.52.076-1.085.027-1.693-.145-.648-.184-1.188-.464-1.62-.84Z"></path>
    <rect class="e" x="40.299" y="27.663" width="175.835" height="274.27" rx="14.901" ry="14.901" transform="translate(36.166 -22.618) rotate(11.726)"></rect>
    <path class="j" d="M113.542,63.869c-.564-.383-.977-.839-1.24-1.369-.263-.53-.35-1.098-.262-1.704l1.367.284c-.047.587.143,1.099.569,1.537.426.438,1.037.739,1.832.904.67.139,1.208.118,1.614-.064.406-.181.656-.5.751-.955.083-.402.006-.74-.23-1.012s-.602-.545-1.096-.815l-1.492-.828c-.059-.031-.331-.18-.815-.449-.485-.269-.86-.64-1.125-1.114-.265-.475-.34-.988-.225-1.543.106-.509.33-.929.673-1.259.343-.329.783-.55,1.319-.663s1.13-.101,1.782.034c1.099.228,1.918.682,2.457,1.363.539.681.737,1.523.594,2.528l-1.34-.278c.083-.626-.049-1.154-.398-1.586-.349-.431-.885-.722-1.608-.872-.572-.119-1.055-.095-1.448.07-.393.165-.632.454-.718.865-.061.295-.026.549.107.763s.293.382.483.506c.189.123.5.304.935.544l1.38.762c.51.283.927.551,1.252.805.325.254.577.579.755.975s.212.866.099,1.412c-.172.831-.61,1.423-1.312,1.776-.703.353-1.581.42-2.635.201-.786-.163-1.461-.436-2.025-.818Z"></path>
    <path class="j" d="M124.111,66.293l-1.3-.27,1.7-8.189-3.203-.665.248-1.193,7.707,1.6-.248,1.193-3.203-.665-1.7,8.189Z"></path>
    <path class="j" d="M128.816,67.269l1.947-9.383,4.397.913c.59.122,1.089.341,1.5.654.41.314.699.695.867,1.145s.198.929.093,1.438c-.117.563-.399,1.024-.846,1.383-.448.36-.984.567-1.611.623.526.249.829.653.909,1.21l.572,3.642-1.394-.289-.512-3.392c-.069-.433-.326-.697-.773-.79l-3.056-.634-.779,3.753-1.313-.273ZM134.231,63.276c.527.109.974.032,1.341-.232s.601-.637.701-1.12c.104-.5.028-.922-.227-1.263s-.633-.565-1.133-.668l-3.083-.64-.682,3.284,3.083.64Z"></path>
    <path class="j" d="M138.708,69.323l-1.354-.281,5.808-8.581,1.3.27,1.927,10.187-1.354-.281-.517-2.764-4.235-.879-1.574,2.33ZM143.471,62.272l-2.464,3.655,3.27.679-.806-4.334Z"></path>
    <path class="j" d="M150.302,71.729l-1.3-.27,1.7-8.189-3.203-.665.248-1.193,7.707,1.6-.248,1.193-3.203-.665-1.7,8.189Z"></path>
    <path class="j" d="M161.601,74.074l-6.595-1.369,1.947-9.383,6.474,1.344-.248,1.193-5.174-1.074-.57,2.748,4.665.968-.242,1.166-4.665-.968-.64,3.083,5.295,1.099-.248,1.193Z"></path>
    <path class="j" d="M165.084,74.335c-.587-.541-.994-1.22-1.221-2.036-.227-.816-.239-1.711-.037-2.685.195-.938.553-1.733,1.075-2.384.522-.651,1.174-1.11,1.956-1.377.783-.266,1.643-.302,2.581-.107,1.197.248,2.122.79,2.773,1.624.652.834.955,1.857.908,3.068l-1.34-.278c0-.848-.229-1.557-.684-2.127-.455-.57-1.089-.939-1.902-1.107-.662-.137-1.266-.109-1.815.084-.548.194-1.011.538-1.389,1.033-.378.495-.643,1.113-.797,1.855-.156.751-.16,1.433-.012,2.046.147.613.427,1.118.838,1.516s.93.661,1.556.791c.536.111,1.034.095,1.492-.047.459-.143.839-.393,1.141-.749.302-.357.508-.794.615-1.313l-3.029-.629.234-1.126,3.257.676c.536.111.916.328,1.138.648.222.321.281.732.177,1.233l-.679,3.27-1.152-.239.64-3.083-.027-.006c-.308.99-.819,1.711-1.532,2.164s-1.575.575-2.585.365c-.867-.18-1.593-.54-2.18-1.082Z"></path>
    <path class="j" d="M175.139,76.884l-1.313-.273,1.947-9.383,1.313.273-1.947,9.383Z"></path>
    <path class="j" d="M183.878,78.698l-6.595-1.369,1.947-9.383,6.474,1.344-.248,1.193-5.174-1.074-.57,2.748,4.665.968-.242,1.166-4.665-.968-.64,3.083,5.295,1.099-.248,1.193Z"></path>
    <path class="j" d="M104.049,276.639c-.292.305-.618.543-.98.713-.362.17-.839.353-1.43.549-.499.163-.899.31-1.202.441s-.573.307-.813.528-.407.498-.502.832l4.306.894-.229,1.101-5.605-1.163.169-.817c.113-.544.327-.988.644-1.331s.668-.606,1.054-.788c.386-.182.89-.381,1.511-.596.499-.163.897-.313,1.196-.449s.561-.311.787-.527c.225-.215.372-.488.441-.818.091-.437.02-.82-.213-1.148-.233-.328-.589-.541-1.067-.641-.528-.11-1-.031-1.417.235-.417.266-.694.708-.83,1.325l-1.275-.265c.167-.637.437-1.152.812-1.548.374-.395.816-.663,1.322-.803s1.048-.15,1.626-.03c.561.116,1.032.324,1.413.623.381.298.647.663.799,1.095.151.431.175.899.07,1.402-.101.487-.297.883-.588,1.188Z"></path>
    <path class="j" d="M109.224,282.946l-1.213-.252.431-2.079-4.256-.883.223-1.076,5.387-4.625,1.225.254-1.138,5.481,1.509.313-.229,1.101-1.509-.313-.431,2.079ZM109.462,275.704l-3.736,3.199,2.945.611.791-3.811Z"></path>
    <rect class="k" width="175.835" height="274.27" rx="14.901" ry="14.901"></rect>
    <path class="j" d="M49.129,41.52h-1.341v-9.583h1.656l3.244,7.995,3.217-7.995h1.67v9.583h-1.328v-7.269l-2.957,7.269h-1.232l-2.93-7.255v7.255Z"></path>
    <path class="j" d="M60.395,41.52h-1.383l3.943-9.583h1.328l3.957,9.583h-1.383l-1.068-2.601h-4.326l-1.068,2.601ZM63.626,33.648l-1.67,4.079h3.34l-1.67-4.079Z"></path>
    <path class="j" d="M69.662,41.52v-9.583h4.49c.602,0,1.136.112,1.602.335.465.224.826.539,1.081.945s.383.869.383,1.389c0,.575-.183,1.084-.548,1.526-.365.443-.848.755-1.451.938.566.137.945.47,1.136,1l1.3,3.45h-1.424l-1.191-3.217c-.155-.41-.461-.616-.917-.616h-3.121v3.833h-1.341ZM74.153,36.51c.538,0,.96-.167,1.266-.5s.459-.746.459-1.239c0-.511-.16-.908-.479-1.191s-.735-.424-1.245-.424h-3.149v3.354h3.149Z"></path>
    <path class="j" d="M80.491,41.52h-1.341v-9.583h1.341v5.038l4.723-5.038h1.711l-3.791,3.97,4.052,5.613h-1.643l-3.34-4.641-1.711,1.793v2.847Z"></path>
    <path class="j" d="M95.261,41.52h-6.735v-9.583h6.612v1.219h-5.284v2.806h4.764v1.191h-4.764v3.148h5.408v1.219Z"></path>
    <path class="j" d="M100.929,41.52h-1.328v-8.364h-3.272v-1.219h7.871v1.219h-3.272v8.364Z"></path>
    <path class="j" d="M107.075,41.52h-1.341v-9.583h1.341v9.583Z"></path>
    <path class="j" d="M110.607,41.52h-1.341v-9.583h1.492l5.175,7.666v-7.666h1.328v9.583h-1.492l-5.161-7.666v7.666Z"></path>
    <path class="j" d="M121.216,41.068c-.684-.41-1.221-.992-1.609-1.745-.388-.753-.582-1.627-.582-2.622,0-.958.189-1.809.568-2.553.378-.743.924-1.326,1.636-1.746.712-.42,1.547-.629,2.506-.629,1.223,0,2.238.342,3.045,1.027.808.684,1.312,1.624,1.513,2.82h-1.369c-.173-.83-.541-1.478-1.102-1.944-.561-.465-1.257-.698-2.088-.698-.676,0-1.262.15-1.759.451-.497.301-.881.733-1.15,1.294-.269.561-.404,1.221-.404,1.978,0,.767.134,1.436.404,2.006.269.57.645,1.008,1.129,1.314s1.045.459,1.684.459c.548,0,1.031-.117,1.451-.349.42-.233.741-.555.965-.965.224-.411.336-.881.336-1.41h-3.094v-1.15h3.326c.548,0,.963.135,1.246.404.283.269.424.66.424,1.171v3.34h-1.177v-3.149h-.028c-.1,1.031-.454,1.841-1.061,2.43s-1.426.883-2.457.883c-.885,0-1.67-.205-2.354-.616Z"></path>
    <path class="j" d="M86.824,251.553c-.224.358-.495.657-.815.897-.32.24-.75.516-1.289.828-.455.261-.818.486-1.087.676s-.499.417-.688.682-.297.571-.322.916h4.398v1.124h-5.724v-.834c0-.556.12-1.034.36-1.434s.531-.729.872-.986c.341-.257.794-.554,1.358-.891.455-.261.815-.488,1.08-.682s.486-.419.663-.676c.177-.257.265-.554.265-.891,0-.447-.147-.807-.442-1.081-.295-.274-.686-.41-1.175-.41-.539,0-.986.173-1.339.518-.354.346-.535.834-.543,1.466h-1.302c.034-.657.194-1.217.48-1.681.286-.463.664-.815,1.131-1.055s.996-.36,1.586-.36c.573,0,1.076.107,1.51.322.434.214.769.518,1.005.91.235.392.354.845.354,1.358,0,.497-.112.924-.335,1.282Z"></path>
    <path class="j" d="M89.971,256.494c-.476-.232-.864-.563-1.163-.992-.299-.429-.483-.931-.55-1.503h1.289c.067.522.288.939.663,1.251s.836.467,1.384.467c.589,0,1.061-.179,1.415-.537s.531-.824.531-1.396c0-.556-.175-1.013-.524-1.371-.35-.358-.811-.537-1.384-.537-.632,0-1.205.27-1.718.809h-1.365l.746-4.852h5.105v1.124h-4.081l-.442,2.805c.573-.615,1.276-.922,2.11-.922.539,0,1.022.124,1.447.373.426.248.756.596.992,1.042.235.447.354.952.354,1.517,0,.598-.133,1.131-.398,1.598-.266.468-.641.83-1.125,1.087s-1.042.385-1.674.385c-.598,0-1.135-.116-1.611-.347Z"></path>
  </g>
</svg>
