<?xml version="1.0" encoding="UTF-8"?>
<svg xmlns="http://www.w3.org/2000/svg" xmlns:xlink="http://www.w3.org/1999/xlink" id="b" viewBox="0 0 429.08 661.62">
  <defs>
    <style>.h{fill:url(#g);}.i{fill:url(#f);}.j{fill:url(#e);}.k{fill:url(#d);}.l{fill:#f5f5f6;}</style>
    <linearGradient id="d" x1="214.54" y1="661.62" x2="214.54" y2="0" gradientUnits="userSpaceOnUse">
      <stop offset="0" stop-color="#fe2a00" stop-opacity="0"></stop>
      <stop offset=".117" stop-color="#fe2a00" stop-opacity=".147"></stop>
      <stop offset=".611" stop-color="#fe2a00" stop-opacity=".755"></stop>
      <stop offset=".825" stop-color="#fe2a00"></stop>
    </linearGradient>
    <linearGradient id="e" x1="216.486" y1="660.972" x2="216.486" y2="154.122" gradientUnits="userSpaceOnUse">
      <stop offset="0" stop-color="#fe2a00" stop-opacity="0"></stop>
      <stop offset=".12" stop-color="#fe2a00" stop-opacity=".159"></stop>
      <stop offset=".471" stop-color="#fe2a00" stop-opacity=".607"></stop>
      <stop offset=".713" stop-color="#fe2a00" stop-opacity=".89"></stop>
      <stop offset=".825" stop-color="#fe2a00"></stop>
    </linearGradient>
    <linearGradient id="f" x1="216.486" y1="660.972" x2="216.486" y2="308.893" gradientUnits="userSpaceOnUse">
      <stop offset="0" stop-color="#fe2a00" stop-opacity="0"></stop>
      <stop offset=".266" stop-color="#fe2a00" stop-opacity=".357"></stop>
      <stop offset=".539" stop-color="#fe2a00" stop-opacity=".7"></stop>
      <stop offset=".732" stop-color="#fe2a00" stop-opacity=".916"></stop>
      <stop offset=".825" stop-color="#fe2a00"></stop>
    </linearGradient>
    <linearGradient id="g" x1="216.486" y1="660.972" x2="216.486" y2="440.903" gradientUnits="userSpaceOnUse">
      <stop offset="0" stop-color="#fe2a00" stop-opacity="0"></stop>
      <stop offset=".125" stop-color="#fe2a00" stop-opacity=".292"></stop>
      <stop offset=".297" stop-color="#fe2a00" stop-opacity=".669"></stop>
      <stop offset=".417" stop-color="#fe2a00" stop-opacity=".908"></stop>
      <stop offset=".474" stop-color="#fe2a00"></stop>
    </linearGradient>
  </defs>
  <g id="c">
    <path class="k" d="M214.54,0C96.054,0,0,148.108,0,330.81s96.054,330.81,214.54,330.81,214.54-148.108,214.54-330.81S333.026,0,214.54,0Z"></path>
    <path class="j" d="M216.486,154.122c-90.769,0-164.353,113.462-164.353,253.425s73.584,253.425,164.353,253.425,164.353-113.462,164.353-253.425-73.584-253.425-164.353-253.425Z"></path>
    <path class="i" d="M216.486,308.893c-63.052,0-114.167,78.815-114.167,176.039s51.115,176.039,114.167,176.039,114.167-78.815,114.167-176.039-51.115-176.039-114.167-176.039Z"></path>
    <path class="h" d="M216.486,440.903c-39.411,0-71.36,49.264-71.36,110.034s31.949,110.034,71.36,110.034,71.36-49.264,71.36-110.034-31.949-110.034-71.36-110.034Z"></path>
    <path class="l" d="M138.073,103.394h-1.862v-13.3h1.862v6.992l6.555-6.992h2.375l-5.263,5.51,5.624,7.79h-2.28l-4.636-6.441-2.375,2.489v3.952Z"></path>
    <path class="l" d="M150.604,102.767c-.982-.57-1.745-1.377-2.29-2.422-.545-1.045-.817-2.258-.817-3.639,0-1.33.263-2.511.789-3.543.525-1.032,1.279-1.84,2.261-2.422.981-.583,2.131-.874,3.449-.874,1.279,0,2.413.282,3.401.845.988.564,1.754,1.362,2.299,2.394.544,1.033.817,2.232.817,3.601,0,1.343-.263,2.537-.788,3.582-.526,1.045-1.28,1.862-2.261,2.451-.982.589-2.137.883-3.467.883-1.28,0-2.41-.285-3.392-.855ZM156.456,101.314c.703-.424,1.241-1.032,1.615-1.824s.561-1.72.561-2.784c0-1.039-.19-1.948-.57-2.727s-.918-1.38-1.615-1.805c-.697-.424-1.514-.636-2.451-.636s-1.751.212-2.442.636c-.69.425-1.222,1.026-1.596,1.805-.374.779-.561,1.688-.561,2.727,0,1.064.187,1.992.561,2.784.374.792.905,1.399,1.596,1.824.69.425,1.504.637,2.442.637s1.757-.212,2.46-.637Z"></path>
    <path class="l" d="M164.825,103.394h-1.862v-13.3h2.299l4.503,11.096,4.465-11.096h2.318v13.3h-1.843v-10.089l-4.104,10.089h-1.71l-4.066-10.07v10.07Z"></path>
    <path class="l" d="M181.469,103.394h-1.862v-13.3h2.299l4.503,11.096,4.465-11.096h2.318v13.3h-1.843v-10.089l-4.104,10.089h-1.71l-4.066-10.07v10.07Z"></path>
    <path class="l" d="M198.674,103.005c-.817-.411-1.441-.972-1.872-1.681s-.646-1.501-.646-2.375v-8.854h1.843v8.816c0,.938.333,1.672.998,2.204.665.532,1.51.798,2.536.798s1.872-.266,2.537-.798c.665-.532.998-1.267.998-2.204v-8.816h1.862v8.854c0,.861-.212,1.646-.637,2.356s-1.042,1.273-1.853,1.691-1.767.627-2.869.627c-1.115,0-2.081-.206-2.897-.618Z"></path>
    <path class="l" d="M211.717,103.394h-1.862v-13.3h2.071l7.182,10.64v-10.64h1.843v13.3h-2.071l-7.163-10.64v10.64Z"></path>
    <path class="l" d="M225.872,103.394h-1.862v-13.3h1.862v13.3Z"></path>
    <path class="l" d="M230.774,103.394h-1.862v-13.3h1.862v6.992l6.555-6.992h2.375l-5.263,5.51,5.624,7.79h-2.28l-4.636-6.441-2.375,2.489v3.952Z"></path>
    <path class="l" d="M242.782,103.394h-1.919l5.472-13.3h1.843l5.491,13.3h-1.919l-1.482-3.61h-6.004l-1.482,3.61ZM247.266,92.47l-2.318,5.662h4.636l-2.318-5.662Z"></path>
    <path class="l" d="M259.218,103.394h-1.843v-11.609h-4.541v-1.691h10.925v1.691h-4.541v11.609Z"></path>
    <path class="l" d="M267.748,103.394h-1.862v-13.3h1.862v13.3Z"></path>
    <path class="l" d="M273.287,102.767c-.982-.57-1.745-1.377-2.29-2.422-.545-1.045-.817-2.258-.817-3.639,0-1.33.263-2.511.789-3.543.525-1.032,1.279-1.84,2.261-2.422.981-.583,2.131-.874,3.449-.874,1.279,0,2.413.282,3.401.845.988.564,1.754,1.362,2.299,2.394.544,1.033.817,2.232.817,3.601,0,1.343-.263,2.537-.788,3.582-.526,1.045-1.28,1.862-2.261,2.451-.982.589-2.137.883-3.467.883-1.28,0-2.41-.285-3.392-.855ZM279.139,101.314c.703-.424,1.241-1.032,1.615-1.824s.561-1.72.561-2.784c0-1.039-.19-1.948-.57-2.727s-.918-1.38-1.615-1.805c-.697-.424-1.514-.636-2.451-.636s-1.751.212-2.442.636c-.69.425-1.222,1.026-1.596,1.805-.374.779-.561,1.688-.561,2.727,0,1.064.187,1.992.561,2.784.374.792.905,1.399,1.596,1.824.69.425,1.504.637,2.442.637s1.757-.212,2.46-.637Z"></path>
    <path class="l" d="M287.508,103.394h-1.862v-13.3h2.071l7.182,10.64v-10.64h1.843v13.3h-2.071l-7.163-10.64v10.64Z"></path>
    <path class="l" d="M171.988,253.881h-1.919l5.472-13.3h1.843l5.491,13.3h-1.919l-1.482-3.61h-6.004l-1.482,3.61ZM176.472,242.956l-2.318,5.662h4.636l-2.318-5.662Z"></path>
    <path class="l" d="M186.712,253.881h-1.862v-13.3h2.071l7.182,10.64v-10.64h1.843v13.3h-2.071l-7.163-10.64v10.64Z"></path>
    <path class="l" d="M201.438,253.254c-.95-.57-1.694-1.377-2.232-2.422-.539-1.045-.808-2.258-.808-3.639,0-1.33.263-2.511.789-3.543.525-1.032,1.282-1.84,2.271-2.422.988-.583,2.147-.874,3.477-.874,1.697,0,3.106.475,4.227,1.425,1.121.95,1.821,2.255,2.1,3.914h-1.9c-.241-1.152-.75-2.052-1.529-2.698-.779-.646-1.745-.969-2.897-.969-.938,0-1.751.209-2.442.627s-1.222,1.017-1.596,1.795c-.374.779-.561,1.694-.561,2.746,0,1.064.187,1.992.561,2.784.374.792.896,1.399,1.567,1.824.671.425,1.45.637,2.337.637.76,0,1.431-.162,2.014-.485.583-.323,1.029-.77,1.339-1.339.31-.57.465-1.222.465-1.957h-4.294v-1.596h4.617c.76,0,1.336.187,1.729.56.393.374.589.916.589,1.625v4.636h-1.634v-4.37h-.038c-.14,1.432-.63,2.556-1.473,3.373s-1.979,1.226-3.41,1.226c-1.229,0-2.318-.285-3.268-.855Z"></path>
    <path class="l" d="M223.307,253.881h-9.348v-13.3h9.177v1.691h-7.334v3.895h6.612v1.653h-6.612v4.37h7.505v1.691Z"></path>
    <path class="l" d="M225.682,253.881v-13.3h6.175c.786,0,1.482.142,2.09.427.608.285,1.08.681,1.416,1.188.335.507.503,1.089.503,1.748,0,.709-.238,1.343-.712,1.9-.475.558-1.112.957-1.91,1.197.886.152,1.596.52,2.128,1.102.532.583.798,1.286.798,2.109,0,.709-.177,1.339-.532,1.891-.355.551-.846.979-1.473,1.282-.627.304-1.346.456-2.156.456h-6.327ZM231.781,246.3c.658,0,1.193-.196,1.605-.589.411-.393.617-.906.617-1.539,0-.557-.187-1.017-.56-1.377-.374-.361-.858-.542-1.454-.542h-4.465v4.047h4.256ZM232.161,252.209c.621,0,1.124-.203,1.51-.608s.58-.925.58-1.558c0-.659-.222-1.175-.665-1.549-.443-.373-1.013-.56-1.71-.56h-4.351v4.275h4.636Z"></path>
    <path class="l" d="M241.081,253.254c-.982-.57-1.745-1.377-2.29-2.422-.545-1.045-.817-2.258-.817-3.639,0-1.33.263-2.511.789-3.543.525-1.032,1.279-1.84,2.261-2.422.981-.583,2.131-.874,3.449-.874,1.279,0,2.413.282,3.401.845.988.564,1.754,1.362,2.299,2.394.544,1.033.817,2.232.817,3.601,0,1.343-.263,2.537-.788,3.582-.526,1.045-1.28,1.862-2.261,2.451-.982.589-2.137.883-3.467.883-1.28,0-2.41-.285-3.392-.855ZM246.933,251.8c.703-.424,1.241-1.032,1.615-1.824s.561-1.72.561-2.784c0-1.039-.19-1.948-.57-2.727s-.918-1.38-1.615-1.805c-.697-.424-1.514-.636-2.451-.636s-1.751.212-2.442.636c-.69.425-1.222,1.026-1.596,1.805-.374.779-.561,1.688-.561,2.727,0,1.064.187,1.992.561,2.784.374.792.905,1.399,1.596,1.824.69.425,1.504.637,2.442.637s1.757-.212,2.46-.637Z"></path>
    <path class="l" d="M258.21,253.881h-1.843v-11.609h-4.541v-1.691h10.925v1.691h-4.541v11.609Z"></path>
    <path class="l" d="M189.173,399.178h-2.052l-3.762-13.3h1.919l2.983,10.564,2.926-10.564h1.786l2.964,10.583,2.964-10.583h1.919l-3.762,13.3h-2.052l-2.926-10.488-2.907,10.488Z"></path>
    <path class="l" d="M212.03,399.178h-9.348v-13.3h9.177v1.691h-7.334v3.895h6.612v1.653h-6.612v4.37h7.505v1.691Z"></path>
    <path class="l" d="M214.405,399.178v-13.3h6.232c.836,0,1.577.155,2.223.465.646.311,1.146.748,1.501,1.311.354.563.532,1.207.532,1.928,0,.798-.253,1.504-.76,2.119-.507.615-1.178,1.048-2.014,1.302.785.19,1.311.652,1.577,1.387l1.805,4.788h-1.976l-1.653-4.465c-.215-.57-.64-.855-1.273-.855h-4.332v5.32h-1.862ZM220.637,392.223c.747,0,1.333-.231,1.757-.693s.637-1.036.637-1.72c0-.709-.222-1.26-.665-1.653s-1.02-.589-1.729-.589h-4.37v4.655h4.37Z"></path>
    <path class="l" d="M233.063,399.178h-1.843v-11.609h-4.541v-1.691h10.925v1.691h-4.541v11.609Z"></path>
    <path class="l" d="M249.08,399.178h-9.348v-13.3h9.177v1.691h-7.334v3.895h6.612v1.653h-6.612v4.37h7.505v1.691Z"></path>
    <path class="l" d="M191.975,560.691h-1.976l-5.168-13.3h1.995l4.161,10.754,4.028-10.754h1.976l-5.016,13.3Z"></path>
    <path class="l" d="M200.697,560.691h-1.862v-13.3h1.862v13.3Z"></path>
    <path class="l" d="M206.016,560.377c-.874-.361-1.564-.865-2.071-1.511-.507-.646-.786-1.393-.836-2.242h1.938c.101.811.503,1.454,1.207,1.928.703.475,1.618.713,2.746.713.95,0,1.675-.181,2.175-.542.5-.361.75-.865.75-1.511,0-.57-.2-1.007-.599-1.311-.399-.304-.972-.57-1.719-.798l-2.261-.703c-.089-.025-.5-.152-1.235-.38-.735-.228-1.349-.627-1.843-1.197-.494-.57-.741-1.247-.741-2.033,0-.722.187-1.355.561-1.9.374-.544.909-.969,1.605-1.273.696-.304,1.507-.456,2.432-.456,1.558,0,2.799.386,3.724,1.159.925.773,1.432,1.862,1.52,3.268h-1.9c-.063-.874-.393-1.555-.988-2.042-.596-.487-1.406-.731-2.432-.731-.811,0-1.46.168-1.947.503-.488.336-.732.795-.732,1.377,0,.418.121.754.361,1.007.24.253.506.437.798.551.291.114.766.272,1.425.475l2.09.646c.772.241,1.416.488,1.928.741.513.254.947.624,1.302,1.112.354.488.532,1.118.532,1.891,0,1.178-.427,2.106-1.282,2.783-.855.678-2.03,1.017-3.524,1.017-1.115,0-2.109-.181-2.983-.542Z"></path>
    <path class="l" d="M217.93,560.691h-1.862v-13.3h1.862v13.3Z"></path>
    <path class="l" d="M223.468,560.064c-.982-.57-1.745-1.377-2.29-2.422-.545-1.045-.817-2.258-.817-3.639,0-1.33.263-2.511.789-3.543.525-1.032,1.279-1.84,2.261-2.422.981-.583,2.131-.874,3.449-.874,1.279,0,2.413.282,3.401.845.988.564,1.754,1.362,2.299,2.394.544,1.033.817,2.232.817,3.601,0,1.343-.263,2.537-.788,3.582-.526,1.045-1.28,1.862-2.261,2.451-.982.589-2.137.883-3.467.883-1.28,0-2.41-.285-3.392-.855ZM229.32,558.61c.703-.424,1.241-1.032,1.615-1.824s.561-1.72.561-2.784c0-1.039-.19-1.948-.57-2.727s-.918-1.38-1.615-1.805c-.697-.424-1.514-.636-2.451-.636s-1.751.212-2.442.636c-.69.425-1.222,1.026-1.596,1.805-.374.779-.561,1.688-.561,2.727,0,1.064.187,1.992.561,2.784.374.792.905,1.399,1.596,1.824.69.425,1.504.637,2.442.637s1.757-.212,2.46-.637Z"></path>
    <path class="l" d="M237.689,560.691h-1.862v-13.3h2.071l7.182,10.64v-10.64h1.843v13.3h-2.071l-7.163-10.64v10.64Z"></path>
  </g>
</svg>
