<?xml version="1.0" encoding="UTF-8"?>
<svg xmlns="http://www.w3.org/2000/svg" xmlns:xlink="http://www.w3.org/1999/xlink" id="b" viewBox="0 0 799.66 204.969">
  <defs>
    <style>.p,.q,.r,.s,.t,.u,.v{fill:none;}.w{fill:url(#k);}.x{fill:url(#j);}.y{fill:url(#i);}.z{fill:url(#m);}.aa{fill:url(#n);}.ab{fill:url(#l);}.q{stroke:url(#o);}.q,.r,.s,.t,.u,.v{stroke-linecap:round;stroke-miterlimit:10;stroke-width:3px;}.r{stroke:url(#h);}.s{stroke:url(#f);}.t{stroke:url(#g);}.u{stroke:url(#d);}.v{stroke:url(#e);}</style>
    <linearGradient id="d" x1="299.601" y1="544.216" x2="353.055" y2="544.216" gradientTransform="translate(-60.638 -457.386) rotate(133.263) scale(1 -1)" gradientUnits="userSpaceOnUse">
      <stop offset="0" stop-color="#fe2a00"></stop>
      <stop offset="1" stop-color="#0e36e6"></stop>
    </linearGradient>
    <linearGradient id="e" x1="-248.833" y1="314.968" x2="-221.193" y2="314.968" gradientTransform="translate(430.856 -25.015) rotate(-69.113) scale(1 -1)" xlink:href="#d"></linearGradient>
    <linearGradient id="f" x1="1112.54" y1="625.745" x2="1161.608" y2="625.745" gradientTransform="translate(592.799 -1126.871) rotate(114.061) scale(1 -1)" xlink:href="#d"></linearGradient>
    <linearGradient id="g" x1="991.955" y1="183.244" x2="1041.024" y2="183.244" gradientTransform="translate(1090.028 -43.612) rotate(-179.152) scale(1 -1)" xlink:href="#d"></linearGradient>
    <linearGradient id="h" x1="917.189" y1="225.281" x2="963.921" y2="225.281" gradientTransform="translate(164.015 -638.037) rotate(66.979) scale(1 -1)" xlink:href="#d"></linearGradient>
    <linearGradient id="i" x1="-324.814" y1="546.754" x2="-317.868" y2="546.754" gradientTransform="translate(520.559 -267.224) rotate(-103.689) scale(1 -1)" xlink:href="#d"></linearGradient>
    <linearGradient id="j" x1="-263.558" y1="502.682" x2="-256.612" y2="502.682" gradientTransform="translate(520.558 -267.224) rotate(-103.689) scale(1 -1)" xlink:href="#d"></linearGradient>
    <linearGradient id="k" x1="-259.602" y1="559.577" x2="-252.656" y2="559.577" gradientTransform="translate(520.557 -267.224) rotate(-103.689) scale(1 -1)" xlink:href="#d"></linearGradient>
    <linearGradient id="l" x1="-492.602" y1="-117.208" x2="-485.656" y2="-117.208" gradientTransform="translate(520.56 -267.228) rotate(-103.689) scale(1 -1)" xlink:href="#d"></linearGradient>
    <linearGradient id="m" x1="-58.029" y1="112.065" x2="-51.083" y2="112.065" gradientTransform="translate(626.225 18.476) rotate(167.364) scale(1 -1)" xlink:href="#d"></linearGradient>
    <linearGradient id="n" x1="-130.621" y1="147.783" x2="-123.675" y2="147.783" gradientTransform="translate(626.225 18.476) rotate(167.364) scale(1 -1)" xlink:href="#d"></linearGradient>
    <linearGradient id="o" x1="757.219" y1="118.608" x2="763.416" y2="91.038" gradientTransform="translate(0 206) scale(1 -1)" xlink:href="#d"></linearGradient>
  </defs>
  <g id="c">
    <path class="u" d="M124.104,129.959c-7.006-1.841-15.068,2.36-17.573,9.157s.903,15.225,7.429,18.37c3.211,1.548,7.915,1.381,9.402-1.859.993-2.164-.014-4.871-1.873-6.359s-4.357-1.943-6.737-1.884c-7.877.195-15.294,6.02-17.321,13.635-2.026,7.615,1.532,16.374,8.311,20.39"></path>
    <path class="v" d="M43.562,91.922c-2.282-4.34-2.818-9.567-1.466-14.28.631-2.2,1.716-4.356,3.526-5.756,1.81-1.4,4.451-1.878,6.428-.724,2.376,1.386,3.046,4.432,3.755,7.089s2.161,5.661,4.886,6.038c2.189.303,4.261-1.379,5.149-3.403s.863-4.313.823-6.522"></path>
    <path class="s" d="M691.424,138.215c2.215-.334,4.58.709,5.827,2.57s1.313,4.445.161,6.367c-1.41,2.354-4.539,4.13-4.09,6.838.712,4.297,8.874,3.114,9.997,7.322,1.026,3.847-5.355,6.747-4.347,10.599,1.057,4.038,8.124,2.594,10.295,6.16.96,1.577.573,3.65-.284,5.285s-2.127,3.022-3.013,4.641-1.349,3.661-.478,5.288c.872,1.627,3.477,2.25,4.588.776"></path>
    <path class="t" d="M93.351,104.995c1.18,1.904,1.153,4.489-.066,6.369s-3.568,2.958-5.788,2.658c-2.719-.368-5.585-2.543-7.896-1.064-3.668,2.348.636,9.383-2.789,12.074-3.131,2.46-8.312-2.263-11.455.183-3.295,2.563.818,8.489-1.604,11.889-1.071,1.503-3.129,1.965-4.969,1.822s-3.616-.764-5.453-.94-3.896.203-5.048,1.645-.697,4.082,1.095,4.523"></path>
    <path class="r" d="M717.207,128.131c2.019-5.008,8.37-7.476,13.522-5.861,5.153,1.615,8.82,6.631,9.658,11.965.488,3.104-.174,6.857-3.264,8.086-1.346.535-2.89.373-4.155-.332-3.743-2.086-3.48-6.98-.913-9.595,1.907-1.943,4.856-2.666,7.538-2.195s5.091,2.027,6.943,4.022c1.852,1.995,3.189,4.414,4.297,6.901,1.58,3.546,2.742,7.559,1.452,11.274-.695,2.002-2.212,3.662-4.162,4.491-5.23,2.222-8.799-3.087-7.642-7.205.84-2.991,3.744-5.14,6.821-5.576s6.232.649,8.757,2.461,4.484,4.302,6.182,6.905"></path>
    <path class="y" d="M62.007,175.201h0c-.454-1.864.689-3.742,2.552-4.196h0c1.864-.454,3.742.689,4.196,2.552h0c.454,1.864-.689,3.742-2.552,4.196h0c-1.864.454-3.742-.689-4.196-2.552Z"></path>
    <path class="x" d="M90.331,105.255h0c-.454-1.864.689-3.742,2.552-4.196h0c1.864-.454,3.742.689,4.196,2.552h0c.454,1.864-.689,3.742-2.552,4.196h0c-1.864.454-3.742-.689-4.196-2.552Z"></path>
    <path class="w" d="M34.115,114.876h0c-.454-1.864.689-3.742,2.552-4.196h0c1.864-.454,3.742.689,4.196,2.552h0c.454,1.864-.689,3.742-2.552,4.196h0c-1.864.454-3.742-.689-4.196-2.552Z"></path>
    <path class="ab" d="M746.818,181.091h0c-.454-1.864.689-3.742,2.552-4.196h0c1.864-.454,3.742.689,4.196,2.552h0c.454,1.864-.689,3.742-2.552,4.196h0c-1.864.454-3.742-.689-4.196-2.552Z"></path>
    <path class="z" d="M704.734,119.281h0c-1.872.42-3.729-.758-4.149-2.629h0c-.42-1.872.758-3.729,2.629-4.149h0c1.872-.42,3.729.758,4.149,2.629h0c.42,1.872-.758,3.729-2.629,4.149Z"></path>
    <path class="aa" d="M783.382,138.254h0c-1.872.42-3.729-.758-4.149-2.629h0c-.42-1.872.758-3.729,2.629-4.149h0c1.872-.42,3.729.758,4.149,2.629h0c.42,1.872-.758,3.729-2.629,4.149Z"></path>
    <path class="q" d="M738.416,93.156c1.383,5.31,7.362,8.95,12.714,7.74,2.751-.622,5.1-2.471,6.594-4.854,2.214-3.531-2.94-7.192-5.472-3.882-1.077,1.407-1.802,3.095-2.007,4.85-.527,4.513,1.967,9.057,5.679,11.677s8.451,3.489,12.983,3.161,8.908-1.768,13.137-3.426"></path>
    <rect class="p" width="799.66" height="204.969"></rect>
  </g>
</svg>
