<?xml version="1.0" encoding="UTF-8"?><svg id="b" xmlns="http://www.w3.org/2000/svg" xmlns:xlink="http://www.w3.org/1999/xlink" viewBox="0 0 96 84"><defs><style>.l{stroke:url(#f);}.l,.m,.n,.o{fill:none;stroke-linecap:round;stroke-miterlimit:10;}.m{stroke:url(#d);}.n{stroke:url(#e);}.o{stroke:#fe2a00;}.p{fill:url(#j);}.p,.q,.r,.s,.t{stroke-width:0px;}.q{fill:url(#i);}.r{fill:url(#h);}.s{fill:url(#g);}.t{fill:url(#k);}</style><linearGradient id="d" x1="36" y1="0" x2="36" y2="15" gradientUnits="userSpaceOnUse"><stop offset=".374" stop-color="#fe2a00"/><stop offset=".443" stop-color="#fe2a00" stop-opacity=".982"/><stop offset=".519" stop-color="#fe2a00" stop-opacity=".929"/><stop offset=".6" stop-color="#fe2a00" stop-opacity=".84"/><stop offset=".684" stop-color="#fe2a00" stop-opacity=".717"/><stop offset=".769" stop-color="#fe2a00" stop-opacity=".558"/><stop offset=".857" stop-color="#fe2a00" stop-opacity=".363"/><stop offset=".944" stop-color="#fe2a00" stop-opacity=".137"/><stop offset=".992" stop-color="#fe2a00" stop-opacity="0"/></linearGradient><linearGradient id="e" x1="52" y1="1" x2="52" xlink:href="#d"/><linearGradient id="f" x1="20" y1="1" x2="20" xlink:href="#d"/><linearGradient id="g" x1="25.25" y1="72.541" x2="56.434" y2="18.757" gradientUnits="userSpaceOnUse"><stop offset="0" stop-color="#fe2a00"/><stop offset=".163" stop-color="#fe2a00" stop-opacity=".988"/><stop offset=".285" stop-color="#fe2a00" stop-opacity=".95"/><stop offset=".394" stop-color="#fe2a00" stop-opacity=".887"/><stop offset=".495" stop-color="#fe2a00" stop-opacity=".797"/><stop offset=".591" stop-color="#fe2a00" stop-opacity=".68"/><stop offset=".684" stop-color="#fe2a00" stop-opacity=".537"/><stop offset=".773" stop-color="#fe2a00" stop-opacity=".368"/><stop offset=".857" stop-color="#fe2a00" stop-opacity=".176"/><stop offset=".925" stop-color="#fe2a00" stop-opacity="0"/></linearGradient><radialGradient id="h" cx="46.712" cy="47.926" fx="46.712" fy="47.926" r="36.694" gradientUnits="userSpaceOnUse"><stop offset="0" stop-color="#fe2a00" stop-opacity="0"/><stop offset=".285" stop-color="#fe2a00" stop-opacity=".009"/><stop offset=".423" stop-color="#fe2a00" stop-opacity=".038"/><stop offset=".529" stop-color="#fe2a00" stop-opacity=".09"/><stop offset=".619" stop-color="#fe2a00" stop-opacity=".163"/><stop offset=".699" stop-color="#fe2a00" stop-opacity=".258"/><stop offset=".771" stop-color="#fe2a00" stop-opacity=".374"/><stop offset=".839" stop-color="#fe2a00" stop-opacity=".514"/><stop offset=".901" stop-color="#fe2a00" stop-opacity=".675"/><stop offset=".959" stop-color="#fe2a00" stop-opacity=".852"/><stop offset="1" stop-color="#fe2a00"/></radialGradient><radialGradient id="i" cx="38.613" cy="42.479" fx="38.613" fy="42.479" r="36.694" xlink:href="#h"/><linearGradient id="j" x1="68.118" y1="38.398" x2="61.528" y2="-4.957" gradientUnits="userSpaceOnUse"><stop offset="0" stop-color="#fe2a00"/><stop offset=".046" stop-color="#fe2a00" stop-opacity=".822"/><stop offset=".097" stop-color="#fe2a00" stop-opacity=".651"/><stop offset=".155" stop-color="#fe2a00" stop-opacity=".495"/><stop offset=".216" stop-color="#fe2a00" stop-opacity=".361"/><stop offset=".283" stop-color="#fe2a00" stop-opacity=".248"/><stop offset=".358" stop-color="#fe2a00" stop-opacity=".156"/><stop offset=".444" stop-color="#fe2a00" stop-opacity=".086"/><stop offset=".546" stop-color="#fe2a00" stop-opacity=".037"/><stop offset=".683" stop-color="#fe2a00" stop-opacity=".008"/><stop offset="1" stop-color="#fe2a00" stop-opacity="0"/></linearGradient><linearGradient id="k" x1="57" y1="26.037" x2="57" y2="23.794" gradientUnits="userSpaceOnUse"><stop offset="0" stop-color="#fe2a00"/><stop offset="1" stop-color="#fe2a00" stop-opacity="0"/></linearGradient></defs><g id="c"><line class="m" x1="36" y1=".5" x2="36" y2="14.5"/><line class="n" x1="48" y1="14.5" x2="56" y2="1.5"/><line class="l" x1="16" y1="1.5" x2="24" y2="14.5"/><path class="s" d="m36,24c-16.569,0-30,13.431-30,30s13.431,30,30,30,30-13.431,30-30-13.431-30-30-30Zm0,52c-12.15,0-22-9.85-22-22s9.85-22,22-22,22,9.85,22,22-9.85,22-22,22Z"/><circle class="r" cx="36" cy="54" r="24"/><circle class="q" cx="36" cy="54" r="24"/><circle class="o" cx="3.5" cy="54" r="3"/><path class="p" d="m95,24h-33l-1,2h-8l-1-2h-16c12.568,0,23.324,7.732,27.789,18.695l29.371-9.834c1.687-.511,2.84-2.066,2.84-3.828v-4.032c0-.552-.448-1-1-1Z"/><polygon class="t" points="61 26 62 24 52 24 53 26 61 26"/></g></svg>