<?xml version="1.0" encoding="UTF-8"?><svg id="b" xmlns="http://www.w3.org/2000/svg" xmlns:xlink="http://www.w3.org/1999/xlink" viewBox="0 0 96 90"><defs><style>.v{stroke:url(#n);}.v,.w,.x{fill:none;}.v,.x{stroke-linecap:round;stroke-miterlimit:10;}.w,.y,.z,.aa,.ab,.ac,.ad,.ae,.af,.ag,.ah,.ai,.aj,.ak,.al,.am,.an,.ao{stroke-width:0px;}.x{stroke:#fe2a00;}.y{fill:url(#e);}.z{fill:url(#u);}.aa{fill:url(#t);}.ab{fill:url(#f);}.ac{fill:url(#d);}.ad{fill:url(#s);}.ae{fill:url(#j);}.af{fill:url(#q);}.ag{fill:url(#r);}.ah{fill:url(#i);}.ai{fill:url(#h);}.aj{fill:url(#m);}.ak{fill:url(#g);}.al{fill:url(#o);}.am{fill:url(#p);}.an{fill:url(#k);}.ao{fill:url(#l);}</style><linearGradient id="d" x1="92.811" y1="64.576" x2="60.662" y2="54.693" gradientUnits="userSpaceOnUse"><stop offset="0" stop-color="#fe2a00"/><stop offset=".121" stop-color="#fe2a00" stop-opacity=".771"/><stop offset=".245" stop-color="#fe2a00" stop-opacity=".569"/><stop offset=".371" stop-color="#fe2a00" stop-opacity=".394"/><stop offset=".496" stop-color="#fe2a00" stop-opacity=".252"/><stop offset=".622" stop-color="#fe2a00" stop-opacity=".142"/><stop offset=".748" stop-color="#fe2a00" stop-opacity=".063"/><stop offset=".874" stop-color="#fe2a00" stop-opacity=".016"/><stop offset="1" stop-color="#fe2a00" stop-opacity="0"/></linearGradient><linearGradient id="e" x1="83.325" y1="10.672" x2="45.779" y2="71.187" gradientUnits="userSpaceOnUse"><stop offset="0" stop-color="#fe2a00"/><stop offset=".04" stop-color="#fe2a00" stop-opacity=".859"/><stop offset=".098" stop-color="#fe2a00" stop-opacity=".681"/><stop offset=".162" stop-color="#fe2a00" stop-opacity=".518"/><stop offset=".231" stop-color="#fe2a00" stop-opacity=".378"/><stop offset=".305" stop-color="#fe2a00" stop-opacity=".26"/><stop offset=".385" stop-color="#fe2a00" stop-opacity=".164"/><stop offset=".476" stop-color="#fe2a00" stop-opacity=".091"/><stop offset=".583" stop-color="#fe2a00" stop-opacity=".039"/><stop offset=".721" stop-color="#fe2a00" stop-opacity=".009"/><stop offset="1" stop-color="#fe2a00" stop-opacity="0"/></linearGradient><linearGradient id="f" x1="52.677" y1="71.366" x2="57.558" y2="30.179" gradientUnits="userSpaceOnUse"><stop offset="0" stop-color="#fe2a00"/><stop offset=".007" stop-color="#fe2a00" stop-opacity=".968"/><stop offset=".047" stop-color="#fe2a00" stop-opacity=".787"/><stop offset=".092" stop-color="#fe2a00" stop-opacity=".617"/><stop offset=".141" stop-color="#fe2a00" stop-opacity=".469"/><stop offset=".194" stop-color="#fe2a00" stop-opacity=".341"/><stop offset=".253" stop-color="#fe2a00" stop-opacity=".234"/><stop offset=".319" stop-color="#fe2a00" stop-opacity=".147"/><stop offset=".397" stop-color="#fe2a00" stop-opacity=".081"/><stop offset=".493" stop-color="#fe2a00" stop-opacity=".034"/><stop offset=".627" stop-color="#fe2a00" stop-opacity=".007"/><stop offset="1" stop-color="#fe2a00" stop-opacity="0"/></linearGradient><linearGradient id="g" x1="18.137" y1="68.127" x2="45.229" y2="10.851" gradientUnits="userSpaceOnUse"><stop offset="0" stop-color="#fe2a00"/><stop offset=".063" stop-color="#fe2a00" stop-opacity=".854"/><stop offset=".159" stop-color="#fe2a00" stop-opacity=".656"/><stop offset=".261" stop-color="#fe2a00" stop-opacity=".48"/><stop offset=".365" stop-color="#fe2a00" stop-opacity=".332"/><stop offset=".473" stop-color="#fe2a00" stop-opacity=".211"/><stop offset=".586" stop-color="#fe2a00" stop-opacity=".118"/><stop offset=".705" stop-color="#fe2a00" stop-opacity=".052"/><stop offset=".836" stop-color="#fe2a00" stop-opacity=".012"/><stop offset="1" stop-color="#fe2a00" stop-opacity="0"/></linearGradient><linearGradient id="h" x1="4.519" y1="58.159" x2="54.837" y2="52.582" gradientUnits="userSpaceOnUse"><stop offset="0" stop-color="#fe2a00"/><stop offset=".195" stop-color="#fe2a00" stop-opacity=".742"/><stop offset=".412" stop-color="#fe2a00" stop-opacity=".481"/><stop offset=".609" stop-color="#fe2a00" stop-opacity=".274"/><stop offset=".779" stop-color="#fe2a00" stop-opacity=".125"/><stop offset=".915" stop-color="#fe2a00" stop-opacity=".033"/><stop offset="1" stop-color="#fe2a00" stop-opacity="0"/></linearGradient><radialGradient id="i" cx="24.071" cy="56" fx="24.071" fy="56" r="19.986" gradientUnits="userSpaceOnUse"><stop offset=".372" stop-color="#fe2a00"/><stop offset=".533" stop-color="#fe2a00" stop-opacity=".991"/><stop offset=".619" stop-color="#fe2a00" stop-opacity=".96"/><stop offset=".688" stop-color="#fe2a00" stop-opacity=".906"/><stop offset=".747" stop-color="#fe2a00" stop-opacity=".83"/><stop offset=".801" stop-color="#fe2a00" stop-opacity=".732"/><stop offset=".85" stop-color="#fe2a00" stop-opacity=".61"/><stop offset=".896" stop-color="#fe2a00" stop-opacity=".466"/><stop offset=".939" stop-color="#fe2a00" stop-opacity=".298"/><stop offset=".978" stop-color="#fe2a00" stop-opacity=".114"/><stop offset="1" stop-color="#fe2a00" stop-opacity="0"/></radialGradient><radialGradient id="j" cx="23.371" cy="57.201" fx="23.371" fy="57.201" r="7.639" gradientUnits="userSpaceOnUse"><stop offset=".004" stop-color="#fe2a00" stop-opacity="0"/><stop offset=".376" stop-color="#fe2a00" stop-opacity=".007"/><stop offset=".509" stop-color="#fe2a00" stop-opacity=".034"/><stop offset=".605" stop-color="#fe2a00" stop-opacity=".081"/><stop offset=".682" stop-color="#fe2a00" stop-opacity=".147"/><stop offset=".748" stop-color="#fe2a00" stop-opacity=".234"/><stop offset=".806" stop-color="#fe2a00" stop-opacity=".341"/><stop offset=".859" stop-color="#fe2a00" stop-opacity=".469"/><stop offset=".908" stop-color="#fe2a00" stop-opacity=".617"/><stop offset=".953" stop-color="#fe2a00" stop-opacity=".787"/><stop offset=".993" stop-color="#fe2a00" stop-opacity=".968"/><stop offset="1" stop-color="#fe2a00"/></radialGradient><radialGradient id="k" cx="76.681" cy="58.595" fx="76.681" fy="58.595" r="16.663" gradientUnits="userSpaceOnUse"><stop offset="0" stop-color="#fe2a00" stop-opacity="0"/><stop offset=".373" stop-color="#fe2a00" stop-opacity=".007"/><stop offset=".507" stop-color="#fe2a00" stop-opacity=".034"/><stop offset=".603" stop-color="#fe2a00" stop-opacity=".081"/><stop offset=".681" stop-color="#fe2a00" stop-opacity=".147"/><stop offset=".747" stop-color="#fe2a00" stop-opacity=".234"/><stop offset=".806" stop-color="#fe2a00" stop-opacity=".341"/><stop offset=".859" stop-color="#fe2a00" stop-opacity=".469"/><stop offset=".908" stop-color="#fe2a00" stop-opacity=".617"/><stop offset=".953" stop-color="#fe2a00" stop-opacity=".787"/><stop offset=".993" stop-color="#fe2a00" stop-opacity=".968"/><stop offset="1" stop-color="#fe2a00"/></radialGradient><linearGradient id="l" x1="18.039" y1="16.007" x2="20.186" y2="11.665" gradientUnits="userSpaceOnUse"><stop offset="0" stop-color="#fe2a00"/><stop offset=".133" stop-color="#fe2a00" stop-opacity=".893"/><stop offset=".418" stop-color="#fe2a00" stop-opacity=".618"/><stop offset=".832" stop-color="#fe2a00" stop-opacity=".184"/><stop offset="1" stop-color="#fe2a00" stop-opacity="0"/></linearGradient><linearGradient id="m" x1="11.121" y1="11.686" x2="16.669" y2="11.28" gradientUnits="userSpaceOnUse"><stop offset="0" stop-color="#fe2a00"/><stop offset=".127" stop-color="#fe2a00" stop-opacity=".85"/><stop offset=".451" stop-color="#fe2a00" stop-opacity=".491"/><stop offset=".714" stop-color="#fe2a00" stop-opacity=".226"/><stop offset=".903" stop-color="#fe2a00" stop-opacity=".063"/><stop offset="1" stop-color="#fe2a00" stop-opacity="0"/></linearGradient><linearGradient id="n" x1="22.5" y1="56" x2="82.5" y2="56" gradientUnits="userSpaceOnUse"><stop offset="0" stop-color="#fe2a00" stop-opacity="0"/><stop offset=".048" stop-color="#fe2a00" stop-opacity=".019"/><stop offset=".104" stop-color="#fe2a00" stop-opacity=".074"/><stop offset=".163" stop-color="#fe2a00" stop-opacity=".166"/><stop offset=".226" stop-color="#fe2a00" stop-opacity=".294"/><stop offset=".29" stop-color="#fe2a00" stop-opacity=".459"/><stop offset=".356" stop-color="#fe2a00" stop-opacity=".661"/><stop offset=".423" stop-color="#fe2a00" stop-opacity=".895"/><stop offset=".45" stop-color="#fe2a00"/></linearGradient><linearGradient id="o" x1="94.191" y1="24.77" x2="74.367" y2="18.064" gradientUnits="userSpaceOnUse"><stop offset="0" stop-color="#fe2a00"/><stop offset=".004" stop-color="#fe2a00" stop-opacity=".992"/><stop offset=".124" stop-color="#fe2a00" stop-opacity=".762"/><stop offset=".248" stop-color="#fe2a00" stop-opacity=".559"/><stop offset=".371" stop-color="#fe2a00" stop-opacity=".388"/><stop offset=".495" stop-color="#fe2a00" stop-opacity=".248"/><stop offset=".619" stop-color="#fe2a00" stop-opacity=".139"/><stop offset=".744" stop-color="#fe2a00" stop-opacity=".062"/><stop offset=".871" stop-color="#fe2a00" stop-opacity=".015"/><stop offset="1" stop-color="#fe2a00" stop-opacity="0"/></linearGradient><linearGradient id="p" x1="81.5" y1="29.479" x2="81.5" y2="44.792" gradientUnits="userSpaceOnUse"><stop offset="0" stop-color="#fe2a00"/><stop offset=".146" stop-color="#fe2a00" stop-opacity=".809"/><stop offset=".382" stop-color="#fe2a00" stop-opacity=".525"/><stop offset=".594" stop-color="#fe2a00" stop-opacity=".299"/><stop offset=".774" stop-color="#fe2a00" stop-opacity=".137"/><stop offset=".915" stop-color="#fe2a00" stop-opacity=".037"/><stop offset="1" stop-color="#fe2a00" stop-opacity="0"/></linearGradient><linearGradient id="q" x1="83.933" y1="23.81" x2="83.933" y2="17.957" xlink:href="#d"/><linearGradient id="r" x1="24.103" y1="22.441" x2="17.941" y2="41.355" gradientUnits="userSpaceOnUse"><stop offset="0" stop-color="#fe2a00"/><stop offset=".096" stop-color="#fe2a00" stop-opacity=".858"/><stop offset=".286" stop-color="#fe2a00" stop-opacity=".601"/><stop offset=".467" stop-color="#fe2a00" stop-opacity=".386"/><stop offset=".633" stop-color="#fe2a00" stop-opacity=".219"/><stop offset=".783" stop-color="#fe2a00" stop-opacity=".099"/><stop offset=".91" stop-color="#fe2a00" stop-opacity=".026"/><stop offset="1" stop-color="#fe2a00" stop-opacity="0"/></linearGradient><linearGradient id="s" x1="8.844" y1="85.503" x2="22.095" y2="55.04" gradientUnits="userSpaceOnUse"><stop offset="0" stop-color="#fe2a00"/><stop offset=".011" stop-color="#fe2a00" stop-opacity=".969"/><stop offset=".088" stop-color="#fe2a00" stop-opacity=".768"/><stop offset=".17" stop-color="#fe2a00" stop-opacity=".585"/><stop offset=".255" stop-color="#fe2a00" stop-opacity=".428"/><stop offset=".345" stop-color="#fe2a00" stop-opacity=".295"/><stop offset=".441" stop-color="#fe2a00" stop-opacity=".187"/><stop offset=".544" stop-color="#fe2a00" stop-opacity=".104"/><stop offset=".659" stop-color="#fe2a00" stop-opacity=".045"/><stop offset=".794" stop-color="#fe2a00" stop-opacity=".011"/><stop offset="1" stop-color="#fe2a00" stop-opacity="0"/></linearGradient><linearGradient id="t" x1="89.49" y1="86.016" x2="82.101" y2="70.627" gradientUnits="userSpaceOnUse"><stop offset="0" stop-color="#fe2a00"/><stop offset=".121" stop-color="#fe2a00" stop-opacity=".984"/><stop offset=".246" stop-color="#fe2a00" stop-opacity=".935"/><stop offset=".374" stop-color="#fe2a00" stop-opacity=".853"/><stop offset=".502" stop-color="#fe2a00" stop-opacity=".739"/><stop offset=".631" stop-color="#fe2a00" stop-opacity=".592"/><stop offset=".762" stop-color="#fe2a00" stop-opacity=".412"/><stop offset=".89" stop-color="#fe2a00" stop-opacity=".203"/><stop offset="1" stop-color="#fe2a00" stop-opacity="0"/></linearGradient><linearGradient id="u" x1="64.306" y1="50.286" x2="30.589" y2="59.563" xlink:href="#e"/></defs><g id="c"><path class="ac" d="m76,38c-4.918,0-29.693,4.406-53.471,8.858-10.121,1.895-10.121,16.389,0,18.284,23.779,4.452,48.553,8.858,53.471,8.858,9.941,0,18-8.059,18-18s-8.059-18-18-18Zm-52,24c-3.314,0-6-2.686-6-6s2.686-6,6-6,6,2.686,6,6-2.686,6-6,6Zm52,8c-7.732,0-14-6.268-14-14s6.268-14,14-14,14,6.268,14,14-6.268,14-14,14Z"/><path class="y" d="m76,38c-4.918,0-29.693,4.406-53.471,8.858-10.121,1.895-10.121,16.389,0,18.284,23.779,4.452,48.553,8.858,53.471,8.858,9.941,0,18-8.059,18-18s-8.059-18-18-18Zm-52,24c-3.314,0-6-2.686-6-6s2.686-6,6-6,6,2.686,6,6-2.686,6-6,6Zm52,8c-7.732,0-14-6.268-14-14s6.268-14,14-14,14,6.268,14,14-6.268,14-14,14Z"/><circle class="w" cx="76" cy="56" r="14"/><path class="ab" d="m76,38c-4.918,0-29.693,4.406-53.471,8.858-10.121,1.895-10.121,16.389,0,18.284,23.779,4.452,48.553,8.858,53.471,8.858,9.941,0,18-8.059,18-18s-8.059-18-18-18Zm-52,24c-3.314,0-6-2.686-6-6s2.686-6,6-6,6,2.686,6,6-2.686,6-6,6Zm52,8c-7.732,0-14-6.268-14-14s6.268-14,14-14,14,6.268,14,14-6.268,14-14,14Z"/><path class="ak" d="m24,77c-11.598,0-21-9.402-21-21s9.402-21,21-21c6.902,0,13.007,3.345,16.835,8.485,1.1-.199,2.191-.395,3.269-.588-4.284-6.559-11.685-10.898-20.104-10.898C10.745,32,0,42.745,0,56s10.745,24,24,24c8.419,0,15.82-4.338,20.104-10.898-1.078-.193-2.168-.389-3.269-.588-3.828,5.141-9.933,8.486-16.835,8.486Z"/><path class="ai" d="m24,77c-11.598,0-21-9.402-21-21s9.402-21,21-21c6.902,0,13.007,3.345,16.835,8.485,1.1-.199,2.191-.395,3.269-.588-4.284-6.559-11.685-10.898-20.104-10.898C10.745,32,0,42.745,0,56s10.745,24,24,24c8.419,0,15.82-4.338,20.104-10.898-1.078-.193-2.168-.389-3.269-.588-3.828,5.141-9.933,8.486-16.835,8.486Z"/><path class="ah" d="m24,35c-11.598,0-21,9.402-21,21s9.402,21,21,21c6.902,0,13.007-3.345,16.835-8.486-5.929-1.071-12.15-2.22-18.307-3.373-10.121-1.895-10.121-16.388,0-18.284,6.157-1.153,12.378-2.302,18.307-3.373-3.828-5.141-9.933-8.485-16.835-8.485Z"/><circle class="ae" cx="24" cy="56" r="6"/><circle class="an" cx="76" cy="56" r="14"/><path class="ao" d="m28.999,22c-.285,0-.575-.061-.85-.19l-14.129-6.649c-2.453-1.155-4.019-3.622-4.019-6.334V2.107c0-.996.681-1.92,1.664-2.08,1.253-.204,2.336.758,2.336,1.973v6.827c0,1.162.671,2.22,1.723,2.714l14.057,6.615c.862.406,1.393,1.354,1.174,2.281-.23.975-1.071,1.562-1.955,1.562Z"/><path class="aj" d="m28.999,22c-.285,0-.575-.061-.85-.19l-14.129-6.649c-2.453-1.155-4.019-3.622-4.019-6.334V2.107c0-.996.681-1.92,1.664-2.08,1.253-.204,2.336.758,2.336,1.973v6.827c0,1.162.671,2.22,1.723,2.714l14.057,6.615c.862.406,1.393,1.354,1.174,2.281-.23.975-1.071,1.562-1.955,1.562Z"/><line class="x" x1=".5" y1="89.5" x2="95.5" y2="89.5"/><path class="v" d="m23,62h53c3.314,0,6-2.686,6-6s-2.686-6-6-6H23"/><circle class="x" cx="76" cy="56" r="6"/><path class="al" d="m72.869,24h21.131c1.105,0,2-.895,2-2v-1.429c0-1.381-1.184-2.466-2.561-2.344l-18.744,2.482c-1.082.186-2.04.809-2.65,1.723l-.009.014c-.443.665.033,1.555.832,1.555Z"/><path class="am" d="m79,50h-6l8.562-19.693c.896-2.061.684-4.436-.562-6.307h0s9,0,9,0h0c-.34.491-.673.986-1,1.486-4.434,6.776-7.639,14.286-9.463,22.186l-.537,2.328Z"/><path class="af" d="m72.869,24h21.131c1.105,0,2-.895,2-2v-1.429c0-1.381-1.184-2.466-2.561-2.344l-18.744,2.482c-1.082.186-2.04.809-2.65,1.723l-.009.014c-.443.665.033,1.555.832,1.555Z"/><polygon class="ag" points="25 51 21 51 16 16 20 18 25 51"/><polygon class="ad" points="4 89 22 56 25 56 7 89 4 89"/><polygon class="aa" points="92 89 77 56 74 56 89 89 92 89"/><path class="z" d="m44.104,42.898c-1.078.193-2.168.389-3.269.588,2.604,3.498,4.165,7.819,4.165,12.515s-1.56,9.017-4.165,12.514c1.1.199,2.191.395,3.269.588,2.461-3.768,3.896-8.266,3.896-13.102s-1.435-9.334-3.896-13.102Z"/></g></svg>