<?xml version="1.0" encoding="UTF-8"?><svg id="b" xmlns="http://www.w3.org/2000/svg" xmlns:xlink="http://www.w3.org/1999/xlink" viewBox="0 0 96 96"><defs><style>.r{stroke:url(#n);}.r,.s,.t,.u,.v,.w{fill:none;stroke-linecap:round;stroke-miterlimit:10;}.s{stroke:url(#o);}.t{stroke:url(#p);}.u{stroke:url(#q);}.v,.w{stroke:#fe2a00;}.w{stroke-width:2px;}.x{fill:url(#e);}.x,.y,.z,.aa,.ab,.ac,.ad,.ae,.af,.ag{stroke-width:0px;}.y{fill:url(#f);}.z{fill:url(#d);}.aa{fill:url(#j);}.ab{fill:url(#i);}.ac{fill:url(#h);}.ad{fill:url(#m);}.ae{fill:url(#g);}.af{fill:url(#k);}.ag{fill:url(#l);}</style><linearGradient id="d" x1="33.52" y1="50.742" x2="61.468" y2="63.185" gradientUnits="userSpaceOnUse"><stop offset="0" stop-color="#fe2a00"/><stop offset=".062" stop-color="#fe2a00" stop-opacity=".893"/><stop offset=".209" stop-color="#fe2a00" stop-opacity=".659"/><stop offset=".356" stop-color="#fe2a00" stop-opacity=".458"/><stop offset=".498" stop-color="#fe2a00" stop-opacity=".293"/><stop offset=".636" stop-color="#fe2a00" stop-opacity=".165"/><stop offset=".769" stop-color="#fe2a00" stop-opacity=".074"/><stop offset=".893" stop-color="#fe2a00" stop-opacity=".019"/><stop offset="1" stop-color="#fe2a00" stop-opacity="0"/></linearGradient><linearGradient id="e" x1="51.379" y1="76.072" x2="72.581" y2="53.692" gradientUnits="userSpaceOnUse"><stop offset="0" stop-color="#fe2a00"/><stop offset=".006" stop-color="#fe2a00" stop-opacity=".968"/><stop offset=".04" stop-color="#fe2a00" stop-opacity=".787"/><stop offset=".078" stop-color="#fe2a00" stop-opacity=".617"/><stop offset=".12" stop-color="#fe2a00" stop-opacity=".469"/><stop offset=".165" stop-color="#fe2a00" stop-opacity=".341"/><stop offset=".215" stop-color="#fe2a00" stop-opacity=".234"/><stop offset=".271" stop-color="#fe2a00" stop-opacity=".147"/><stop offset=".336" stop-color="#fe2a00" stop-opacity=".081"/><stop offset=".418" stop-color="#fe2a00" stop-opacity=".034"/><stop offset=".532" stop-color="#fe2a00" stop-opacity=".007"/><stop offset=".848" stop-color="#fe2a00" stop-opacity="0"/></linearGradient><linearGradient id="f" x1="61.679" y1="93.345" x2="62.452" y2="73.578" gradientUnits="userSpaceOnUse"><stop offset="0" stop-color="#fe2a00"/><stop offset=".044" stop-color="#fe2a00" stop-opacity=".903"/><stop offset=".149" stop-color="#fe2a00" stop-opacity=".693"/><stop offset=".259" stop-color="#fe2a00" stop-opacity=".508"/><stop offset=".37" stop-color="#fe2a00" stop-opacity=".352"/><stop offset=".484" stop-color="#fe2a00" stop-opacity=".224"/><stop offset=".6" stop-color="#fe2a00" stop-opacity=".125"/><stop offset=".722" stop-color="#fe2a00" stop-opacity=".055"/><stop offset=".851" stop-color="#fe2a00" stop-opacity=".013"/><stop offset="1" stop-color="#fe2a00" stop-opacity="0"/></linearGradient><linearGradient id="g" x1="32.979" y1="56.266" x2="59.188" y2="74.965" gradientUnits="userSpaceOnUse"><stop offset="0" stop-color="#fe2a00"/><stop offset=".031" stop-color="#fe2a00" stop-opacity=".901"/><stop offset=".096" stop-color="#fe2a00" stop-opacity=".714"/><stop offset=".168" stop-color="#fe2a00" stop-opacity=".544"/><stop offset=".243" stop-color="#fe2a00" stop-opacity=".397"/><stop offset=".323" stop-color="#fe2a00" stop-opacity=".273"/><stop offset=".41" stop-color="#fe2a00" stop-opacity=".173"/><stop offset=".506" stop-color="#fe2a00" stop-opacity=".096"/><stop offset=".617" stop-color="#fe2a00" stop-opacity=".041"/><stop offset=".754" stop-color="#fe2a00" stop-opacity=".009"/><stop offset="1" stop-color="#fe2a00" stop-opacity="0"/></linearGradient><linearGradient id="h" x1="85.207" y1="99.014" x2="70.041" y2="81.346" gradientUnits="userSpaceOnUse"><stop offset="0" stop-color="#fe2a00"/><stop offset=".007" stop-color="#fe2a00" stop-opacity=".968"/><stop offset=".047" stop-color="#fe2a00" stop-opacity=".787"/><stop offset=".092" stop-color="#fe2a00" stop-opacity=".617"/><stop offset=".141" stop-color="#fe2a00" stop-opacity=".469"/><stop offset=".194" stop-color="#fe2a00" stop-opacity=".341"/><stop offset=".253" stop-color="#fe2a00" stop-opacity=".234"/><stop offset=".319" stop-color="#fe2a00" stop-opacity=".147"/><stop offset=".397" stop-color="#fe2a00" stop-opacity=".081"/><stop offset=".493" stop-color="#fe2a00" stop-opacity=".034"/><stop offset=".627" stop-color="#fe2a00" stop-opacity=".007"/><stop offset="1" stop-color="#fe2a00" stop-opacity="0"/></linearGradient><linearGradient id="i" x1="51.818" y1="81.352" x2="63.235" y2="72.049" gradientUnits="userSpaceOnUse"><stop offset="0" stop-color="#fe2a00"/><stop offset=".102" stop-color="#fe2a00" stop-opacity=".931"/><stop offset=".305" stop-color="#fe2a00" stop-opacity=".75"/><stop offset=".591" stop-color="#fe2a00" stop-opacity=".459"/><stop offset=".945" stop-color="#fe2a00" stop-opacity=".063"/><stop offset="1" stop-color="#fe2a00" stop-opacity="0"/></linearGradient><linearGradient id="j" x1="74.026" y1="57.02" x2="48.407" y2="71.155" gradientUnits="userSpaceOnUse"><stop offset="0" stop-color="#fe2a00"/><stop offset=".028" stop-color="#fe2a00" stop-opacity=".913"/><stop offset=".095" stop-color="#fe2a00" stop-opacity=".724"/><stop offset=".169" stop-color="#fe2a00" stop-opacity=".551"/><stop offset=".246" stop-color="#fe2a00" stop-opacity=".402"/><stop offset=".328" stop-color="#fe2a00" stop-opacity=".277"/><stop offset=".417" stop-color="#fe2a00" stop-opacity=".176"/><stop offset=".514" stop-color="#fe2a00" stop-opacity=".097"/><stop offset=".626" stop-color="#fe2a00" stop-opacity=".042"/><stop offset=".763" stop-color="#fe2a00" stop-opacity=".01"/><stop offset="1" stop-color="#fe2a00" stop-opacity="0"/></linearGradient><linearGradient id="k" x1="53.554" y1="52.34" x2="64.155" y2="36.107" gradientUnits="userSpaceOnUse"><stop offset="0" stop-color="#fe2a00"/><stop offset=".373" stop-color="#fe2a00" stop-opacity=".993"/><stop offset=".507" stop-color="#fe2a00" stop-opacity=".966"/><stop offset=".603" stop-color="#fe2a00" stop-opacity=".919"/><stop offset=".681" stop-color="#fe2a00" stop-opacity=".853"/><stop offset=".747" stop-color="#fe2a00" stop-opacity=".766"/><stop offset=".806" stop-color="#fe2a00" stop-opacity=".659"/><stop offset=".859" stop-color="#fe2a00" stop-opacity=".531"/><stop offset=".908" stop-color="#fe2a00" stop-opacity=".383"/><stop offset=".953" stop-color="#fe2a00" stop-opacity=".213"/><stop offset=".993" stop-color="#fe2a00" stop-opacity=".032"/><stop offset="1" stop-color="#fe2a00" stop-opacity="0"/></linearGradient><linearGradient id="l" x1="54.845" y1="20.883" x2="77.773" y2="26.385" gradientUnits="userSpaceOnUse"><stop offset="0" stop-color="#fe2a00"/><stop offset=".022" stop-color="#fe2a00" stop-opacity=".913"/><stop offset=".077" stop-color="#fe2a00" stop-opacity=".724"/><stop offset=".136" stop-color="#fe2a00" stop-opacity=".551"/><stop offset=".198" stop-color="#fe2a00" stop-opacity=".402"/><stop offset=".264" stop-color="#fe2a00" stop-opacity=".277"/><stop offset=".335" stop-color="#fe2a00" stop-opacity=".176"/><stop offset=".414" stop-color="#fe2a00" stop-opacity=".097"/><stop offset=".504" stop-color="#fe2a00" stop-opacity=".042"/><stop offset=".614" stop-color="#fe2a00" stop-opacity=".01"/><stop offset=".805" stop-color="#fe2a00" stop-opacity="0"/></linearGradient><linearGradient id="m" x1="75.298" y1="46.825" x2="69.829" y2="1.51" gradientUnits="userSpaceOnUse"><stop offset="0" stop-color="#fe2a00"/><stop offset=".022" stop-color="#fe2a00" stop-opacity=".913"/><stop offset=".076" stop-color="#fe2a00" stop-opacity=".724"/><stop offset=".134" stop-color="#fe2a00" stop-opacity=".551"/><stop offset=".196" stop-color="#fe2a00" stop-opacity=".402"/><stop offset=".262" stop-color="#fe2a00" stop-opacity=".277"/><stop offset=".332" stop-color="#fe2a00" stop-opacity=".176"/><stop offset=".41" stop-color="#fe2a00" stop-opacity=".097"/><stop offset=".499" stop-color="#fe2a00" stop-opacity=".042"/><stop offset=".608" stop-color="#fe2a00" stop-opacity=".01"/><stop offset=".797" stop-color="#fe2a00" stop-opacity="0"/></linearGradient><linearGradient id="n" x1="16" y1="86.5" x2="49" y2="86.5" gradientUnits="userSpaceOnUse"><stop offset=".274" stop-color="#fe2a00"/><stop offset=".371" stop-color="#fe2a00" stop-opacity=".843"/><stop offset=".604" stop-color="#fe2a00" stop-opacity=".486"/><stop offset=".793" stop-color="#fe2a00" stop-opacity=".224"/><stop offset=".93" stop-color="#fe2a00" stop-opacity=".062"/><stop offset="1" stop-color="#fe2a00" stop-opacity="0"/></linearGradient><linearGradient id="o" x1="5" y1="77.5" x2="23" y2="77.5" xlink:href="#n"/><linearGradient id="p" x1="14" y1="67.5" x2="30" y2="67.5" xlink:href="#n"/><linearGradient id="q" x1="26" y1="77.5" x2="40" y2="77.5" xlink:href="#n"/></defs><g id="c"><path class="z" d="m76.414,74.777c-3.442-3.037-5.414-7.407-5.414-11.997v-10.78h-10c-7.732,0-14-6.268-14-14v-2l-15,15,34.657,34.657c1.5,1.5,3.535,2.343,5.657,2.343h10.686l4-4-10.586-9.223Z"/><path class="x" d="m76.414,74.777c-3.442-3.037-5.414-7.407-5.414-11.997v-10.78h-10c-7.732,0-14-6.268-14-14v-2l-15,15,34.657,34.657c1.5,1.5,3.535,2.343,5.657,2.343h10.686l4-4-10.586-9.223Z"/><path class="y" d="m62.485,91.485L30.172,59.172c-.75-.75-1.172-1.768-1.172-2.828v-.686c0-1.061.421-2.078,1.172-2.828l1.828-1.828,34.657,34.657c1.5,1.5,3.535,2.343,5.657,2.343h10.686s4-4,4-4l6.651,1.478c1.373.305,2.349,1.522,2.349,2.929v.593c0,3.314-2.686,6-6,6h-19.029c-3.183,0-6.235-1.264-8.485-3.515Z"/><path class="ae" d="m62.485,91.485L30.172,59.172c-.75-.75-1.172-1.768-1.172-2.828v-.686c0-1.061.421-2.078,1.172-2.828l1.828-1.828,34.657,34.657c1.5,1.5,3.535,2.343,5.657,2.343h10.686s4-4,4-4l6.651,1.478c1.373.305,2.349,1.522,2.349,2.929v.593c0,3.314-2.686,6-6,6h-19.029c-3.183,0-6.235-1.264-8.485-3.515Z"/><path class="ac" d="m62.485,91.485L30.172,59.172c-.75-.75-1.172-1.768-1.172-2.828v-.686c0-1.061.421-2.078,1.172-2.828l1.828-1.828,34.657,34.657c1.5,1.5,3.535,2.343,5.657,2.343h10.686s4-4,4-4l6.651,1.478c1.373.305,2.349,1.522,2.349,2.929v.593c0,3.314-2.686,6-6,6h-19.029c-3.183,0-6.235-1.264-8.485-3.515Z"/><path class="ab" d="m62.485,91.485L30.172,59.172c-.75-.75-1.172-1.768-1.172-2.828v-.686c0-1.061.421-2.078,1.172-2.828l1.828-1.828,34.657,34.657c1.5,1.5,3.535,2.343,5.657,2.343h10.686s4-4,4-4l6.651,1.478c1.373.305,2.349,1.522,2.349,2.929v.593c0,3.314-2.686,6-6,6h-19.029c-3.183,0-6.235-1.264-8.485-3.515Z"/><path class="aa" d="m76.414,74.777c-3.442-3.037-5.414-7.407-5.414-11.997v-10.78h-10c-7.732,0-14-6.268-14-14v-2l-15,15,34.657,34.657c1.5,1.5,3.535,2.343,5.657,2.343h10.686l4-4-10.586-9.223Z"/><path class="af" d="m47,36l.293-.293c.391-.391,1.024-.391,1.414,0l1.293,1.293h0c0,6.627,5.373,12,12,12h7c1.105,0,2,.895,2,2v1h-10c-7.732,0-14-6.268-14-14v-2Z"/><path class="ag" d="m96,19l-20.257,19.257c-3.142,3.142-5.756,6.769-7.743,10.743h0s-6,0-6,0c-6.627,0-12-5.373-12-12h0s4.249-3.777,4.249-3.777c3.142-2.793,5.767-6.12,7.752-9.826L74,0h3c10.493,0,19,8.507,19,19h0Z"/><path class="ad" d="m96,19l-20.257,19.257c-3.142,3.142-5.756,6.769-7.743,10.743h0s-6,0-6,0c-6.627,0-12-5.373-12-12h0s4.249-3.777,4.249-3.777c3.142-2.793,5.767-6.12,7.752-9.826L74,0h3c10.493,0,19,8.507,19,19h0Z"/><line class="v" x1="95.5" y1="95.5" x2=".5" y2="95.5"/><line class="r" x1="48.5" y1="86.5" x2="16.5" y2="86.5"/><line class="s" x1="22.5" y1="77.5" x2="5.5" y2="77.5"/><line class="t" x1="29.5" y1="67.5" x2="14.5" y2="67.5"/><line class="u" x1="26.5" y1="77.5" x2="39.5" y2="77.5"/><line class="w" x1="72" y1="58" x2="64" y2="58"/><line class="w" x1="72" y1="64" x2="68" y2="64"/></g></svg>