<?xml version="1.0" encoding="UTF-8"?><svg id="b" xmlns="http://www.w3.org/2000/svg" xmlns:xlink="http://www.w3.org/1999/xlink" viewBox="0 0 20.173 20.173"><defs><style>.f{fill:url(#e);}.f,.g{stroke-width:0px;}.g{fill:url(#d);}</style><linearGradient id="d" x1="17.367" y1="3.802" x2="-11.645" y2="30.488" gradientTransform="translate(20.29 20.477) rotate(-180)" gradientUnits="userSpaceOnUse"><stop offset=".207" stop-color="#fe2a00"/><stop offset=".241" stop-color="#fe441f" stop-opacity=".873"/><stop offset=".308" stop-color="#fe7559" stop-opacity=".644"/><stop offset=".378" stop-color="#ff9d8a" stop-opacity=".447"/><stop offset=".447" stop-color="#ffc1b5" stop-opacity=".285"/><stop offset=".517" stop-color="#ffdbd4" stop-opacity=".16"/><stop offset=".586" stop-color="#ffece8" stop-opacity=".071"/><stop offset=".657" stop-color="#fefefe" stop-opacity=".018"/><stop offset=".729" stop-color="#fff" stop-opacity="0"/></linearGradient><linearGradient id="e" x1="21.596" y1="7.727" x2="-7.416" y2="34.413" gradientTransform="translate(-4.229 24.519) rotate(-90)" xlink:href="#d"/></defs><g id="c"><path class="g" d="M.964,11.479h17.777c.815,0,1.432-.616,1.432-1.432,0-.656-.388-1.173-.964-1.352H1.442c-.825,0-1.442.607-1.442,1.432.01.646.388,1.173.964,1.352Z"/><path class="f" d="M8.695.964v17.777c0,.815.616,1.432,1.432,1.432.656,0,1.173-.388,1.352-.964V1.442c0-.825-.607-1.442-1.432-1.442-.646.01-1.173.388-1.352.964Z"/></g></svg>